<svg width="500" height="481" viewBox="0 0 500 481" fill="none" xmlns="http://www.w3.org/2000/svg">
<path d="M167.19 69.187C167.19 69.187 91.42 106.32 53.63 163.54C15.84 220.76 18.83 294.372 64.75 349.014C110.67 403.655 198.44 396.479 271.93 431.091C345.42 465.704 426.5 458.576 461.25 385.243C496 311.909 443.6 284.502 434.6 199.634C425.6 114.767 346.07 -9.50456 167.19 69.187Z" fill="#92E3A9"/>
<path opacity="0.7" d="M167.19 69.187C167.19 69.187 91.42 106.32 53.63 163.54C15.84 220.76 18.83 294.372 64.75 349.014C110.67 403.655 198.44 396.479 271.93 431.091C345.42 465.704 426.5 458.576 461.25 385.243C496 311.909 443.6 284.502 434.6 199.634C425.6 114.767 346.07 -9.50456 167.19 69.187Z" fill="white"/>
<path d="M171.05 118.326H85.17V193.352H171.05V118.326Z" fill="#92E3A9"/>
<path opacity="0.37" d="M171.05 118.326H85.17V193.352H171.05V118.326Z" fill="black"/>
<path d="M146.37 118.326H85.17V193.352H146.37V118.326Z" fill="#92E3A9"/>
<path d="M121.98 118.326H108.83V139.269H121.98V118.326Z" fill="white"/>
<path d="M140.58 145.387H125.34V152.871H140.58V145.387Z" fill="white"/>
<path d="M133.604 172.044L117.898 168.305L115.582 177.307L131.288 181.046L133.604 172.044Z" fill="white"/>
<path d="M235.05 118.326H149.17V193.352H235.05V118.326Z" fill="#92E3A9"/>
<path opacity="0.37" d="M235.05 118.326H149.17V193.352H235.05V118.326Z" fill="black"/>
<path d="M210.37 118.326H149.17V193.352H210.37V118.326Z" fill="#92E3A9"/>
<path d="M185.98 118.326H172.83V139.269H185.98V118.326Z" fill="white"/>
<path d="M204.58 145.387H189.34V152.871H204.58V145.387Z" fill="white"/>
<path d="M197.6 172.049L181.894 168.309L179.578 177.311L195.284 181.051L197.6 172.049Z" fill="white"/>
<path d="M299.05 118.326H213.17V193.352H299.05V118.326Z" fill="#92E3A9"/>
<path opacity="0.37" d="M299.05 118.326H213.17V193.352H299.05V118.326Z" fill="black"/>
<path d="M274.37 118.326H213.17V193.352H274.37V118.326Z" fill="#92E3A9"/>
<path d="M249.98 118.326H236.83V139.269H249.98V118.326Z" fill="white"/>
<path d="M268.58 145.387H253.34V152.871H268.58V145.387Z" fill="white"/>
<path d="M261.596 172.053L245.89 168.314L243.574 177.316L259.28 181.055L261.596 172.053Z" fill="white"/>
<path d="M363.05 118.326H277.17V193.352H363.05V118.326Z" fill="#92E3A9"/>
<path opacity="0.37" d="M363.05 118.326H277.17V193.352H363.05V118.326Z" fill="black"/>
<path d="M338.37 118.326H277.17V193.352H338.37V118.326Z" fill="#92E3A9"/>
<path d="M313.98 118.326H300.83V139.269H313.98V118.326Z" fill="white"/>
<path d="M332.58 145.387H317.34V152.871H332.58V145.387Z" fill="white"/>
<path d="M325.602 172.057L309.895 168.318L307.58 177.32L323.286 181.059L325.602 172.057Z" fill="white"/>
<path d="M171.05 221.26H85.17V296.286H171.05V221.26Z" fill="#92E3A9"/>
<path opacity="0.37" d="M171.05 221.26H85.17V296.286H171.05V221.26Z" fill="black"/>
<path d="M146.37 221.26H85.17V296.286H146.37V221.26Z" fill="#92E3A9"/>
<path d="M121.98 221.26H108.83V242.203H121.98V221.26Z" fill="white"/>
<path d="M140.58 248.321H125.34V255.805H140.58V248.321Z" fill="white"/>
<path d="M133.59 274.975L117.883 271.236L115.568 280.238L131.274 283.977L133.59 274.975Z" fill="white"/>
<path d="M235.05 221.26H149.17V296.286H235.05V221.26Z" fill="#92E3A9"/>
<path opacity="0.37" d="M235.05 221.26H149.17V296.286H235.05V221.26Z" fill="black"/>
<path d="M210.37 221.26H149.17V296.286H210.37V221.26Z" fill="#92E3A9"/>
<path d="M185.98 221.26H172.83V242.203H185.98V221.26Z" fill="white"/>
<path d="M204.58 248.321H189.34V255.805H204.58V248.321Z" fill="white"/>
<path d="M197.596 274.979L181.889 271.24L179.574 280.242L195.28 283.981L197.596 274.979Z" fill="white"/>
<path d="M299.05 221.26H213.17V296.286H299.05V221.26Z" fill="#92E3A9"/>
<path opacity="0.37" d="M299.05 221.26H213.17V296.286H299.05V221.26Z" fill="black"/>
<path d="M274.37 221.26H213.17V296.286H274.37V221.26Z" fill="#92E3A9"/>
<path d="M249.98 221.26H236.83V242.203H249.98V221.26Z" fill="white"/>
<path d="M268.58 248.321H253.34V255.805H268.58V248.321Z" fill="white"/>
<path d="M261.591 274.984L245.885 271.245L243.569 280.247L259.276 283.986L261.591 274.984Z" fill="white"/>
<path d="M363.05 221.26H277.17V296.286H363.05V221.26Z" fill="#92E3A9"/>
<path opacity="0.37" d="M363.05 221.26H277.17V296.286H363.05V221.26Z" fill="black"/>
<path d="M338.37 221.26H277.17V296.286H338.37V221.26Z" fill="#92E3A9"/>
<path d="M313.98 221.26H300.83V242.203H313.98V221.26Z" fill="white"/>
<path d="M332.58 248.321H317.34V255.805H332.58V248.321Z" fill="white"/>
<path d="M325.587 274.988L309.881 271.249L307.565 280.251L323.271 283.99L325.587 274.988Z" fill="white"/>
<path d="M171.05 324.194H85.17V399.22H171.05V324.194Z" fill="#92E3A9"/>
<path opacity="0.37" d="M171.05 324.194H85.17V399.22H171.05V324.194Z" fill="black"/>
<path d="M146.37 324.194H85.17V399.22H146.37V324.194Z" fill="#92E3A9"/>
<path d="M121.98 324.194H108.83V345.137H121.98V324.194Z" fill="white"/>
<path d="M140.58 351.255H125.34V358.739H140.58V351.255Z" fill="white"/>
<path d="M133.585 377.906L117.879 374.166L115.563 383.169L131.269 386.908L133.585 377.906Z" fill="white"/>
<path d="M235.05 324.194H149.17V399.22H235.05V324.194Z" fill="#92E3A9"/>
<path opacity="0.37" d="M235.05 324.194H149.17V399.22H235.05V324.194Z" fill="black"/>
<path d="M210.37 324.194H149.17V399.22H210.37V324.194Z" fill="#92E3A9"/>
<path d="M185.98 324.194H172.83V345.137H185.98V324.194Z" fill="white"/>
<path d="M204.58 351.255H189.34V358.739H204.58V351.255Z" fill="white"/>
<path d="M197.591 377.91L181.885 374.171L179.569 383.173L195.275 386.912L197.591 377.91Z" fill="white"/>
<path d="M299.05 324.194H213.17V399.22H299.05V324.194Z" fill="#92E3A9"/>
<path opacity="0.37" d="M299.05 324.194H213.17V399.22H299.05V324.194Z" fill="black"/>
<path d="M274.37 324.194H213.17V399.22H274.37V324.194Z" fill="#92E3A9"/>
<path d="M249.98 324.194H236.83V345.137H249.98V324.194Z" fill="white"/>
<path d="M268.58 351.255H253.34V358.739H268.58V351.255Z" fill="white"/>
<path d="M261.587 377.914L245.881 374.175L243.565 383.177L259.271 386.917L261.587 377.914Z" fill="white"/>
<path d="M363.05 324.194H277.17V399.22H363.05V324.194Z" fill="#92E3A9"/>
<path opacity="0.37" d="M363.05 324.194H277.17V399.22H363.05V324.194Z" fill="black"/>
<path d="M338.37 324.194H277.17V399.22H338.37V324.194Z" fill="#92E3A9"/>
<path d="M313.98 324.194H300.83V345.137H313.98V324.194Z" fill="white"/>
<path d="M332.58 351.255H317.34V358.739H332.58V351.255Z" fill="white"/>
<path d="M325.583 377.919L309.877 374.18L307.561 383.182L323.267 386.921L325.583 377.919Z" fill="white"/>
<path d="M371 90.7551H71V104.223H371V90.7551Z" fill="#A3A3A3"/>
<path d="M371 190.803H71V204.271H371V190.803Z" fill="#A3A3A3"/>
<path d="M371 290.841H71V304.309H371V290.841Z" fill="#A3A3A3"/>
<path d="M371 390.889H71V404.357H371V390.889Z" fill="#A3A3A3"/>
<path d="M428 33.9971H415V442.847H428V33.9971Z" fill="#7A7A7A"/>
<path d="M151 33.9971H138V442.847H151V33.9971Z" fill="#7A7A7A"/>
<path d="M425 90.7551H364V104.223H425V90.7551Z" fill="#757575"/>
<path d="M425 190.803H364V204.271H425V190.803Z" fill="#757575"/>
<path d="M425 290.841H364V304.309H425V290.841Z" fill="#757575"/>
<path d="M425 390.889H364V404.357H425V390.889Z" fill="#757575"/>
<path d="M83 33.9971H70V442.847H83V33.9971Z" fill="#A3A3A3"/>
<path d="M227 33.9971H214V442.847H227V33.9971Z" fill="#A3A3A3"/>
<path d="M371 33.9971H358V442.847H371V33.9971Z" fill="#A3A3A3"/>
<path d="M344.73 176.094H242.71V265.214H344.73V176.094Z" fill="#92E3A9"/>
<path opacity="0.37" d="M344.73 176.094H242.71V265.214H344.73V176.094Z" fill="black"/>
<path d="M344.73 176.094H242.71V265.214H344.73V176.094Z" stroke="#263238" stroke-linecap="round" stroke-linejoin="round"/>
<path d="M315.42 176.094H242.71V265.214H315.42V176.094Z" fill="#92E3A9" stroke="#263238" stroke-linecap="round" stroke-linejoin="round"/>
<path d="M286.43 176.094H270.81V200.971H286.43V176.094Z" fill="white" stroke="#263238" stroke-linecap="round" stroke-linejoin="round"/>
<path d="M308.54 208.235H290.43V217.123H308.54V208.235Z" fill="white"/>
<path d="M300.228 239.908L281.57 235.466L278.817 246.167L297.475 250.609L300.228 239.908Z" fill="white"/>
<path d="M283.37 353.718H181.35V442.837H283.37V353.718Z" fill="#92E3A9"/>
<path opacity="0.37" d="M283.37 353.718H181.35V442.837H283.37V353.718Z" fill="black"/>
<path d="M283.37 353.718H181.35V442.837H283.37V353.718Z" stroke="#263238" stroke-linecap="round" stroke-linejoin="round"/>
<path d="M254.06 353.718H181.35V442.837H254.06V353.718Z" fill="#92E3A9" stroke="#263238" stroke-linecap="round" stroke-linejoin="round"/>
<path d="M225.07 353.718H209.45V378.595H225.07V353.718Z" fill="white" stroke="#263238" stroke-linecap="round" stroke-linejoin="round"/>
<path d="M206.53 426.753H188.42V435.642H206.53V426.753Z" fill="white"/>
<path d="M244.564 385.765L225.907 381.323L223.154 392.025L241.811 396.467L244.564 385.765Z" fill="white"/>
<path d="M358.39 353.718H256.37V442.837H358.39V353.718Z" fill="#92E3A9"/>
<path opacity="0.37" d="M358.39 353.718H256.37V442.837H358.39V353.718Z" fill="black"/>
<path d="M358.39 353.718H256.37V442.837H358.39V353.718Z" stroke="#263238" stroke-linecap="round" stroke-linejoin="round"/>
<path d="M329.08 353.718H256.37V442.837H329.08V353.718Z" fill="#92E3A9" stroke="#263238" stroke-linecap="round" stroke-linejoin="round"/>
<path d="M300.09 353.718H284.47V378.595H300.09V353.718Z" fill="white" stroke="#263238" stroke-linecap="round" stroke-linejoin="round"/>
<path d="M322.2 385.868H304.09V394.757H322.2V385.868Z" fill="white"/>
<path d="M281.88 379.723L263.223 375.281L260.47 385.983L279.127 390.425L281.88 379.723Z" fill="white"/>
<path d="M434.39 353.718H332.37V442.837H434.39V353.718Z" fill="#92E3A9"/>
<path opacity="0.37" d="M434.39 353.718H332.37V442.837H434.39V353.718Z" fill="black"/>
<path d="M434.39 353.718H332.37V442.837H434.39V353.718Z" stroke="#263238" stroke-linecap="round" stroke-linejoin="round"/>
<path d="M405.08 353.718H332.37V442.837H405.08V353.718Z" fill="#92E3A9" stroke="#263238" stroke-linecap="round" stroke-linejoin="round"/>
<path d="M376.09 353.718H360.47V378.595H376.09V353.718Z" fill="white" stroke="#263238" stroke-linecap="round" stroke-linejoin="round"/>
<path d="M398.2 385.868H380.09V394.757H398.2V385.868Z" fill="white"/>
<path d="M357.874 379.73L339.217 375.288L336.464 385.99L355.121 390.432L357.874 379.73Z" fill="white"/>
<path d="M318.55 264.839H216.53V353.958H318.55V264.839Z" fill="#92E3A9"/>
<path opacity="0.37" d="M318.55 264.839H216.53V353.958H318.55V264.839Z" fill="black"/>
<path d="M318.55 264.839H216.53V353.958H318.55V264.839Z" stroke="#263238" stroke-linecap="round" stroke-linejoin="round"/>
<path d="M289.24 264.839H216.53V353.958H289.24V264.839Z" fill="#92E3A9" stroke="#263238" stroke-linecap="round" stroke-linejoin="round"/>
<path d="M260.24 264.839H244.62V289.716H260.24V264.839Z" fill="white" stroke="#263238" stroke-linecap="round" stroke-linejoin="round"/>
<path d="M282.36 296.989H264.25V305.878H282.36V296.989Z" fill="white"/>
<path d="M242.031 290.846L223.374 286.404L220.621 297.106L239.278 301.548L242.031 290.846Z" fill="white"/>
<path d="M399.55 264.839H297.53V353.958H399.55V264.839Z" fill="#92E3A9"/>
<path opacity="0.37" d="M399.55 264.839H297.53V353.958H399.55V264.839Z" fill="black"/>
<path d="M399.55 264.839H297.53V353.958H399.55V264.839Z" stroke="#263238" stroke-linecap="round" stroke-linejoin="round"/>
<path d="M370.24 264.839H297.53V353.958H370.24V264.839Z" fill="#92E3A9" stroke="#263238" stroke-linecap="round" stroke-linejoin="round"/>
<path d="M341.24 264.839H325.62V289.716H341.24V264.839Z" fill="white" stroke="#263238" stroke-linecap="round" stroke-linejoin="round"/>
<path d="M363.36 296.989H345.25V305.878H363.36V296.989Z" fill="white"/>
<path d="M327.527 311.922L308.87 307.48L306.116 318.182L324.774 322.623L327.527 311.922Z" fill="white"/>
<path d="M38.4 442.837H476.4" stroke="#263238" stroke-linecap="round" stroke-linejoin="round"/>
<path d="M116.2 414.112C116.2 414.112 112 422.318 109 426.955C106 431.592 100.43 437.691 101 443.059C101.57 448.427 107.38 449.004 113.36 445.945C119.34 442.886 124.72 436.748 126.36 432.14C128 427.532 133.14 423.703 133.14 418.528C133.14 413.352 132.74 412.756 130.75 412.198C128.76 411.64 118.19 410.851 116.2 414.112Z" fill="white" stroke="#263238" stroke-linecap="round" stroke-linejoin="round"/>
<path d="M133.14 418.518C133.14 417.758 133.14 417.104 133.14 416.527C132.587 418.128 131.919 419.69 131.14 421.202C128.94 425.425 125.75 427.936 124.56 433.092C123.37 438.249 115.79 444.213 109.21 445.743C102.63 447.272 101.21 442.106 101.21 442.106H100.97C100.946 442.427 100.946 442.748 100.97 443.068C101.57 448.436 107.35 449.014 113.33 445.954C119.31 442.895 124.69 436.758 126.33 432.15C127.97 427.542 133.14 423.694 133.14 418.518Z" fill="#263238" stroke="#263238" stroke-linecap="round" stroke-linejoin="round"/>
<path d="M117 417.556C117 417.556 119.4 420.817 127.37 419.865" stroke="#263238" stroke-linecap="round" stroke-linejoin="round"/>
<path d="M116.8 420.25C119.169 422.042 122.175 422.868 125.17 422.549" stroke="#263238" stroke-linecap="round" stroke-linejoin="round"/>
<path d="M116 422.549C116.88 423.465 117.973 424.169 119.19 424.602C120.406 425.035 121.712 425.185 123 425.04" stroke="#263238" stroke-linecap="round" stroke-linejoin="round"/>
<path d="M115.2 425.81C115.2 425.81 116.6 428.494 121.98 427.917" stroke="#263238" stroke-linecap="round" stroke-linejoin="round"/>
<path d="M167.22 421.356C170.219 425.897 174.342 429.652 179.22 432.284C186.99 436.315 196.96 439.018 197.75 440.942C198.084 441.64 198.147 442.43 197.929 443.169C197.711 443.908 197.225 444.548 196.56 444.973C195.56 445.541 180.81 445.935 173.04 444.588C168.655 443.687 164.172 443.299 159.69 443.434C156.1 443.434 148.33 444.396 147.33 440.173C146.33 435.95 148.92 420.615 148.92 420.615C148.92 420.615 160.64 423.886 167.22 421.356Z" fill="white" stroke="#263238" stroke-miterlimit="10"/>
<path d="M196.52 444.983C197.035 444.655 197.443 444.194 197.698 443.653C197.953 443.112 198.044 442.512 197.96 441.924C194.866 442.649 191.721 443.157 188.55 443.443C180.55 444.213 168.62 441.722 159.25 441.337C152.37 441.058 148.61 439.528 147.1 438.749C147.127 439.231 147.191 439.71 147.29 440.182C148.29 444.406 156.06 443.443 159.65 443.443C164.132 443.309 168.615 443.696 173 444.598C180.77 445.935 195.52 445.55 196.52 444.983Z" fill="#263238" stroke="#263238" stroke-miterlimit="10"/>
<path d="M170.21 425.81C168.674 426.99 167.444 428.499 166.62 430.216" stroke="#263238" stroke-miterlimit="10"/>
<path d="M172.6 428.677C172.6 428.677 170.01 430.793 170.01 432.13" stroke="#263238" stroke-miterlimit="10"/>
<path d="M175.19 430.601C174.519 431.687 173.985 432.847 173.6 434.054" stroke="#263238" stroke-miterlimit="10"/>
<path d="M179.18 432.323C179.18 432.323 177.58 433.67 177.58 435.007" stroke="#263238" stroke-miterlimit="10"/>
<path d="M110.93 217.729C110.93 217.729 104.59 246.753 105.09 262.626C105.59 278.499 128.09 317.941 128.09 317.941C128.09 317.941 116.09 346.32 115.59 358.826C115.09 371.332 116.11 411.592 116.11 411.592C116.11 411.592 121.11 414.381 125.64 414.381C130.17 414.381 135.58 412.188 135.58 412.188L147.09 368.898L147.59 421.327C150.919 423.225 154.72 424.222 158.59 424.213C162.527 424.191 166.363 423.016 169.59 420.846C169.59 420.846 177.59 365.531 178.59 356.392C179.59 347.253 186.09 319.836 186.59 317.912C187.09 315.988 196.59 285.685 196.59 261.154C196.59 236.623 189.26 221.876 189.26 221.876C189.26 221.876 163.59 216.421 144.59 215.94C133.338 215.642 122.079 216.24 110.93 217.729Z" fill="#263238" stroke="#263238" stroke-linecap="round" stroke-linejoin="round"/>
<path d="M150.59 361.712C150.59 361.712 163.59 326.118 163.59 317.46C163.59 308.802 155.09 254.93 155.09 254.93" stroke="#878787" stroke-miterlimit="10"/>
<path d="M158.59 271.284C158.59 271.284 166.09 263.107 168.59 258.297" stroke="#878787" stroke-miterlimit="10"/>
<path d="M188.26 143.983C188.26 143.983 198.59 149.755 204.26 158.413C209.93 167.071 222.26 203.627 221.59 212.919C220.92 222.212 217.93 224.791 209.26 223.184C200.59 221.577 199.93 212.285 197.93 204.589C195.93 196.893 185.26 148.148 185.26 148.148L184.93 143.655L188.26 143.983Z" fill="white" stroke="#263238" stroke-linecap="round" stroke-linejoin="round"/>
<path d="M221.59 212.919C221.93 208.186 218.9 196.373 215.09 184.781L194 187.59C195.77 195.478 197.29 202.107 197.93 204.56C199.93 212.256 200.59 221.549 209.26 223.155C217.93 224.762 220.93 222.222 221.59 212.919Z" fill="#CFCFCF" stroke="#263238" stroke-linecap="round" stroke-linejoin="round"/>
<path d="M119.26 141.097C119.26 141.097 111.26 142.693 109.26 156.161C107.26 169.629 111.93 191.755 111.93 191.755L110.93 217.729C110.93 217.729 144.26 226.07 157.93 226.07C171.6 226.07 189.26 221.905 189.26 221.905C189.26 221.905 181.93 157.123 180.59 151.679C179.25 146.234 173.26 140.769 168.26 137.249C163.26 133.728 150.59 134.035 143.26 135.959C135.93 137.883 125.59 141.731 125.59 141.731L119.26 141.097Z" fill="white" stroke="#263238" stroke-linecap="round" stroke-linejoin="round"/>
<path d="M143.26 132.111C143.26 132.111 150.26 159.375 150.93 177.97C151.6 196.565 147.93 254.285 147.93 254.285C147.93 254.285 132.26 254.93 120.93 253.006C109.6 251.082 101.59 250.12 101.59 250.12L111.59 190.159C111.59 190.159 125.26 191.121 128.26 181.818C131.26 172.515 127.26 153.92 123.59 148.148C119.92 142.376 119.26 141.097 119.26 141.097L143.26 132.111Z" fill="#92E3A9" stroke="#263238" stroke-linecap="round" stroke-linejoin="round"/>
<path d="M173.59 157.451C173.59 157.451 180.93 184.387 180.26 211.323C179.59 238.259 179.26 252.689 179.26 252.689C179.26 252.689 195.26 251.727 204.26 248.196C204.26 248.196 199.26 185.349 194.59 166.743C189.92 148.138 188.26 143.983 188.26 143.983L169.59 136.604L173.59 157.451Z" fill="#92E3A9" stroke="#263238" stroke-linecap="round" stroke-linejoin="round"/>
<path d="M150.44 126.878C150.44 126.878 143.44 128.129 141.6 131.63C139.76 135.132 148.88 163.896 148.88 163.896L162.14 153.391L178.52 162.395C178.52 162.395 175.4 140.635 168.64 133.131C161.88 125.628 150.44 126.878 150.44 126.878Z" fill="white" stroke="#263238" stroke-linecap="round" stroke-linejoin="round"/>
<path d="M147.58 108.629C147.58 108.629 147.32 133.882 150.18 140.375C153.04 146.869 160.58 156.383 163.44 154.882C166.3 153.381 167.08 135.123 167.6 133.872C168.12 132.621 170.2 122.328 170.2 122.328C170.2 122.328 151.48 117.364 147.58 108.629Z" fill="#CFCFCF" stroke="#263238" stroke-linecap="round" stroke-linejoin="round"/>
<path d="M147.58 108.629C147.58 108.629 147.48 118.769 148.13 127.869C151.114 131.268 155.306 133.477 159.89 134.064C162.442 134.436 165.039 134.403 167.58 133.968C167.576 133.946 167.576 133.923 167.58 133.901C168.1 132.65 170.18 122.357 170.18 122.357C170.18 122.357 151.48 117.364 147.58 108.629Z" fill="#263238" stroke="#263238" stroke-linecap="round" stroke-linejoin="round"/>
<path d="M176.83 195.517L174.83 196.691L163.26 178.499C163.101 178.245 163.053 177.941 163.126 177.652C163.199 177.364 163.387 177.115 163.65 176.96C163.78 176.882 163.924 176.831 164.075 176.807C164.226 176.783 164.38 176.789 164.529 176.823C164.678 176.857 164.818 176.919 164.942 177.005C165.065 177.091 165.17 177.2 165.25 177.325L176.83 195.517Z" fill="white" stroke="#263238" stroke-linecap="round" stroke-linejoin="round"/>
<path d="M119.26 141.097C119.26 141.097 111.59 141.731 106.93 150.389C102.27 159.047 94.93 199.779 93.59 211.64C92.25 223.501 99.59 222.539 100.59 222.539C101.59 222.539 154.59 205.551 154.59 205.551L172.59 203.627C172.59 203.627 170.59 205.223 172.26 205.223C173.93 205.223 177.26 202.02 178.59 200.096C179.92 198.172 174.59 187.59 172.59 186.311C170.59 185.031 152.59 197.855 152.59 197.855L117.59 200.096L126.59 170.591" fill="white"/>
<path d="M119.26 141.097C119.26 141.097 111.59 141.731 106.93 150.389C102.27 159.047 94.93 199.779 93.59 211.64C92.25 223.501 99.59 222.539 100.59 222.539C101.59 222.539 154.59 205.551 154.59 205.551L172.59 203.627C172.59 203.627 170.59 205.223 172.26 205.223C173.93 205.223 177.26 202.02 178.59 200.096C179.92 198.172 174.59 187.59 172.59 186.311C170.59 185.031 152.59 197.855 152.59 197.855L117.59 200.096L126.59 170.591" stroke="#263238" stroke-linecap="round" stroke-linejoin="round"/>
<path d="M172.59 186.311C170.59 185.021 152.59 197.855 152.59 197.855L117.59 200.096L119.81 192.823L97.42 187.965C95.57 197.845 94.12 206.974 93.59 211.64C92.26 223.501 99.59 222.539 100.59 222.539C101.59 222.539 154.59 205.551 154.59 205.551L172.59 203.627C172.59 203.627 170.59 205.223 172.26 205.223C173.93 205.223 177.26 202.02 178.59 200.096C179.92 198.172 174.59 187.59 172.59 186.311Z" fill="#CFCFCF" stroke="#263238" stroke-linecap="round" stroke-linejoin="round"/>
<path d="M172.59 186.311C170.59 185.021 152.59 197.855 152.59 197.855L147.49 198.182C147.47 201.287 148.265 204.348 149.8 207.08L154.59 205.551L172.59 203.627C172.59 203.627 170.59 205.223 172.26 205.223C173.93 205.223 177.26 202.02 178.59 200.096C179.92 198.172 174.59 187.59 172.59 186.311Z" fill="#666666" stroke="#263238" stroke-linecap="round" stroke-linejoin="round"/>
<path d="M190.26 171.236L156.26 217.095L200.93 215.488L233.26 173.16L190.26 171.236Z" fill="#263238" stroke="#263238" stroke-linecap="round" stroke-linejoin="round"/>
<path d="M205.27 169.889L202.66 174.064L222.21 174.488L224.82 170.303L205.27 169.889Z" fill="#263238" stroke="#263238" stroke-linecap="round" stroke-linejoin="round"/>
<path d="M218.48 197.258C216.945 197.798 215.346 198.153 213.72 198.316C211.72 198.403 209.88 199.374 209.88 200.346C209.88 201.318 213.45 201.491 216.01 201.491C218.57 201.491 220.58 200.962 221.01 199.374C221.44 197.787 220.86 196.383 218.48 197.258Z" fill="#666666" stroke="#263238" stroke-linecap="round" stroke-linejoin="round"/>
<path d="M220.78 192.958C218.844 193.64 216.83 194.093 214.78 194.305C212.23 194.411 209.91 195.642 209.91 196.864C209.91 198.085 214.43 198.316 217.68 198.316C220.93 198.316 223.48 197.653 224.06 195.642C224.64 193.631 223.8 191.842 220.78 192.958Z" fill="#666666" stroke="#263238" stroke-linecap="round" stroke-linejoin="round"/>
<path d="M222.63 189.283C220.694 189.965 218.68 190.418 216.63 190.63C214.07 190.736 211.75 191.967 211.75 193.189C211.75 194.411 216.28 194.641 219.53 194.641C222.78 194.641 225.33 193.978 225.91 191.967C226.49 189.957 225.65 188.167 222.63 189.283Z" fill="#666666" stroke="#263238" stroke-linecap="round" stroke-linejoin="round"/>
<path d="M223.88 185.127C221.943 185.804 219.929 186.253 217.88 186.464C215.33 186.57 213.01 187.802 213.01 189.033C213.01 190.264 217.53 190.486 220.78 190.486C224.03 190.486 226.58 189.812 227.16 187.802C227.74 185.791 226.9 184.011 223.88 185.127Z" fill="#666666" stroke="#263238" stroke-linecap="round" stroke-linejoin="round"/>
<path d="M115.08 402.424C115.08 402.424 114.87 412.39 115.28 413.968C115.69 415.546 122.95 417.546 127.5 417.546C132.05 417.546 134.96 416.584 135.79 415.363C136.62 414.141 138.06 405.993 138.06 405.993C138.06 405.993 121.91 409.206 115.08 402.424Z" fill="#666666" stroke="#263238" stroke-linecap="round" stroke-linejoin="round"/>
<path d="M138 100.625C134.758 99.5268 131.272 99.2722 127.895 99.8871C124.518 100.502 121.37 101.965 118.77 104.127C109.67 111.63 117.77 125.137 127.35 126.638C136.93 128.138 143.2 123.886 144.76 117.133C146.32 110.38 143.74 100.375 138 100.625Z" fill="#263238" stroke="#263238" stroke-linecap="round" stroke-linejoin="round"/>
<path d="M184 98.3741C184 98.3741 182.7 110.88 180.1 119.634C177.5 128.389 170.74 131.64 161.1 130.389C151.46 129.139 146.02 121.635 142.9 112.881C139.78 104.127 139.52 92.1211 139.52 92.1211L184 98.3741Z" fill="#CFCFCF" stroke="#263238" stroke-linecap="round" stroke-linejoin="round"/>
<path d="M140.88 98.124C140.88 98.124 144 100.875 151 96.123C158 91.3708 154.64 89.1197 154.64 89.1197L138 90.0817L140.88 98.124Z" fill="#263238" stroke="#263238" stroke-linecap="round" stroke-linejoin="round"/>
<path d="M173.64 101.376C173.64 101.376 172.34 105.127 173.12 106.378C173.9 107.629 175.98 109.379 173.64 111.38C173.216 111.779 172.701 112.075 172.135 112.246C171.57 112.416 170.971 112.457 170.386 112.363C169.802 112.269 169.249 112.044 168.772 111.706C168.294 111.369 167.907 110.927 167.64 110.418" stroke="#263238" stroke-linecap="round" stroke-linejoin="round"/>
<path d="M159.14 112.554C159.14 112.554 163.14 117.547 170.72 115.248" stroke="#263238" stroke-linecap="round" stroke-linejoin="round"/>
<path d="M164.8 102.876C164.8 104.262 164.22 105.377 163.5 105.377C162.78 105.377 162.2 104.262 162.2 102.876C162.2 101.491 162.78 100.375 163.5 100.375C164.22 100.375 164.8 101.491 164.8 102.876Z" fill="#263238"/>
<path d="M179.1 104.858C179.1 106.243 178.52 107.359 177.8 107.359C177.08 107.359 176.5 106.243 176.5 104.858C176.5 103.473 177.08 102.357 177.8 102.357C178.52 102.357 179.1 103.492 179.1 104.858Z" fill="#263238"/>
<path d="M159.34 97.3736C159.34 97.3736 162.98 93.3717 167.66 97.3736" stroke="#263238" stroke-linecap="round" stroke-linejoin="round"/>
<path d="M176 99.3746C176.801 98.8061 177.782 98.5205 178.776 98.5661C179.771 98.6116 180.719 98.9855 181.46 99.6247" stroke="#263238" stroke-linecap="round" stroke-linejoin="round"/>
<path d="M137 93.1216L185.36 98.124C185.36 98.124 184.84 74.6127 184.58 70.6204C184.32 66.6281 165.08 61.1159 157.58 61.6161C150.08 62.1163 140.68 66.3684 139.12 68.3501C137.56 70.3318 137 93.1216 137 93.1216Z" fill="#92E3A9" stroke="#263238" stroke-linecap="round" stroke-linejoin="round"/>
<path d="M157.78 95.6228L200.67 101.125C200.67 101.125 189.24 91.6209 180.14 90.8705C171.04 90.1202 157.78 95.6228 157.78 95.6228Z" fill="#92E3A9" stroke="#263238" stroke-linecap="round" stroke-linejoin="round"/>
<path d="M142.7 99.8748C142.7 99.8748 141.7 92.1211 137.24 92.1211C132.78 92.1211 134.9 98.3741 135.42 102.376C135.94 106.378 140.88 107.378 142.7 105.878" fill="#CFCFCF"/>
<path d="M142.7 99.8748C142.7 99.8748 141.7 92.1211 137.24 92.1211C132.78 92.1211 134.9 98.3741 135.42 102.376C135.94 106.378 140.88 107.378 142.7 105.878" stroke="#263238" stroke-linecap="round" stroke-linejoin="round"/>
<path d="M147.18 412.785L147.8 422.154C147.8 422.154 150.55 424.136 158.59 424.242C166.63 424.348 169.59 420.875 169.59 420.875L171.2 410.774C171.2 410.774 156.29 417.566 147.18 412.785Z" fill="#666666" stroke="#263238" stroke-linecap="round" stroke-linejoin="round"/>
</svg>
