<svg width="400" height="400" viewBox="0 0 400 400" fill="none" xmlns="http://www.w3.org/2000/svg">
<path d="M361.6 260.912C368.664 205.12 334.4 130.976 298.936 100.36C234.864 45.08 181.632 55.768 140.224 75.56C98.816 95.352 92.944 161.472 64.352 191.376C35.76 221.28 19.504 261.504 62.88 301.552C106.256 341.6 141.28 321.248 186.592 318.704C231.904 316.16 292.072 336.16 324.6 318.776C347.32 306.64 358.504 285.6 361.6 260.912Z" fill="#92E3A9"/>
<path opacity="0.8" d="M361.6 260.912C368.664 205.12 334.4 130.976 298.936 100.36C234.864 45.08 181.632 55.768 140.224 75.56C98.816 95.352 92.944 161.472 64.352 191.376C35.76 221.28 19.504 261.504 62.88 301.552C106.256 341.6 141.28 321.248 186.592 318.704C231.904 316.16 292.072 336.16 324.6 318.776C347.32 306.64 358.504 285.6 361.6 260.912Z" fill="white"/>
<path d="M40.264 270.336C44.304 280.624 51.56 291.096 62.88 301.536C106.256 341.576 141.28 321.232 186.592 318.688C231.904 316.144 292.072 336.144 324.6 318.76C344.36 308.2 355.4 290.88 359.992 270.32L40.264 270.336Z" fill="#92E3A9"/>
<path opacity="0.5" d="M40.264 270.336C44.304 280.624 51.56 291.096 62.88 301.536C106.256 341.576 141.28 321.232 186.592 318.688C231.904 316.144 292.072 336.144 324.6 318.76C344.36 308.2 355.4 290.88 359.992 270.32L40.264 270.336Z" fill="white"/>
<path d="M169.312 135.6C164.216 132.816 161.896 135.136 160.04 132.816C158.184 130.496 165.144 124.472 151.24 118.416C151.24 118.416 150.312 105.432 131.304 104.968C112.296 104.504 117.4 117.952 112.296 121.192C107.192 124.432 105.808 119.344 100.712 122.584C95.616 125.824 97.928 132.32 93.752 133.248C89.576 134.176 84.016 129.08 78.92 132.32C73.824 135.56 73.808 138.4 71.496 138.4C69.184 138.4 64.536 136.544 61.76 138.4C58.984 140.256 55.728 142.568 55.728 142.568H173.024C173.024 142.568 174.4 138.4 169.312 135.6Z" fill="#92E3A9"/>
<path d="M222.208 97.32C219.656 95.928 218.496 97.088 217.568 95.928C216.64 94.768 220.12 91.744 213.152 88.728C213.152 88.728 212.688 82.224 203.168 81.992C193.648 81.76 196.208 88.496 193.656 90.12C191.104 91.744 190.4 89.192 187.848 90.816C185.296 92.44 186.456 95.696 184.368 96.16C182.28 96.624 179.488 94.064 176.936 95.696C174.384 97.328 174.384 98.712 173.224 98.712C172.064 98.712 169.744 97.784 168.344 98.712C166.944 99.64 165.328 100.8 165.328 100.8H224.064C224.064 100.8 224.8 98.712 222.208 97.32Z" fill="#92E3A9"/>
<path d="M278.208 125.32C275.656 123.928 274.496 125.088 273.568 123.928C272.64 122.768 276.12 119.744 269.152 116.728C269.152 116.728 268.688 110.224 259.168 109.992C249.648 109.76 252.208 116.496 249.656 118.12C247.104 119.744 246.4 117.192 243.848 118.816C241.296 120.44 242.456 123.696 240.368 124.16C238.28 124.624 235.488 122.064 232.936 123.696C230.384 125.328 230.384 126.712 229.224 126.712C228.064 126.712 225.744 125.784 224.344 126.712C222.944 127.64 221.328 128.8 221.328 128.8H280.064C280.064 128.8 280.8 126.712 278.208 125.32Z" fill="#92E3A9"/>
<g opacity="0.6">
<path d="M169.312 135.6C164.216 132.816 161.896 135.136 160.04 132.816C158.184 130.496 165.144 124.472 151.24 118.416C151.24 118.416 150.312 105.432 131.304 104.968C112.296 104.504 117.4 117.952 112.296 121.192C107.192 124.432 105.808 119.344 100.712 122.584C95.616 125.824 97.928 132.32 93.752 133.248C89.576 134.176 84.016 129.08 78.92 132.32C73.824 135.56 73.808 138.4 71.496 138.4C69.184 138.4 64.536 136.544 61.76 138.4C58.984 140.256 55.728 142.568 55.728 142.568H173.024C173.024 142.568 174.4 138.4 169.312 135.6Z" fill="white"/>
<path d="M222.208 97.32C219.656 95.928 218.496 97.088 217.568 95.928C216.64 94.768 220.12 91.744 213.152 88.728C213.152 88.728 212.688 82.224 203.168 81.992C193.648 81.76 196.208 88.496 193.656 90.12C191.104 91.744 190.4 89.192 187.848 90.816C185.296 92.44 186.456 95.696 184.368 96.16C182.28 96.624 179.488 94.064 176.936 95.696C174.384 97.328 174.384 98.712 173.224 98.712C172.064 98.712 169.744 97.784 168.344 98.712C166.944 99.64 165.328 100.8 165.328 100.8H224.064C224.064 100.8 224.8 98.712 222.208 97.32Z" fill="white"/>
<path d="M278.208 125.32C275.656 123.928 274.496 125.088 273.568 123.928C272.64 122.768 276.12 119.744 269.152 116.728C269.152 116.728 268.688 110.224 259.168 109.992C249.648 109.76 252.208 116.496 249.656 118.12C247.104 119.744 246.4 117.192 243.848 118.816C241.296 120.44 242.456 123.696 240.368 124.16C238.28 124.624 235.488 122.064 232.936 123.696C230.384 125.328 230.384 126.712 229.224 126.712C228.064 126.712 225.744 125.784 224.344 126.712C222.944 127.64 221.328 128.8 221.328 128.8H280.064C280.064 128.8 280.8 126.712 278.208 125.32Z" fill="white"/>
</g>
<path d="M39.808 247.832C39.808 247.832 51.336 248.976 57.176 256.12C57.176 256.12 63.344 247.84 74.424 248.016C77.1333 244.749 78.8587 240.78 79.3993 236.57C79.9399 232.361 79.2734 228.084 77.4775 224.239C75.6817 220.393 72.8303 217.137 69.2554 214.849C65.6806 212.562 61.5294 211.337 57.2853 211.317C53.0412 211.298 48.8788 212.484 45.283 214.738C41.6871 216.993 38.8057 220.223 36.9744 224.051C35.143 227.88 34.4371 232.15 34.9388 236.365C35.4404 240.579 37.129 244.564 39.808 247.856V247.832Z" fill="#92E3A9"/>
<path opacity="0.3" d="M39.808 247.832C39.808 247.832 51.336 248.976 57.176 256.12C57.176 256.12 63.344 247.84 74.424 248.016C77.1333 244.749 78.8587 240.78 79.3993 236.57C79.9399 232.361 79.2734 228.084 77.4775 224.239C75.6817 220.393 72.8303 217.137 69.2554 214.849C65.6806 212.562 61.5294 211.337 57.2853 211.317C53.0412 211.298 48.8788 212.484 45.283 214.738C41.6871 216.993 38.8057 220.223 36.9744 224.051C35.143 227.88 34.4371 232.15 34.9388 236.365C35.4404 240.579 37.129 244.564 39.808 247.856V247.832Z" fill="white"/>
<path d="M56.792 212.904L56.4 270.664H58.352L56.792 212.904Z" fill="#263238"/>
<path d="M57.376 253.944C57.376 253.944 61.264 246.936 68.272 244.8C68.272 244.8 60.88 246.552 57.184 252.576L57.376 253.944Z" fill="#263238"/>
<path d="M57.376 234.104C57.376 234.104 61.264 227.104 68.272 224.96C68.272 224.96 60.88 226.712 57.184 232.744L57.376 234.104Z" fill="#263238"/>
<path d="M57.376 244C57.376 244 61.264 236.992 68.272 234.856C68.272 234.856 60.88 236.608 57.184 242.632L57.376 244Z" fill="#263238"/>
<path d="M56.8 239.2C56.8 239.2 53.048 232.2 46.288 230.056C46.288 230.056 53.424 231.808 56.984 237.84L56.8 239.2Z" fill="#263238"/>
<path d="M56.8 248.88C56.8 248.88 53.048 241.88 46.288 239.744C46.288 239.744 53.424 241.496 56.984 247.52L56.8 248.88Z" fill="#263238"/>
<path d="M75.544 243.456C75.544 243.456 89.272 244.816 96.24 253.328C96.24 253.328 103.592 243.464 116.8 243.664C120.024 239.77 122.076 235.041 122.716 230.027C123.357 225.012 122.56 219.919 120.419 215.34C118.278 210.76 114.88 206.883 110.621 204.16C106.362 201.437 101.418 199.979 96.3625 199.956C91.3074 199.934 86.3498 201.347 82.0668 204.033C77.7839 206.718 74.3516 210.565 72.1696 215.124C69.9876 219.684 69.1456 224.77 69.7416 229.79C70.3376 234.81 72.347 239.558 75.536 243.48L75.544 243.456Z" fill="#92E3A9"/>
<path opacity="0.5" d="M75.544 243.456C75.544 243.456 89.272 244.816 96.24 253.328C96.24 253.328 103.592 243.464 116.8 243.664C120.024 239.77 122.076 235.041 122.716 230.027C123.357 225.012 122.56 219.919 120.419 215.34C118.278 210.76 114.88 206.883 110.621 204.16C106.362 201.437 101.418 199.979 96.3625 199.956C91.3074 199.934 86.3498 201.347 82.0668 204.033C77.7839 206.718 74.3516 210.565 72.1696 215.124C69.9876 219.684 69.1456 224.77 69.7416 229.79C70.3376 234.81 72.347 239.558 75.536 243.48L75.544 243.456Z" fill="white"/>
<path d="M95.784 201.824L95.32 270.664H97.64L95.784 201.824Z" fill="#263238"/>
<path d="M96.48 250.736C96.48 250.736 101.112 242.392 109.456 239.84C109.456 239.84 100.656 241.928 96.248 249.112L96.48 250.736Z" fill="#263238"/>
<path d="M96.48 227.088C96.48 227.088 101.112 218.744 109.456 216.192C109.456 216.192 100.656 218.28 96.248 225.464L96.48 227.088Z" fill="#263238"/>
<path d="M96.48 238.912C96.48 238.912 101.112 230.568 109.456 228.016C109.456 228.016 100.656 230.104 96.248 237.288L96.48 238.912Z" fill="#263238"/>
<path d="M95.792 233.12C95.792 233.12 91.32 224.776 83.264 222.224C83.264 222.224 91.768 224.312 96.016 231.496L95.792 233.12Z" fill="#263238"/>
<path d="M95.792 244.704C95.792 244.704 91.32 236.36 83.264 233.808C83.264 233.808 91.768 235.896 96.016 243.08L95.792 244.704Z" fill="#263238"/>
<path d="M112.416 251.408C112.416 251.408 122.144 252.368 127.064 258.392C128.836 256.248 131.06 254.522 133.577 253.34C136.095 252.157 138.843 251.547 141.624 251.552C143.908 248.795 145.361 245.447 145.816 241.896C146.27 238.345 145.706 234.738 144.19 231.495C142.674 228.252 140.268 225.507 137.253 223.578C134.237 221.649 130.735 220.617 127.155 220.602C123.576 220.586 120.065 221.587 117.032 223.489C114 225.391 111.57 228.116 110.025 231.345C108.481 234.575 107.886 238.177 108.309 241.731C108.732 245.286 110.157 248.647 112.416 251.424V251.408Z" fill="#92E3A9"/>
<path opacity="0.5" d="M112.416 251.408C112.416 251.408 122.144 252.368 127.064 258.392C128.836 256.248 131.06 254.522 133.577 253.34C136.095 252.157 138.843 251.547 141.624 251.552C143.908 248.795 145.361 245.447 145.816 241.896C146.27 238.345 145.706 234.738 144.19 231.495C142.674 228.252 140.268 225.507 137.253 223.578C134.237 221.649 130.735 220.617 127.155 220.602C123.576 220.586 120.065 221.587 117.032 223.489C114 225.391 111.57 228.116 110.025 231.345C108.481 234.575 107.886 238.177 108.309 241.731C108.732 245.286 110.157 248.647 112.416 251.424V251.408Z" fill="white"/>
<path d="M126.744 221.936L126.416 270.664H128.056L126.744 221.936Z" fill="#263238"/>
<path d="M127.24 256.56C127.24 256.56 130.52 250.648 136.424 248.848C136.424 248.848 130.192 250.32 127.072 255.408L127.24 256.56Z" fill="#263238"/>
<path d="M127.24 239.824C127.24 239.824 130.52 233.912 136.424 232.112C136.424 232.112 130.192 233.584 127.072 238.672L127.24 239.824Z" fill="#263238"/>
<path d="M127.24 248.192C127.24 248.192 130.52 242.28 136.424 240.48C136.424 240.48 130.192 241.952 127.072 247.04L127.24 248.192Z" fill="#263238"/>
<path d="M126.752 244.088C126.752 244.088 123.552 238.184 117.888 236.376C117.888 236.376 123.904 237.856 126.912 242.936L126.752 244.088Z" fill="#263238"/>
<path d="M126.752 252.288C126.752 252.288 123.552 246.384 117.888 244.576C117.888 244.576 123.904 246.056 126.912 251.144L126.752 252.288Z" fill="#263238"/>
<path d="M297.656 247.832C297.656 247.832 309.176 248.976 315.016 256.12C315.016 256.12 321.192 247.84 332.272 248.016C334.981 244.749 336.707 240.78 337.247 236.57C337.788 232.361 337.121 228.084 335.326 224.239C333.53 220.393 330.678 217.137 327.103 214.849C323.529 212.562 319.377 211.337 315.133 211.317C310.889 211.298 306.727 212.484 303.131 214.738C299.535 216.993 296.654 220.223 294.822 224.051C292.991 227.88 292.285 232.15 292.787 236.365C293.288 240.579 294.977 244.564 297.656 247.856V247.832Z" fill="#92E3A9"/>
<path opacity="0.3" d="M297.656 247.832C297.656 247.832 309.176 248.976 315.016 256.12C315.016 256.12 321.192 247.84 332.272 248.016C334.981 244.749 336.707 240.78 337.247 236.57C337.788 232.361 337.121 228.084 335.326 224.239C333.53 220.393 330.678 217.137 327.103 214.849C323.529 212.562 319.377 211.337 315.133 211.317C310.889 211.298 306.727 212.484 303.131 214.738C299.535 216.993 296.654 220.223 294.822 224.051C292.991 227.88 292.285 232.15 292.787 236.365C293.288 240.579 294.977 244.564 297.656 247.856V247.832Z" fill="white"/>
<path d="M314.64 212.904L314.248 270.664H316.192L314.64 212.904Z" fill="#263238"/>
<path d="M315.2 253.944C315.2 253.944 319.088 246.936 326.088 244.8C326.088 244.8 318.696 246.552 315 252.576L315.2 253.944Z" fill="#263238"/>
<path d="M315.2 234.104C315.2 234.104 319.088 227.104 326.088 224.96C326.088 224.96 318.696 226.712 315 232.744L315.2 234.104Z" fill="#263238"/>
<path d="M315.2 244C315.2 244 319.088 236.992 326.088 234.856C326.088 234.856 318.696 236.608 315 242.632L315.2 244Z" fill="#263238"/>
<path d="M314.648 239.2C314.648 239.2 310.888 232.2 304.136 230.056C304.136 230.056 311.264 231.808 314.832 237.84L314.648 239.2Z" fill="#263238"/>
<path d="M314.648 248.88C314.648 248.88 310.888 241.88 304.136 239.744C304.136 239.744 311.264 241.496 314.832 247.52L314.648 248.88Z" fill="#263238"/>
<path d="M320.48 240.088C320.48 240.088 335.912 241.6 343.728 251.2C343.728 251.2 351.992 240.12 366.832 240.344C370.451 235.967 372.752 230.653 373.469 225.019C374.186 219.385 373.289 213.664 370.881 208.52C368.474 203.376 364.656 199.022 359.871 195.963C355.086 192.904 349.531 191.267 343.852 191.241C338.173 191.216 332.603 192.803 327.791 195.819C322.978 198.835 319.121 203.155 316.668 208.277C314.215 213.399 313.266 219.112 313.932 224.752C314.599 230.392 316.853 235.727 320.432 240.136L320.48 240.088Z" fill="#92E3A9"/>
<path opacity="0.5" d="M320.48 240.088C320.48 240.088 335.912 241.6 343.728 251.2C343.728 251.2 351.992 240.12 366.832 240.344C370.451 235.967 372.752 230.653 373.469 225.019C374.186 219.385 373.289 213.664 370.881 208.52C368.474 203.376 364.656 199.022 359.871 195.963C355.086 192.904 349.531 191.267 343.852 191.241C338.173 191.216 332.603 192.803 327.791 195.819C322.978 198.835 319.121 203.155 316.668 208.277C314.215 213.399 313.266 219.112 313.932 224.752C314.599 230.392 316.853 235.727 320.432 240.136L320.48 240.088Z" fill="white"/>
<path d="M343.216 193.312L342.696 270.664H345.304L343.216 193.312Z" fill="#263238"/>
<path d="M344 248.272C344 248.272 349.208 238.896 358.584 236.024C358.584 236.024 348.688 238.368 343.736 246.424L344 248.272Z" fill="#263238"/>
<path d="M344 221.704C344 221.704 349.208 212.328 358.584 209.464C358.584 209.464 348.688 211.808 343.736 219.864L344 221.704Z" fill="#263238"/>
<path d="M344 234.984C344 234.984 349.208 225.608 358.584 222.744C358.584 222.744 348.688 225.088 343.736 233.144L344 234.984Z" fill="#263238"/>
<path d="M343.2 228.472C343.2 228.472 338.176 219.096 329.128 216.232C329.128 216.232 338.68 218.576 343.456 226.632L343.2 228.472Z" fill="#263238"/>
<path d="M343.2 241.496C343.2 241.496 338.176 232.12 329.128 229.256C329.128 229.256 338.68 231.6 343.456 239.656L343.2 241.496Z" fill="#263238"/>
<path d="M326.664 114.824L351.2 118.664V99.464L326.664 103.304V114.824Z" fill="#263238" stroke="#263238" stroke-linecap="round" stroke-linejoin="round"/>
<path d="M315.296 107.224L307.032 270.664H323.56L315.296 107.224Z" stroke="#263238" stroke-linecap="round" stroke-linejoin="round"/>
<path d="M315.464 107.472V97.08" stroke="#263238" stroke-linecap="round" stroke-linejoin="round"/>
<path d="M306.48 107.624H324.208" stroke="#263238" stroke-linecap="round" stroke-linejoin="round"/>
<path d="M319.52 192.12H310.936L317.304 152.76H313.152L319.52 192.12Z" stroke="#263238" stroke-linecap="round" stroke-linejoin="round"/>
<path d="M308.152 104.072L307.512 107.704L290.552 105.96L291.616 99.912L308.152 104.072Z" fill="#92E3A9" stroke="#263238" stroke-linecap="round" stroke-linejoin="round"/>
<path d="M307.432 106.784L308.072 110.408L291.536 114.576L290.472 108.528L307.432 106.784Z" fill="#263238" stroke="#263238" stroke-linecap="round" stroke-linejoin="round"/>
<path d="M307.68 109.568L309.52 112.76L295.408 122.328L292.336 117.008L307.68 109.568Z" fill="#92E3A9" stroke="#263238" stroke-linecap="round" stroke-linejoin="round"/>
<path d="M308.864 112.112L311.688 114.48L301.696 128.296L296.992 124.344L308.864 112.112Z" fill="#263238" stroke="#263238" stroke-linecap="round" stroke-linejoin="round"/>
<path d="M310.848 114.088L314.312 115.352L309.648 131.752L303.88 129.648L310.848 114.088Z" fill="#92E3A9" stroke="#263238" stroke-linecap="round" stroke-linejoin="round"/>
<path d="M313.392 115.272H317.072L318.304 132.272H312.16L313.392 115.272Z" fill="#263238" stroke="#263238" stroke-linecap="round" stroke-linejoin="round"/>
<path d="M316.176 115.512L319.64 114.248L326.608 129.808L320.84 131.912L316.176 115.512Z" fill="#92E3A9" stroke="#263238" stroke-linecap="round" stroke-linejoin="round"/>
<path d="M318.888 114.784L321.704 112.416L333.576 124.648L328.872 128.6L318.888 114.784Z" fill="#263238" stroke="#263238" stroke-linecap="round" stroke-linejoin="round"/>
<path d="M321.176 113.168L323.016 109.984L338.36 117.424L335.288 122.736L321.176 113.168Z" fill="#92E3A9" stroke="#263238" stroke-linecap="round" stroke-linejoin="round"/>
<path d="M322.784 110.872L323.424 107.248L340.384 108.992L339.312 115.04L322.784 110.872Z" fill="#263238" stroke="#263238" stroke-linecap="round" stroke-linejoin="round"/>
<path d="M323.504 108.168L322.864 104.536L339.4 100.376L340.464 106.424L323.504 108.168Z" fill="#92E3A9" stroke="#263238" stroke-linecap="round" stroke-linejoin="round"/>
<path d="M323.256 105.376L321.416 102.184L335.528 92.624L338.6 97.936L323.256 105.376Z" fill="#263238" stroke="#263238" stroke-linecap="round" stroke-linejoin="round"/>
<path d="M322.072 102.84L319.248 100.472L329.24 86.656L333.944 90.6L322.072 102.84Z" fill="#92E3A9" stroke="#263238" stroke-linecap="round" stroke-linejoin="round"/>
<path d="M320.088 100.864L316.624 99.6L321.288 83.2L327.056 85.304L320.088 100.864Z" fill="#263238" stroke="#263238" stroke-linecap="round" stroke-linejoin="round"/>
<path d="M309.752 101.776L307.912 104.968L292.568 97.528L295.64 92.208L309.752 101.776Z" fill="#263238" stroke="#263238" stroke-linecap="round" stroke-linejoin="round"/>
<path d="M312.048 100.168L309.224 102.536L297.352 90.296L302.056 86.352L312.048 100.168Z" fill="#92E3A9" stroke="#263238" stroke-linecap="round" stroke-linejoin="round"/>
<path d="M314.752 99.44L311.288 100.696L304.32 85.136L310.096 83.04L314.752 99.44Z" fill="#263238" stroke="#263238" stroke-linecap="round" stroke-linejoin="round"/>
<path d="M317.544 99.68H313.864L312.632 82.672H318.776L317.544 99.68Z" fill="#92E3A9" stroke="#263238" stroke-linecap="round" stroke-linejoin="round"/>
<path d="M317.6 107.472C317.6 107.051 317.475 106.64 317.241 106.29C317.008 105.94 316.675 105.667 316.286 105.506C315.898 105.345 315.47 105.303 315.057 105.385C314.644 105.467 314.265 105.67 313.967 105.967C313.67 106.265 313.467 106.644 313.385 107.057C313.303 107.47 313.345 107.898 313.506 108.286C313.667 108.675 313.94 109.008 314.29 109.241C314.64 109.475 315.051 109.6 315.472 109.6C316.036 109.6 316.578 109.376 316.977 108.977C317.376 108.578 317.6 108.036 317.6 107.472Z" fill="#263238" stroke="#263238" stroke-linecap="round" stroke-linejoin="round"/>
<path d="M316.8 217.464H237.6V270.664H316.8V217.464Z" fill="#263238" stroke="#263238" stroke-linecap="round" stroke-linejoin="round"/>
<path d="M239.464 270.664H133.336V217.336L152.904 167.352L185.6 151.464L219.304 167.464L239.464 217.336V270.664Z" fill="#92E3A9" stroke="#263238" stroke-linecap="round" stroke-linejoin="round"/>
<path d="M128.696 223.216L126.344 219.984L131.888 215.952L151.552 165.816L185.64 149.248L220.736 165.912L240.968 215.888L246.456 219.384L244.312 222.752L238.064 218.776L237.824 218.4L217.968 169.024L185.664 153.688L154.36 168.896L134.88 218.712L128.696 223.216Z" fill="white" stroke="#263238" stroke-linecap="round" stroke-linejoin="round"/>
<path d="M195.2 171.2H177.6V216.136H195.2V171.2Z" fill="#92E3A9" stroke="#263238" stroke-linecap="round" stroke-linejoin="round"/>
<path d="M204.8 222.536H168V270.672H204.8V222.536Z" fill="white" stroke="#263238" stroke-linecap="round" stroke-linejoin="round"/>
<path d="M216.528 214.536H156.264V217.736H216.528V214.536Z" fill="#92E3A9" stroke="#263238" stroke-linecap="round" stroke-linejoin="round"/>
<path d="M216.528 168H156.264V171.2H216.528V168Z" fill="#92E3A9" stroke="#263238" stroke-linecap="round" stroke-linejoin="round"/>
<path d="M176.208 247.808L170 229.568V266.048L176.208 247.808Z" fill="#263238"/>
<path d="M183.368 226.8H170.944L177.152 245.04L183.368 226.8Z" fill="#263238"/>
<path d="M177.152 250.584L170.944 268.816H183.368L177.152 250.584Z" fill="#263238"/>
<path d="M178.104 247.808L184.312 266.048V229.568L178.104 247.808Z" fill="#263238"/>
<path d="M201.76 226.8H189.336L195.544 245.04L201.76 226.8Z" fill="#263238"/>
<path d="M194.6 247.808L188.488 229.864V265.76L194.6 247.808Z" fill="#263238"/>
<path d="M196.488 247.808L202.8 266.336V229.28L196.488 247.808Z" fill="#263238"/>
<path d="M195.544 250.584L189.336 268.816H201.76L195.544 250.584Z" fill="#263238"/>
<path d="M323.256 219.384L317.768 215.888L297.536 165.912L262.44 149.248H185.64L220.736 165.912L240.968 215.888L246.456 219.384H315.808L321.112 222.752L323.256 219.384Z" fill="#263238"/>
<path opacity="0.5" d="M323.256 219.384L317.768 215.888L297.536 165.912L262.44 149.248H185.64L220.736 165.912L240.968 215.888L246.456 219.384H315.808L321.112 222.752L323.256 219.384Z" fill="white"/>
<path opacity="0.5" d="M220.736 165.912H297.536L262.44 149.248H185.64L220.736 165.912Z" fill="white"/>
<path d="M323.256 219.384L317.768 215.888L297.536 165.912L262.44 149.248H185.64L220.736 165.912L240.968 215.888L246.456 219.384H315.808L321.112 222.752L323.256 219.384Z" stroke="#263238" stroke-linecap="round" stroke-linejoin="round"/>
<path d="M246.456 219.384H323.256L321.112 222.752H244.312L246.456 219.384Z" fill="white" stroke="#263238" stroke-linecap="round" stroke-linejoin="round"/>
<path d="M250.296 231.6H246.496V237.728H250.296V231.6Z" fill="white"/>
<path d="M254.896 231.6H251.096V237.728H254.896V231.6Z" fill="white"/>
<path d="M250.296 238.528H246.496V244H250.296V238.528Z" fill="white"/>
<path d="M254.896 238.528H251.096V244H254.896V238.528Z" fill="white"/>
<path d="M266.032 231.6H262.232V237.728H266.032V231.6Z" fill="white"/>
<path d="M270.632 231.6H266.832V237.728H270.632V231.6Z" fill="white"/>
<path d="M266.032 238.528H262.232V244H266.032V238.528Z" fill="white"/>
<path d="M270.632 238.528H266.832V244H270.632V238.528Z" fill="white"/>
<path d="M291.896 231.6H288.096V237.728H291.896V231.6Z" fill="white"/>
<path d="M296.496 231.6H292.696V237.728H296.496V231.6Z" fill="white"/>
<path d="M291.896 238.528H288.096V244H291.896V238.528Z" fill="white"/>
<path d="M296.496 238.528H292.696V244H296.496V238.528Z" fill="white"/>
<path d="M307.632 231.6H303.832V237.728H307.632V231.6Z" fill="white"/>
<path d="M312.232 231.6H308.432V237.728H312.232V231.6Z" fill="white"/>
<path d="M307.632 238.528H303.832V244H307.632V238.528Z" fill="white"/>
<path d="M312.232 238.528H308.432V244H312.232V238.528Z" fill="white"/>
<path d="M284.536 224.536H273.336V229.872H284.536V224.536Z" fill="white"/>
<path d="M354.936 255.736V258.664H346.136V255.736H343.936V258.664H335.2V255.736H332.96V258.664H324.16V255.736H321.96V258.664H313.16V255.736H310.968V258.664H302.168V255.736H300V258.664H291.2V255.736H289V258.664H280.2V255.736H278V258.664H269.2V255.736H267.008V258.664H258.208V255.736H256.008V275.504H258.208V268.912H267.008V275.504H269.2V268.912H278V275.504H280.2V268.912H289V275.504H291.2V268.912H300V275.504H302.2V268.912H311V275.504H313.192V268.912H321.992V275.504H324.192V268.912H332.992V275.504H335.2V268.912H344V275.504H346.2V268.912H355V275.504H357.192V255.736H354.936ZM258.256 266.352V261.224H267.056V266.352H258.256ZM269.24 266.352V261.224H278.04V266.352H269.24ZM280.232 266.352V261.224H289.032V266.352H280.232ZM291.216 266.352V261.224H300.016V266.352H291.216ZM302.2 266.352V261.224H311V266.352H302.2ZM313.184 266.352V261.224H321.984V266.352H313.184ZM324.176 266.352V261.224H332.976V266.352H324.176ZM335.16 266.352V261.224H343.96V266.352H335.16ZM346.144 266.352V261.224H354.944V266.352H346.144Z" fill="white" stroke="#263238" stroke-linecap="round" stroke-linejoin="round"/>
<path d="M256.056 275.504H357.128" stroke="#263238" stroke-linecap="round" stroke-linejoin="round"/>
<path d="M280.968 267.32C280.968 267.32 281.272 265.72 281.304 265.632C281.672 264.496 283.048 262.512 284.384 262.512C284.606 262.52 284.824 262.575 285.024 262.672C285.223 262.769 285.401 262.906 285.544 263.075C285.688 263.245 285.795 263.442 285.858 263.655C285.922 263.868 285.94 264.092 285.912 264.312C285.805 264.782 285.597 265.222 285.303 265.604C285.009 265.985 284.635 266.298 284.208 266.52C283.172 266.942 282.081 267.212 280.968 267.32Z" fill="#92E3A9"/>
<path d="M278.4 256.6C279.656 257.048 280.28 259.384 280.24 260.6C280.24 260.704 280 262.312 279.976 262.304C280.08 262.672 280.184 263.064 280.288 263.504C280.48 264.304 280.688 265.208 280.84 266.216C281.024 267.296 281.145 268.386 281.2 269.48C281.268 270.703 281.225 271.929 281.072 273.144C281.076 273.16 281.076 273.176 281.072 273.192C281.24 272.832 281.736 271.856 281.784 271.784C282.44 270.784 284.288 269.24 285.584 269.6C285.795 269.667 285.989 269.778 286.156 269.924C286.322 270.07 286.455 270.25 286.549 270.45C286.642 270.651 286.693 270.869 286.697 271.09C286.702 271.312 286.661 271.531 286.576 271.736C286.349 272.16 286.033 272.529 285.649 272.818C285.264 273.106 284.822 273.308 284.352 273.408C283.253 273.548 282.139 273.521 281.048 273.328C280.864 274.563 280.597 275.785 280.248 276.984C280.048 277.688 279.832 278.384 279.6 279.08L279.912 278.472C280.568 277.472 282.424 275.928 283.712 276.288C283.923 276.355 284.117 276.466 284.284 276.612C284.45 276.758 284.583 276.938 284.677 277.138C284.77 277.339 284.821 277.557 284.825 277.778C284.83 278 284.789 278.219 284.704 278.424C284.477 278.848 284.161 279.217 283.777 279.505C283.392 279.794 282.95 279.996 282.48 280.096C281.416 280.239 280.337 280.217 279.28 280.032L279.016 280.832C278.568 282.112 278.12 283.384 277.728 284.648C277.584 285.096 277.464 285.536 277.336 285.984C277.472 285.712 277.592 285.488 277.608 285.456C278.264 284.456 280.12 282.912 281.408 283.264C281.62 283.331 281.815 283.442 281.982 283.589C282.149 283.736 282.283 283.916 282.377 284.117C282.47 284.319 282.52 284.538 282.524 284.76C282.528 284.982 282.486 285.203 282.4 285.408C282.173 285.831 281.856 286.2 281.472 286.489C281.088 286.778 280.646 286.979 280.176 287.08C279.139 287.224 278.087 287.205 277.056 287.024C276.944 287.488 276.832 287.944 276.744 288.392C276.688 288.696 276.616 288.992 276.576 289.304C276.536 289.616 276.488 289.92 276.448 290.216C276.392 290.808 276.32 291.408 276.28 291.976C276.28 292.376 276.216 292.776 276.192 293.136C276.328 292.696 276.608 291.832 276.64 291.76C277.115 290.824 277.82 290.023 278.688 289.432C278.736 289.322 278.795 289.218 278.864 289.12C278.987 288.936 279.147 288.78 279.334 288.661C279.521 288.542 279.73 288.463 279.949 288.429C280.168 288.395 280.391 288.407 280.605 288.464C280.819 288.521 281.019 288.622 281.192 288.76C282.208 289.632 281.952 292.032 281.488 293.136C281.488 293.2 281.08 293.872 280.84 294.288L281.384 293.616C281.752 293.16 282.136 292.72 282.552 292.24L283.176 291.56C283.384 291.328 283.624 291.112 283.856 290.88C284.384 290.368 284.952 289.864 285.536 289.376C284.693 288.723 283.954 287.946 283.344 287.072C283.101 286.656 282.95 286.193 282.903 285.714C282.856 285.235 282.914 284.751 283.072 284.296C283.166 284.095 283.3 283.916 283.466 283.769C283.633 283.623 283.828 283.513 284.039 283.446C284.251 283.379 284.474 283.357 284.694 283.38C284.915 283.404 285.128 283.473 285.32 283.584C286.456 284.296 286.568 286.704 286.272 287.864C286.272 287.936 285.952 288.744 285.776 289.184C286.128 288.896 286.48 288.6 286.848 288.32C287.904 287.52 289 286.72 290.088 285.92L291.088 285.176C290.207 284.498 289.436 283.688 288.8 282.776C288.556 282.361 288.406 281.897 288.36 281.417C288.314 280.938 288.374 280.454 288.536 280C288.63 279.8 288.764 279.622 288.93 279.476C289.096 279.33 289.29 279.221 289.5 279.154C289.711 279.087 289.933 279.064 290.152 279.087C290.372 279.111 290.584 279.179 290.776 279.288C291.912 280 292.024 282.416 291.736 283.568C291.736 283.656 291.272 284.816 291.144 285.112C291.872 284.568 292.592 284.016 293.288 283.448C294.223 282.685 295.108 281.862 295.936 280.984C295.051 280.306 294.274 279.496 293.632 278.584C293.388 278.17 293.238 277.708 293.192 277.229C293.147 276.751 293.207 276.269 293.368 275.816C293.462 275.615 293.596 275.436 293.762 275.289C293.929 275.143 294.124 275.033 294.335 274.966C294.547 274.899 294.77 274.877 294.99 274.9C295.211 274.924 295.424 274.993 295.616 275.104C296.744 275.816 296.856 278.224 296.568 279.384C296.568 279.456 296.216 280.344 296.04 280.76L296.112 280.8C296.919 279.895 297.645 278.921 298.28 277.888C298.64 277.32 298.952 276.76 299.24 276.208C298.312 275.643 297.473 274.942 296.752 274.128C296.467 273.741 296.268 273.297 296.17 272.826C296.072 272.355 296.077 271.869 296.184 271.4C296.254 271.19 296.368 270.997 296.517 270.833C296.666 270.669 296.847 270.538 297.049 270.447C297.251 270.357 297.47 270.31 297.692 270.309C297.913 270.307 298.133 270.352 298.336 270.44C299.544 271.024 299.936 273.408 299.76 274.592C299.76 274.656 299.584 275.304 299.456 275.768C299.584 275.52 299.72 275.264 299.84 275.016C300.28 274.104 300.64 273.248 300.928 272.48C301.096 272.04 301.232 271.68 301.368 271.272C300.805 270.349 300.387 269.346 300.128 268.296C300.04 267.825 300.055 267.34 300.171 266.875C300.287 266.41 300.501 265.975 300.8 265.6C300.96 265.447 301.15 265.329 301.358 265.253C301.567 265.177 301.788 265.145 302.009 265.159C302.231 265.174 302.446 265.234 302.643 265.336C302.84 265.438 303.013 265.579 303.152 265.752C303.952 266.824 303.152 269.112 302.496 270.088C302.44 270.168 301.352 271.376 301.336 271.36C301.216 271.72 301.088 272.104 300.936 272.528C300.648 273.328 300.32 274.168 299.896 275.096C299.456 276.1 298.954 277.075 298.392 278.016C297.774 279.075 297.062 280.077 296.264 281.008C296.592 280.8 297.544 280.256 297.624 280.208C298.72 279.736 301.12 279.472 302 280.48C302.139 280.652 302.24 280.852 302.297 281.066C302.355 281.279 302.368 281.502 302.335 281.721C302.302 281.94 302.223 282.15 302.105 282.337C301.987 282.524 301.831 282.684 301.648 282.808C301.225 283.036 300.758 283.169 300.279 283.198C299.799 283.227 299.319 283.151 298.872 282.976C297.88 282.487 296.966 281.853 296.16 281.096C295.327 282.025 294.431 282.896 293.48 283.704C292.928 284.176 292.36 284.64 291.784 285.096L292.384 284.76C293.48 284.288 295.88 284.024 296.76 285.032C296.899 285.204 297 285.404 297.057 285.618C297.115 285.831 297.128 286.054 297.095 286.273C297.062 286.492 296.983 286.702 296.865 286.889C296.747 287.076 296.591 287.236 296.408 287.36C295.985 287.588 295.518 287.721 295.039 287.75C294.559 287.779 294.079 287.703 293.632 287.528C292.663 287.063 291.773 286.45 290.992 285.712L290.32 286.232C289.248 287.032 288.176 287.832 287.12 288.696C286.76 288.992 286.408 289.296 286.064 289.592L286.584 289.304C287.68 288.832 290.08 288.568 290.96 289.576C291.1 289.749 291.202 289.949 291.261 290.163C291.319 290.378 291.332 290.602 291.299 290.822C291.266 291.041 291.187 291.252 291.068 291.44C290.949 291.627 290.793 291.788 290.608 291.912C290.183 292.139 289.715 292.271 289.234 292.3C288.754 292.329 288.273 292.254 287.824 292.08C286.881 291.628 286.015 291.031 285.256 290.312C284.904 290.632 284.56 290.952 284.24 291.28C283.92 291.608 283.8 291.712 283.6 291.952L282.984 292.64C282.608 293.096 282.224 293.56 281.872 294.016C281.624 294.328 281.392 294.632 281.16 294.936C281.52 294.64 282.232 294.072 282.296 294.032C283.312 293.4 285.64 292.776 286.664 293.64C286.826 293.79 286.956 293.972 287.045 294.174C287.133 294.376 287.179 294.595 287.179 294.816C287.179 295.037 287.133 295.256 287.045 295.458C286.956 295.66 286.826 295.842 286.664 295.992C286.279 296.282 285.836 296.486 285.365 296.588C284.894 296.69 284.406 296.689 283.936 296.584C282.888 296.256 281.895 295.77 280.992 295.144C280.608 295.648 280.24 296.144 279.896 296.616C278.72 298.216 277.792 299.656 277.16 300.616L277.096 300.712L276.296 300.32L276.424 300.128C277.088 299.136 278.024 297.728 279.28 296.128C279.664 295.616 280.08 295.072 280.528 294.528C280.078 294.018 279.656 293.484 279.264 292.928C278.236 293.199 277.175 293.328 276.112 293.312C276.072 293.944 276.032 294.56 276.008 295.144C275.928 297.16 275.936 298.84 275.952 300.016V300.152L275.056 299.72C275.056 298.552 275.096 296.968 275.216 295.104C275.216 294.456 275.312 293.776 275.376 293.072C274.304 292.825 273.274 292.421 272.32 291.872C271.926 291.598 271.597 291.241 271.355 290.827C271.113 290.412 270.965 289.95 270.92 289.472C270.919 289.25 270.965 289.03 271.053 288.827C271.142 288.623 271.272 288.44 271.436 288.29C271.599 288.139 271.792 288.024 272.002 287.952C272.212 287.88 272.435 287.853 272.656 287.872C273.984 288.04 275.096 290.184 275.32 291.352C275.32 291.424 275.384 292.192 275.416 292.68C275.416 292.392 275.464 292.112 275.496 291.816C275.552 291.232 275.632 290.648 275.712 290.024L275.856 289.112C275.904 288.8 275.984 288.488 276.048 288.168C276.208 287.448 276.408 286.712 276.624 285.984C275.558 285.91 274.511 285.67 273.52 285.272C273.089 285.06 272.709 284.758 272.406 284.385C272.104 284.012 271.886 283.578 271.768 283.112C271.734 282.892 271.747 282.668 271.804 282.454C271.862 282.239 271.963 282.039 272.103 281.866C272.242 281.693 272.416 281.551 272.613 281.448C272.81 281.346 273.026 281.286 273.248 281.272C274.584 281.272 276.008 283.192 276.4 284.32C276.4 284.392 276.616 285.232 276.72 285.696C276.848 285.256 276.984 284.816 277.128 284.384C277.56 283.112 278.04 281.848 278.504 280.584C278.648 280.192 278.792 279.784 278.928 279.416C277.832 279.336 276.753 279.093 275.728 278.696C275.296 278.483 274.916 278.179 274.613 277.805C274.311 277.43 274.093 276.995 273.976 276.528C273.943 276.309 273.957 276.086 274.015 275.872C274.073 275.659 274.175 275.459 274.314 275.287C274.453 275.115 274.626 274.974 274.823 274.872C275.02 274.77 275.235 274.71 275.456 274.696C276.792 274.696 278.216 276.608 278.616 277.736C278.616 277.824 278.92 279.032 278.968 279.336C279.28 278.48 279.576 277.632 279.84 276.776C280.199 275.622 280.482 274.447 280.688 273.256C279.591 273.175 278.512 272.93 277.488 272.528C277.055 272.319 276.674 272.017 276.371 271.643C276.068 271.27 275.851 270.835 275.736 270.368C275.703 270.149 275.717 269.926 275.775 269.712C275.833 269.499 275.935 269.299 276.074 269.127C276.213 268.955 276.386 268.814 276.583 268.712C276.78 268.61 276.995 268.55 277.216 268.536C278.552 268.536 279.976 270.448 280.368 271.576C280.368 271.656 280.608 272.576 280.696 273.016H280.768C280.946 271.814 281.016 270.598 280.976 269.384C280.976 268.712 280.912 268.072 280.848 267.456C279.769 267.495 278.69 267.371 277.648 267.088C277.196 266.925 276.785 266.665 276.444 266.326C276.102 265.988 275.839 265.579 275.672 265.128C275.616 264.914 275.604 264.69 275.639 264.471C275.673 264.252 275.753 264.043 275.872 263.857C275.992 263.67 276.149 263.51 276.333 263.388C276.518 263.265 276.726 263.182 276.944 263.144C278.264 262.968 279.896 264.744 280.416 265.824C280.416 265.88 280.656 266.512 280.816 266.968C280.776 266.688 280.752 266.4 280.712 266.168C280.576 265.16 280.392 264.256 280.224 263.448C280.12 262.992 280.016 262.576 279.92 262.2C278.944 261.735 278.043 261.125 277.248 260.392C276.922 260.039 276.676 259.62 276.528 259.162C276.381 258.705 276.334 258.221 276.392 257.744C276.445 257.535 276.539 257.338 276.67 257.166C276.8 256.994 276.964 256.85 277.152 256.743C277.339 256.636 277.547 256.569 277.761 256.544C277.976 256.519 278.193 256.538 278.4 256.6Z" fill="#92E3A9"/>
<path d="M302.568 277.224C301.473 277.01 300.417 276.636 299.432 276.112C299.432 276.112 300.56 274.944 300.64 274.88C301.576 274.136 303.84 273.28 304.928 273.992C305.107 274.121 305.258 274.287 305.37 274.477C305.482 274.667 305.554 274.879 305.58 275.099C305.606 275.318 305.587 275.541 305.523 275.752C305.459 275.964 305.352 276.16 305.208 276.328C304.86 276.661 304.443 276.913 303.987 277.068C303.531 277.223 303.047 277.276 302.568 277.224Z" fill="#92E3A9"/>
<path d="M290.4 303.408C290.4 303.408 284 288.112 280.464 288.8C276.928 289.488 286.552 313.184 286.552 313.184C286.552 313.184 275.392 292.128 267.776 292.128C260.16 292.128 270.568 315.408 280.208 323.16C280.208 323.16 265.008 306.76 256.104 310.304C247.2 313.848 273.864 330.48 273.864 330.48C273.864 330.48 258.4 325.6 260.16 329.344C261.92 333.088 266.76 333.784 266.76 333.784L249.256 334.664H310.152L296.448 333.336C296.448 333.336 310.664 326.24 306.848 323.36C303.032 320.48 294.664 326.688 294.664 326.688C294.664 326.688 309.128 310.728 306.336 304.744C303.544 298.76 291.136 315.6 291.136 315.6C291.136 315.6 301.288 294.096 299.256 290.328C297.224 286.56 290.4 303.408 290.4 303.408Z" fill="#92E3A9"/>
<path d="M292.392 304.216C286.792 320.712 286.792 332.384 286.792 332.384C286.792 332.384 293.392 332.64 300.24 327.584" stroke="#263238" stroke-linecap="round" stroke-linejoin="round"/>
<path d="M289.6 313.096C288.448 308.165 286.921 303.33 285.032 298.632" stroke="#263238" stroke-linecap="round" stroke-linejoin="round"/>
<path d="M273.104 303.456L287.312 324.52C287.312 324.52 296.96 316.4 300.256 311.832" stroke="#263238" stroke-linecap="round" stroke-linejoin="round"/>
<path d="M287.064 329.6C287.064 329.6 272.088 322.496 266 318.4" stroke="#263238" stroke-linecap="round" stroke-linejoin="round"/>
<path d="M51.08 262.92C51.08 262.92 51.216 262.2 51.232 262.12C51.4 261.6 52.032 260.704 52.64 260.704C52.7396 260.707 52.8376 260.73 52.9278 260.773C53.0179 260.815 53.0983 260.876 53.1637 260.951C53.2291 261.026 53.2782 261.114 53.3079 261.209C53.3375 261.305 53.3471 261.405 53.336 261.504C53.283 261.72 53.1841 261.921 53.046 262.095C52.908 262.269 52.734 262.411 52.536 262.512C52.0739 262.72 51.583 262.858 51.08 262.92Z" fill="#92E3A9"/>
<path d="M49.904 258.04C50.48 258.248 50.76 259.312 50.704 259.856C50.704 259.896 50.592 260.656 50.584 260.656C50.584 260.824 50.672 261 50.72 261.2C50.808 261.56 50.904 262 50.976 262.432C51.0569 262.925 51.1103 263.421 51.136 263.92C51.1686 264.478 51.1499 265.038 51.08 265.592C51.152 265.432 51.376 264.984 51.4 264.952C51.696 264.504 52.544 263.8 53.128 263.96C53.2246 263.989 53.314 264.038 53.3904 264.104C53.4668 264.17 53.5285 264.251 53.5715 264.342C53.6145 264.434 53.6378 264.533 53.6399 264.634C53.6421 264.735 53.6231 264.835 53.584 264.928C53.4843 265.128 53.3415 265.304 53.1658 265.442C52.9902 265.58 52.786 265.678 52.568 265.728C52.0677 265.794 51.5601 265.78 51.064 265.688C50.9816 266.253 50.8613 266.811 50.704 267.36C50.616 267.672 50.512 267.992 50.408 268.312L50.552 268.032C50.848 267.576 51.696 266.872 52.28 267.04C52.3813 267.062 52.4767 267.106 52.5596 267.168C52.6424 267.23 52.7109 267.31 52.7603 267.401C52.8097 267.492 52.8388 267.593 52.8456 267.696C52.8525 267.799 52.8369 267.903 52.8 268C52.7003 268.2 52.5575 268.376 52.3818 268.514C52.2062 268.652 52.002 268.75 51.784 268.8C51.3015 268.874 50.8105 268.874 50.328 268.8C50.28 268.92 50.24 269.048 50.2 269.168C50 269.752 49.8 270.328 49.616 270.904C49.552 271.104 49.496 271.312 49.44 271.512L49.56 271.272C49.864 270.816 50.704 270.112 51.296 270.272C51.3929 270.302 51.4824 270.352 51.5586 270.419C51.6349 270.485 51.6961 270.568 51.7384 270.66C51.7807 270.752 51.8031 270.852 51.804 270.953C51.805 271.055 51.7845 271.155 51.744 271.248C51.6411 271.44 51.4976 271.608 51.3236 271.739C51.1495 271.87 50.9491 271.962 50.736 272.008C50.2645 272.085 49.7835 272.085 49.312 272.008C49.264 272.216 49.208 272.424 49.168 272.632C49.128 272.84 49.112 272.904 49.096 273.048C49.08 273.192 49.096 273.328 49.032 273.464C49.032 273.728 48.976 274.008 48.96 274.264C48.944 274.52 48.96 274.616 48.96 274.792C49.016 274.592 49.152 274.2 49.16 274.168C49.3788 273.741 49.7005 273.375 50.096 273.104C50.1181 273.056 50.1449 273.011 50.176 272.968C50.2309 272.883 50.303 272.811 50.3875 272.757C50.472 272.702 50.5671 272.665 50.6666 272.649C50.7662 272.633 50.8679 272.639 50.9653 272.665C51.0627 272.691 51.1536 272.737 51.232 272.8C51.696 273.2 51.584 274.288 51.368 274.792L51.072 275.32L51.32 275.008L51.856 274.384L52.136 274.072C52.232 273.968 52.344 273.872 52.448 273.768C52.688 273.528 52.952 273.304 53.248 273.08C52.8624 272.785 52.525 272.431 52.248 272.032C52.0976 271.837 51.9965 271.609 51.9533 271.366C51.9101 271.124 51.9261 270.875 52 270.64C52.0422 270.548 52.1031 270.466 52.1788 270.399C52.2545 270.332 52.3433 270.281 52.4397 270.25C52.536 270.219 52.6377 270.209 52.7383 270.219C52.839 270.23 52.9362 270.262 53.024 270.312C53.544 270.64 53.592 271.736 53.464 272.264C53.464 272.264 53.312 272.664 53.232 272.864L53.72 272.472C54.2 272.096 54.704 271.736 55.2 271.376L55.656 271.04C55.2553 270.733 54.9045 270.366 54.616 269.952C54.5032 269.764 54.4333 269.553 54.4112 269.334C54.389 269.116 54.4153 268.895 54.488 268.688C54.5309 268.597 54.5924 268.515 54.6684 268.449C54.7444 268.383 54.8334 268.333 54.9297 268.303C55.0259 268.273 55.1274 268.263 55.2277 268.274C55.3279 268.285 55.4247 268.317 55.512 268.368C56.032 268.688 56.08 269.784 55.944 270.312C55.944 270.352 55.736 270.88 55.68 271.016C56.016 270.768 56.344 270.52 56.656 270.264C57.0812 269.913 57.4846 269.536 57.864 269.136C57.4565 268.829 57.0977 268.462 56.8 268.048C56.6892 267.859 56.6205 267.648 56.5984 267.43C56.5763 267.212 56.6014 266.992 56.672 266.784C56.7149 266.693 56.7763 266.611 56.8524 266.545C56.9284 266.479 57.0174 266.429 57.1137 266.399C57.2099 266.369 57.3114 266.359 57.4117 266.37C57.5119 266.381 57.6087 266.413 57.696 266.464C58.216 266.784 58.264 267.88 58.136 268.408C58.136 268.448 57.976 268.848 57.896 269.04C58.2627 268.627 58.592 268.183 58.88 267.712C59.048 267.456 59.184 267.2 59.32 266.912C58.897 266.652 58.5143 266.331 58.184 265.96C58.0557 265.783 57.9664 265.581 57.9223 265.368C57.8781 265.154 57.8801 264.933 57.928 264.72C57.9596 264.624 58.0111 264.535 58.079 264.459C58.147 264.384 58.2299 264.324 58.3226 264.282C58.4153 264.241 58.5156 264.219 58.6171 264.219C58.7186 264.218 58.819 264.239 58.912 264.28C59.456 264.552 59.632 265.632 59.552 266.176C59.552 266.176 59.48 266.496 59.416 266.712L59.592 266.368C59.792 265.952 59.952 265.568 60.088 265.208C60.16 265.008 60.232 264.832 60.288 264.664C60.035 264.241 59.8463 263.783 59.728 263.304C59.693 263.088 59.7049 262.867 59.7629 262.655C59.8209 262.444 59.9236 262.248 60.064 262.08C60.1371 262.01 60.2238 261.956 60.3189 261.922C60.4139 261.887 60.515 261.873 60.6159 261.88C60.7167 261.887 60.815 261.914 60.9046 261.961C60.9941 262.008 61.0729 262.073 61.136 262.152C61.504 262.64 61.136 263.68 60.84 264.12C60.84 264.12 60.32 264.712 60.312 264.704C60.264 264.872 60.2 265.048 60.136 265.24C60 265.592 59.856 265.992 59.664 266.408C59.4615 266.864 59.2318 267.308 58.976 267.736C58.6971 268.221 58.373 268.679 58.008 269.104C58.16 269.008 58.592 268.76 58.632 268.744C59.128 268.528 60.232 268.408 60.624 268.872C60.6889 268.949 60.7366 269.04 60.7639 269.137C60.7912 269.234 60.7975 269.336 60.7824 269.436C60.7672 269.536 60.731 269.632 60.6761 269.716C60.6212 269.801 60.5489 269.873 60.464 269.928C60.2715 270.031 60.0589 270.092 59.8407 270.106C59.6226 270.12 59.4041 270.086 59.2 270.008C58.7474 269.784 58.3297 269.496 57.96 269.152C57.6007 269.593 57.2133 270.01 56.8 270.4L56 271.032L56.272 270.88C56.776 270.672 57.872 270.544 58.264 271.008C58.3289 271.085 58.3766 271.176 58.4039 271.273C58.4312 271.37 58.4375 271.472 58.4224 271.572C58.4072 271.672 58.371 271.767 58.3161 271.852C58.2612 271.937 58.1889 272.009 58.104 272.064C57.9122 272.169 57.6994 272.231 57.4809 272.245C57.2625 272.259 57.0436 272.224 56.84 272.144C56.4006 271.942 55.9956 271.672 55.64 271.344L55.336 271.584C54.848 271.96 54.36 272.328 53.888 272.712C53.72 272.84 53.568 272.984 53.408 273.12L53.64 272.984C54.144 272.768 55.24 272.648 55.632 273.112C55.6969 273.189 55.7446 273.28 55.7719 273.377C55.7992 273.474 55.8055 273.576 55.7904 273.676C55.7752 273.776 55.739 273.872 55.6841 273.956C55.6292 274.041 55.5569 274.113 55.472 274.168C55.2796 274.272 55.067 274.333 54.8488 274.347C54.6306 274.361 54.4119 274.327 54.208 274.248C53.7797 274.043 53.3857 273.773 53.04 273.448C52.88 273.592 52.72 273.736 52.576 273.888C52.432 274.04 52.376 274.08 52.28 274.192L52 274.504L51.496 275.128L51.176 275.552L51.688 275.136C52.152 274.848 53.216 274.568 53.68 274.96C53.7553 275.028 53.8155 275.11 53.8567 275.202C53.898 275.295 53.9193 275.395 53.9193 275.496C53.9193 275.597 53.898 275.697 53.8567 275.789C53.8155 275.882 53.7553 275.964 53.68 276.032C53.5044 276.163 53.303 276.254 53.0892 276.301C52.8755 276.348 52.6542 276.349 52.44 276.304C51.9609 276.152 51.5077 275.928 51.096 275.64L50.6 276.312C50.064 277.056 49.64 277.696 49.352 278.152V278.2L48.976 278.016L49.04 277.928C49.336 277.48 49.776 276.84 50.336 276.096C50.512 275.864 50.704 275.616 50.904 275.368C50.699 275.139 50.5067 274.898 50.328 274.648C49.861 274.772 49.3791 274.831 48.896 274.824C48.896 275.112 48.856 275.392 48.848 275.624C48.848 276.544 48.848 277.312 48.848 277.848V277.912L48.44 277.712C48.44 277.176 48.44 276.456 48.512 275.608C48.512 275.312 48.512 275 48.584 274.68C48.0944 274.572 47.6248 274.389 47.192 274.136C47.0123 274.011 46.8619 273.848 46.7514 273.658C46.6409 273.469 46.5729 273.258 46.552 273.04C46.5514 272.938 46.5723 272.838 46.6134 272.745C46.6544 272.652 46.7148 272.568 46.7903 272.5C46.8659 272.432 46.955 272.381 47.0518 272.35C47.1487 272.319 47.251 272.309 47.352 272.32C47.96 272.392 48.464 273.368 48.56 273.92C48.56 273.92 48.56 274.304 48.608 274.52C48.608 274.392 48.608 274.264 48.608 274.128C48.608 273.864 48.664 273.6 48.704 273.328C48.704 273.192 48.744 273.056 48.768 272.912C48.792 272.768 48.832 272.632 48.856 272.488C48.928 272.16 49.024 271.824 49.12 271.488C48.6345 271.454 48.157 271.346 47.704 271.168C47.5074 271.072 47.334 270.934 47.1959 270.764C47.0577 270.594 46.9581 270.396 46.904 270.184C46.8882 270.083 46.8937 269.981 46.9201 269.882C46.9465 269.784 46.9932 269.692 47.0573 269.613C47.1214 269.534 47.2014 269.469 47.2921 269.423C47.3829 269.376 47.4823 269.349 47.584 269.344C48.192 269.344 48.84 270.216 49.016 270.736C49.016 270.736 49.12 271.144 49.16 271.36C49.224 271.16 49.28 270.96 49.352 270.76C49.544 270.184 49.76 269.608 49.976 269.032L50.168 268.496C49.6661 268.462 49.1723 268.352 48.704 268.168C48.5074 268.072 48.334 267.934 48.1959 267.764C48.0577 267.594 47.9581 267.396 47.904 267.184C47.893 267.087 47.9018 266.989 47.93 266.895C47.9582 266.801 48.0052 266.714 48.0681 266.64C48.131 266.565 48.2084 266.503 48.2957 266.46C48.3831 266.416 48.4784 266.39 48.576 266.384C49.192 266.384 49.84 267.256 50.016 267.768C50.016 267.808 50.152 268.36 50.184 268.496C50.32 268.112 50.456 267.696 50.576 267.328C50.7408 266.804 50.8691 266.27 50.96 265.728C50.4557 265.693 49.9595 265.582 49.488 265.4C49.2914 265.304 49.118 265.166 48.9799 264.996C48.8417 264.826 48.7421 264.628 48.688 264.416C48.6722 264.315 48.6777 264.213 48.7041 264.114C48.7305 264.016 48.7772 263.924 48.8413 263.845C48.9054 263.766 48.9854 263.701 49.0761 263.655C49.1669 263.608 49.2663 263.581 49.368 263.576C49.976 263.576 50.624 264.448 50.8 264.968C50.8 264.968 50.912 265.416 50.952 265.616C51.0306 265.068 51.0627 264.514 51.048 263.96C51.048 263.656 51.048 263.368 50.992 263.088C50.4957 263.105 49.9996 263.049 49.52 262.92C49.3135 262.845 49.1258 262.726 48.9697 262.571C48.8136 262.416 48.693 262.23 48.616 262.024C48.5901 261.926 48.585 261.824 48.6009 261.724C48.6168 261.624 48.6534 261.528 48.7084 261.443C48.7633 261.358 48.8354 261.285 48.9201 261.23C49.0048 261.174 49.1001 261.137 49.2 261.12C49.8 261.04 50.544 261.848 50.8 262.344C50.8 262.344 50.92 262.656 50.984 262.864C50.984 262.736 50.984 262.608 50.984 262.488C50.92 262.024 50.832 261.616 50.76 261.248L50.624 260.68C50.1804 260.472 49.7683 260.203 49.4 259.88C49.2524 259.718 49.1416 259.527 49.0753 259.318C49.009 259.11 48.9888 258.889 49.016 258.672C49.0257 258.569 49.0574 258.469 49.1091 258.38C49.1607 258.29 49.2311 258.213 49.3154 258.153C49.3996 258.093 49.4958 258.052 49.5974 258.032C49.699 258.013 49.8035 258.015 49.904 258.04Z" fill="#92E3A9"/>
<path d="M60.92 267.432C60.423 267.336 59.943 267.166 59.496 266.928C59.496 266.928 60.008 266.4 60.04 266.368C60.464 266.032 61.488 265.624 62 265.96C62.0822 266.019 62.1511 266.094 62.2023 266.181C62.2535 266.268 62.2857 266.365 62.2971 266.465C62.3084 266.566 62.2985 266.667 62.268 266.763C62.2375 266.86 62.187 266.948 62.12 267.024C61.9633 267.178 61.7742 267.294 61.5664 267.365C61.3587 267.435 61.1378 267.458 60.92 267.432Z" fill="#92E3A9"/>
<path d="M55.36 279.36C55.36 279.36 52.472 272.392 50.856 272.696C49.24 273 53.6 283.808 53.6 283.808C53.6 283.808 48.52 274.208 45.048 274.208C41.576 274.208 46.32 284.808 50.712 288.344C50.712 288.344 43.776 280.872 39.736 282.488C35.696 284.104 47.848 291.68 47.848 291.68C47.848 291.68 40.8 289.464 41.6 291.2C42.4 292.936 44.6 293.224 44.6 293.224L36.6 293.624H64.376L58.136 293.016C58.136 293.016 64.608 289.816 62.872 288.472C61.136 287.128 57.328 289.992 57.328 289.992C57.328 289.992 63.912 282.72 62.64 279.992C61.368 277.264 55.704 284.944 55.704 284.944C55.704 284.944 60.328 275.144 59.408 273.432C58.488 271.72 55.36 279.36 55.36 279.36Z" fill="#92E3A9"/>
<path d="M56.288 279.728C54.8117 283.845 53.9543 288.159 53.744 292.528C55.9588 292.476 58.1017 291.732 59.872 290.4" stroke="#263238" stroke-linecap="round" stroke-linejoin="round"/>
<path d="M55.016 283.776C54.4935 281.528 53.7981 279.324 52.936 277.184" stroke="#263238" stroke-linecap="round" stroke-linejoin="round"/>
<path d="M47.504 279.384L53.976 288.984C53.976 288.984 58.4 285.28 59.872 283.2" stroke="#263238" stroke-linecap="round" stroke-linejoin="round"/>
<path d="M53.856 291.288C53.856 291.288 47.04 288.048 44.256 286.2" stroke="#263238" stroke-linecap="round" stroke-linejoin="round"/>
<path d="M76.144 275.296H150.072" stroke="#263238" stroke-linecap="round" stroke-linejoin="round"/>
<path d="M106.776 257.808H108.296L108.08 270.952H106.096L106.776 257.808Z" fill="#323232"/>
<path d="M80.944 268.712H93.912L95.352 270.52H130.544H147.68V263.312H82.024L80.944 268.712Z" fill="#263238"/>
<path d="M75.2 257.296L75.256 267.272C75.2972 267.513 75.4053 267.737 75.568 267.92C75.7306 268.102 75.9413 268.235 76.176 268.304C77.1513 268.403 78.1321 268.438 79.112 268.408L81.512 263.984C81.7086 263.416 82.0764 262.922 82.5649 262.571C83.0534 262.22 83.6385 262.029 84.24 262.024C86.4 261.976 96.072 262.488 96.072 262.488C96.4824 262.645 96.8476 262.901 97.1352 263.233C97.4227 263.565 97.6236 263.963 97.72 264.392C98.128 265.936 97.976 270.464 97.976 270.464L106.88 270.72L107.184 257.92L75.2 257.296Z" fill="white" stroke="#263238" stroke-linecap="round" stroke-linejoin="round"/>
<path d="M144.488 270.104C144.49 269.034 144.174 267.987 143.58 267.096C142.986 266.206 142.142 265.511 141.153 265.101C140.165 264.691 139.077 264.583 138.027 264.792C136.977 265 136.013 265.515 135.256 266.272C134.499 267.029 133.984 267.993 133.776 269.043C133.567 270.093 133.675 271.181 134.085 272.169C134.496 273.158 135.19 274.002 136.08 274.596C136.971 275.19 138.018 275.506 139.088 275.504C140.52 275.504 141.894 274.935 142.906 273.922C143.919 272.91 144.488 271.536 144.488 270.104Z" fill="#263238"/>
<path d="M143.408 270.104C143.41 269.247 143.157 268.409 142.682 267.696C142.207 266.984 141.531 266.428 140.74 266.099C139.949 265.77 139.078 265.684 138.238 265.851C137.397 266.018 136.625 266.43 136.02 267.036C135.414 267.641 135.002 268.413 134.835 269.254C134.668 270.094 134.754 270.965 135.083 271.756C135.412 272.547 135.968 273.223 136.68 273.698C137.393 274.173 138.231 274.426 139.088 274.424C139.655 274.424 140.217 274.312 140.741 274.095C141.265 273.878 141.742 273.56 142.143 273.159C142.544 272.758 142.862 272.281 143.079 271.757C143.296 271.233 143.408 270.671 143.408 270.104Z" fill="white" stroke="#263238" stroke-linecap="round" stroke-linejoin="round"/>
<path d="M141.864 270.104C141.866 269.553 141.703 269.013 141.398 268.554C141.093 268.095 140.658 267.737 140.149 267.525C139.64 267.314 139.08 267.258 138.539 267.365C137.998 267.472 137.501 267.738 137.111 268.127C136.722 268.517 136.456 269.014 136.349 269.555C136.242 270.096 136.298 270.656 136.509 271.165C136.721 271.674 137.079 272.109 137.538 272.414C137.997 272.719 138.537 272.882 139.088 272.88C139.824 272.88 140.53 272.588 141.051 272.067C141.572 271.546 141.864 270.84 141.864 270.104Z" fill="white" stroke="#263238" stroke-linecap="round" stroke-linejoin="round"/>
<path d="M140.528 270.104C140.528 269.819 140.444 269.541 140.285 269.304C140.127 269.067 139.902 268.883 139.639 268.774C139.376 268.665 139.086 268.636 138.807 268.692C138.528 268.747 138.271 268.884 138.07 269.086C137.868 269.287 137.731 269.544 137.676 269.823C137.62 270.102 137.649 270.392 137.758 270.655C137.867 270.918 138.051 271.143 138.288 271.301C138.525 271.46 138.803 271.544 139.088 271.544C139.469 271.542 139.834 271.39 140.104 271.12C140.374 270.85 140.526 270.485 140.528 270.104Z" fill="white" stroke="#263238" stroke-linecap="round" stroke-linejoin="round"/>
<path d="M95.2 270.104C95.2016 269.034 94.8858 267.988 94.2925 267.097C93.6992 266.207 92.8551 265.512 91.8671 265.102C90.8791 264.691 89.7914 264.583 88.7419 264.791C87.6923 264.999 86.7279 265.513 85.9708 266.269C85.2137 267.025 84.6978 267.989 84.4885 269.038C84.2792 270.087 84.3858 271.175 84.7949 272.164C85.204 273.152 85.8971 273.997 86.7866 274.592C87.6762 275.187 88.7221 275.504 89.792 275.504C91.2249 275.504 92.5992 274.935 93.6132 273.923C94.6272 272.91 95.1979 271.537 95.2 270.104Z" fill="#263238"/>
<path d="M94.12 270.104C94.1216 269.248 93.8691 268.41 93.3945 267.697C92.9199 266.985 92.2445 266.429 91.4538 266.1C90.6631 265.771 89.7926 265.684 88.9526 265.85C88.1125 266.016 87.3406 266.428 86.7345 267.033C86.1284 267.638 85.7154 268.409 85.5478 269.249C85.3801 270.088 85.4653 270.959 85.7927 271.75C86.12 272.542 86.6748 273.218 87.3867 273.694C88.0986 274.17 88.9357 274.424 89.792 274.424C90.9385 274.424 92.0381 273.969 92.8495 273.159C93.661 272.349 94.1179 271.25 94.12 270.104Z" fill="white" stroke="#263238" stroke-linecap="round" stroke-linejoin="round"/>
<path d="M92.576 270.104C92.5776 269.553 92.4157 269.014 92.1107 268.555C91.8058 268.096 91.3715 267.738 90.8629 267.526C90.3544 267.314 89.7944 267.258 89.2538 267.365C88.7132 267.471 88.2164 267.736 87.8263 268.125C87.4361 268.514 87.1702 269.01 87.0621 269.55C86.954 270.09 87.0087 270.65 87.2192 271.16C87.4296 271.669 87.7865 272.104 88.2445 272.41C88.7025 272.717 89.241 272.88 89.792 272.88C90.1572 272.881 90.5191 272.81 90.8568 272.671C91.1945 272.532 91.5015 272.328 91.7601 272.07C92.0187 271.812 92.2239 271.506 92.3639 271.168C92.5039 270.831 92.576 270.469 92.576 270.104Z" fill="white" stroke="#263238" stroke-linecap="round" stroke-linejoin="round"/>
<path d="M91.2 270.104C91.2 269.819 91.1155 269.541 90.9573 269.304C90.7991 269.067 90.5742 268.883 90.3111 268.774C90.0479 268.665 89.7584 268.636 89.4791 268.692C89.1997 268.747 88.9432 268.884 88.7418 269.086C88.5404 269.287 88.4032 269.544 88.3477 269.823C88.2921 270.102 88.3206 270.392 88.4296 270.655C88.5386 270.918 88.7232 271.143 88.96 271.301C89.1968 271.46 89.4752 271.544 89.76 271.544C90.1419 271.544 90.5082 271.392 90.7782 271.122C91.0483 270.852 91.2 270.486 91.2 270.104Z" fill="white" stroke="#263238" stroke-linecap="round" stroke-linejoin="round"/>
<path d="M110.928 248.88C110.928 248.88 108.68 248.992 108.72 249.288C108.793 249.594 108.903 249.889 109.048 250.168L107.616 257.6C107.482 258.33 107.394 259.067 107.352 259.808C107.352 260.544 107.136 270.56 107.136 270.56C107.204 270.731 107.32 270.878 107.471 270.984C107.622 271.089 107.8 271.148 107.984 271.152C108.68 271.224 130.384 271.552 130.384 271.552C130.834 271.342 131.227 271.027 131.528 270.632C132.152 269.896 135.136 266.104 138.632 265.032C139.777 264.629 141.005 264.522 142.202 264.72C143.399 264.919 144.527 265.417 145.48 266.168C146.328 266.968 146.44 269.744 146.552 270.296C146.664 270.848 147.656 270.88 147.872 270.88C148.088 270.88 149.416 270.736 149.712 270.328C149.98 269.739 150.132 269.103 150.16 268.456C150.136 268.262 150.073 268.074 149.976 267.904L150.968 263.704C150.968 263.704 151.184 262.904 150.928 262.712C150.672 262.52 150.008 262.456 149.896 262.048C149.784 261.64 150.344 260.872 149.896 260.28C149.448 259.688 147.984 259.104 146.88 258.848C145.776 258.592 139.328 258.112 139.328 258.112L129.136 257.56L126.576 253.6L124.36 250.136C124.401 250.082 124.429 250.021 124.444 249.955C124.459 249.889 124.46 249.821 124.446 249.755C124.432 249.689 124.405 249.627 124.365 249.573C124.325 249.518 124.275 249.473 124.216 249.44C123.776 249.144 122.52 249.032 120.056 248.848C117.592 248.664 110.928 248.88 110.928 248.88Z" fill="white" stroke="#263238" stroke-linecap="round" stroke-linejoin="round"/>
<path d="M109.088 270.776L109.344 259.76C109.344 259.76 109.088 259.248 109.704 258.424C110.068 257.935 110.483 257.487 110.944 257.088L111.864 251.224C111.901 250.845 112.072 250.492 112.347 250.228C112.621 249.964 112.98 249.807 113.36 249.784C114.8 249.624 122.824 249.936 122.824 249.936L126.072 257.6C126.367 258.498 126.505 259.439 126.48 260.384C126.432 261.928 125.968 271.184 125.968 271.184L109.088 270.776Z" fill="white" stroke="#263238" stroke-linecap="round" stroke-linejoin="round"/>
<path d="M124.216 249.472C123.776 249.176 122.52 249.064 120.056 248.88C117.592 248.696 110.928 248.88 110.928 248.88C110.928 248.88 108.68 248.992 108.72 249.288C108.742 249.429 108.782 249.566 108.84 249.696H124.424C124.375 249.604 124.304 249.527 124.216 249.472Z" fill="white" stroke="#263238" stroke-linecap="round" stroke-linejoin="round"/>
<path d="M121.304 250.648L114.312 250.576C114.007 250.576 113.712 250.682 113.477 250.876C113.242 251.071 113.082 251.341 113.024 251.64C112.696 252.784 112.224 256.72 112.224 256.72C112.224 256.72 112.224 257.272 113.024 257.312C113.824 257.352 124.032 257.536 124.032 257.536C124.132 257.544 124.233 257.531 124.328 257.497C124.422 257.463 124.509 257.41 124.581 257.34C124.654 257.271 124.711 257.187 124.748 257.094C124.786 257 124.804 256.9 124.8 256.8C124.8 256.104 122.4 251.056 122.4 251.056C122.4 251.056 122.232 250.4 121.304 250.648Z" fill="white" stroke="#263238" stroke-linecap="round" stroke-linejoin="round"/>
<path d="M124 257.52L120.552 257.464L121.576 250.6H121.776C121.953 250.601 122.125 250.657 122.268 250.76C122.412 250.863 122.519 251.009 122.576 251.176C122.856 251.728 124.976 255.976 124.976 256.648C124.976 256.771 124.949 256.893 124.899 257.006C124.848 257.119 124.774 257.219 124.682 257.301C124.59 257.384 124.482 257.446 124.364 257.483C124.247 257.521 124.123 257.533 124 257.52ZM121.024 257.088L124 257.136C124.088 257.136 124.528 257.136 124.528 256.672C124.528 256.208 123.072 253.168 122.128 251.344V251.304C122.109 251.251 122.08 251.202 122.041 251.16C122.003 251.119 121.956 251.086 121.904 251.064L121.024 257.088Z" fill="#263238"/>
<path d="M121.52 250.616L120.488 257.464H120.984L122.008 250.656C121.852 250.598 121.683 250.584 121.52 250.616Z" fill="white" stroke="#263238" stroke-linecap="round" stroke-linejoin="round"/>
<path d="M126.576 253.6L124.36 250.136C124.36 250.136 123.664 250.136 123.96 251.024C124.256 251.912 126.36 256.8 126.36 256.8C126.67 257.112 127.07 257.319 127.504 257.392C128.126 257.491 128.754 257.552 129.384 257.576V257.512H129.136L126.576 253.6Z" fill="white" stroke="#263238" stroke-linecap="round" stroke-linejoin="round"/>
<path d="M75.24 258.536L107.152 259.272L107.184 257.912L75.232 257.296L75.24 258.536Z" fill="#263238"/>
<path d="M107.304 258.168L74.568 257.368C74.4859 257.364 74.4086 257.328 74.352 257.269C74.2954 257.209 74.2639 257.13 74.264 257.048C74.2698 256.968 74.3047 256.893 74.3622 256.837C74.4197 256.781 74.4958 256.748 74.576 256.744L107.32 257.544C107.401 257.546 107.479 257.58 107.535 257.638C107.592 257.696 107.624 257.775 107.624 257.856C107.622 257.939 107.587 258.019 107.527 258.077C107.468 258.135 107.388 258.168 107.304 258.168Z" fill="white"/>
<path d="M107.304 258.168L74.568 257.368C74.4859 257.364 74.4086 257.328 74.352 257.269C74.2954 257.209 74.2639 257.13 74.264 257.048C74.2698 256.968 74.3047 256.893 74.3622 256.837C74.4197 256.781 74.4958 256.748 74.576 256.744L107.32 257.544C107.401 257.546 107.479 257.58 107.535 257.638C107.592 257.696 107.624 257.775 107.624 257.856C107.622 257.939 107.587 258.019 107.527 258.077C107.468 258.135 107.388 258.168 107.304 258.168V258.168Z" stroke="#263238" stroke-linecap="round" stroke-linejoin="round"/>
<path d="M77.032 270.312L80.896 271.112L82.696 265.456C82.696 265.456 82.952 264.376 85.32 264.12C87.688 263.864 92.16 263.856 93.912 264.376C95.664 264.896 95.864 266.328 96.12 267.872C96.376 269.416 96.224 271.68 96.64 271.936C97.056 272.192 99.52 271.992 99.984 271.888C100.448 271.784 100.96 265.488 100.784 263.888C100.608 262.288 98.824 260.544 96.304 260.44C93.784 260.336 86.272 260.128 82.928 260.592C79.584 261.056 78.4 262.496 77.888 264.592C77.4958 266.481 77.21 268.391 77.032 270.312Z" fill="white" stroke="#263238" stroke-linecap="round" stroke-linejoin="round"/>
<path d="M149.688 270.304C149.956 269.715 150.108 269.079 150.136 268.432C150.112 268.238 150.049 268.05 149.952 267.88L150.944 263.68C150.944 263.68 151.16 262.88 150.904 262.688C150.723 262.587 150.533 262.504 150.336 262.44C146.776 262.2 138.456 261.752 135.024 263.368C131.296 265.112 127.416 270.192 126.48 271.464L130.36 271.52C130.81 271.31 131.203 270.995 131.504 270.6C132.128 269.864 135.112 266.072 138.608 265C139.753 264.597 140.981 264.49 142.178 264.688C143.375 264.887 144.503 265.385 145.456 266.136C146.304 266.936 146.416 269.712 146.528 270.264C146.64 270.816 147.632 270.848 147.848 270.848C148.064 270.848 149.392 270.712 149.688 270.304Z" fill="white" stroke="#263238" stroke-linecap="round" stroke-linejoin="round"/>
<path d="M149.952 267.88H151.248L151.304 267.936C151.474 268.105 151.596 268.317 151.658 268.549C151.72 268.78 151.719 269.024 151.656 269.256L151.344 270.368C151.278 270.606 151.126 270.81 150.918 270.942C150.709 271.074 150.459 271.123 150.216 271.08L149.12 270.896C148.897 270.373 148.858 269.79 149.009 269.243C149.16 268.695 149.493 268.215 149.952 267.88Z" fill="white" stroke="#263238" stroke-linecap="round" stroke-linejoin="round"/>
<path d="M111.928 258.24C111.928 258.24 112.024 258.648 111.784 258.752C111.62 258.791 111.449 258.787 111.288 258.739C111.126 258.691 110.98 258.602 110.864 258.48C110.656 258.24 110.824 257.928 111.376 257.928C111.928 257.928 111.928 258.24 111.928 258.24Z" fill="#263238"/>
<path d="M110.76 258.136C111.986 257.9 113.247 257.922 114.464 258.2C114.316 258.281 114.152 258.327 113.984 258.336C113.744 258.336 110.248 258.336 110.76 258.136Z" fill="#263238"/>
</svg>
