<svg width="400" height="400" viewBox="0 0 400 400" fill="none" xmlns="http://www.w3.org/2000/svg">
<path d="M327.632 227.824H267.488V294.432H327.632V227.824Z" fill="#EBEBEB"/>
<path d="M358.688 227.824H327.632V294.432H358.688V227.824Z" fill="#DBDBDB"/>
<path d="M356.552 289.84C354.253 285.104 351.973 280.352 349.712 275.584L342.976 261.264L336.328 246.864C334.12 242.064 331.936 237.243 329.776 232.4C332.069 237.136 334.347 241.888 336.608 246.656L343.352 260.984L350 275.384C352.208 280.184 354.392 285.003 356.552 289.84Z" fill="#EBEBEB"/>
<path d="M356.552 232.408C354.392 237.251 352.208 242.072 350 246.872L343.352 261.272L336.608 275.6C334.352 280.357 332.075 285.107 329.776 289.848C331.909 285.016 334.093 280.197 336.328 275.392L342.976 260.992L349.712 246.664C351.968 241.896 354.248 237.144 356.552 232.408Z" fill="#EBEBEB"/>
<path d="M327.632 127.232H267.488V189.248H327.632V127.232Z" fill="#EBEBEB"/>
<path d="M358.688 127.232H327.632V189.248H358.688V127.232Z" fill="#DBDBDB"/>
<path d="M302.664 141.624H301.392H300.44L299.888 140.512L299.12 141.624L298.088 139.344L297.104 141.624H294.288H293L292.536 140.104L292.096 141.624H291.264V127.232H302.664V141.624Z" fill="#DBDBDB"/>
<path d="M356.552 185.288C354.253 180.877 351.973 176.453 349.712 172.016L342.976 158.68L336.328 145.28C334.12 140.805 331.936 136.317 329.776 131.816C332.069 136.221 334.347 140.645 336.608 145.088L343.352 158.4L350 171.792C352.208 176.288 354.392 180.787 356.552 185.288Z" fill="#EBEBEB"/>
<path d="M356.552 131.816C354.392 136.317 352.208 140.805 350 145.28L343.352 158.68L336.608 172C334.352 176.437 332.075 180.861 329.776 185.272C331.909 180.776 334.093 176.288 336.328 171.808L342.976 158.4L349.712 145.056C351.968 140.619 354.248 136.205 356.552 131.816Z" fill="#EBEBEB"/>
<path d="M323.672 178.72H316.992V185.4H323.672V178.72Z" fill="white"/>
<path d="M105.44 174.144H45.296V236.16H105.44V174.144Z" fill="#EBEBEB"/>
<path d="M136.496 174.144H105.44V236.16H136.496V174.144Z" fill="#DBDBDB"/>
<path d="M134.4 232.208C132.096 227.792 129.816 223.368 127.56 218.936L120.8 205.6L114.144 192.208C111.947 187.739 109.765 183.251 107.6 178.744C109.899 183.155 112.176 187.576 114.432 192.008L121.176 205.352L127.824 218.752C130.021 223.216 132.213 227.701 134.4 232.208Z" fill="#EBEBEB"/>
<path d="M134.4 178.736C132.235 183.232 130.051 187.72 127.848 192.2L121.16 205.6L114.4 218.936C112.144 223.373 109.867 227.797 107.568 232.208C109.728 227.707 111.909 223.219 114.112 218.744L120.8 205.344L127.52 192C129.776 187.568 132.069 183.147 134.4 178.736Z" fill="#EBEBEB"/>
<path d="M101.48 225.632H94.8V232.312H101.48V225.632Z" fill="white"/>
<path d="M331.64 189.248H271.496V227.824H331.64V189.248Z" fill="#DBDBDB"/>
<path d="M362.696 189.248H331.64V227.824H362.696V189.248Z" fill="#C7C7C7"/>
<path d="M306.672 203.64H305.4H304.44L303.896 202.536L303.128 203.64L302.096 201.36L301.112 203.64H298.296H297.008L296.544 202.12L296.104 203.64H295.272V189.248H306.672V203.64Z" fill="white"/>
<path d="M360.56 225.528C358.256 222.728 355.976 219.917 353.72 217.096L346.984 208.616L340.336 200.104C338.128 197.256 335.944 194.403 333.784 191.544C336.083 194.344 338.36 197.155 340.616 199.976L347.36 208.456L354.008 216.968C356.216 219.816 358.4 222.669 360.56 225.528Z" fill="#DBDBDB"/>
<path d="M360.56 191.544C358.4 194.408 356.216 197.259 354.008 200.096L347.36 208.616L340.616 217.096C338.36 219.912 336.083 222.723 333.784 225.528C335.917 222.664 338.101 219.811 340.336 216.968L346.984 208.456L353.72 199.976C355.976 197.16 358.256 194.349 360.56 191.544Z" fill="#DBDBDB"/>
<path d="M101.488 135.568H41.344V174.144H101.488V135.568Z" fill="#DBDBDB"/>
<path d="M132.552 135.568H101.496V174.144H132.552V135.568Z" fill="#C7C7C7"/>
<path d="M76.52 149.96H75.248H74.296L73.744 148.856L72.984 149.96L71.944 147.68L70.96 149.96H68.144H66.856L66.392 148.44L65.952 149.96H65.12V135.568H76.52V149.96Z" fill="white"/>
<path d="M130.4 171.848C128.101 169.048 125.824 166.237 123.568 163.416L116.8 154.936L110.184 146.4C107.976 143.552 105.792 140.699 103.632 137.84C105.936 140.64 108.216 143.451 110.472 146.272L117.208 154.752L123.856 163.264C126.085 166.128 128.267 168.989 130.4 171.848Z" fill="#DBDBDB"/>
<path d="M130.4 137.864C128.267 140.728 126.083 143.581 123.848 146.424L117.2 154.936L110.464 163.416C108.208 166.232 105.928 169.043 103.624 171.848C105.784 168.984 107.968 166.131 110.176 163.288L116.8 154.776L123.544 146.296C125.821 143.48 128.107 140.669 130.4 137.864Z" fill="#DBDBDB"/>
<path d="M97.448 236.16H37.304V294.424H97.448V236.16Z" fill="#DBDBDB"/>
<path d="M128.504 236.16H97.448V294.424H128.504V236.16Z" fill="#C7C7C7"/>
<path d="M72.48 250.56H71.208H70.248L69.704 249.448L68.936 250.56L67.896 248.272L66.912 250.56H64.096H62.816L62.352 249.032L61.912 250.56H61.072V236.16H72.48V250.56Z" fill="white"/>
<path d="M126.4 290.96C124.096 286.731 121.816 282.485 119.56 278.224L112.824 265.424L106.168 252.56C103.96 248.293 101.776 243.987 99.616 239.64C101.92 243.869 104.2 248.115 106.456 252.376L113.192 265.176L119.848 278.04C122.029 282.328 124.213 286.635 126.4 290.96Z" fill="#DBDBDB"/>
<path d="M126.4 239.632C124.229 243.952 122.045 248.259 119.848 252.552L113.192 265.416L106.456 278.216C104.2 282.483 101.92 286.728 99.616 290.952C101.781 286.632 103.965 282.325 106.168 278.032L112.8 265.176L119.536 252.376C121.787 248.115 124.075 243.867 126.4 239.632Z" fill="#DBDBDB"/>
<path d="M58.072 260.048L47.576 260.264L42.248 260.36C40.464 260.36 38.672 260.36 36.888 260.4H36.536V260.048L36.488 251.096V250.688H36.888L47.48 250.736C51.016 250.736 54.544 250.824 58.072 250.864H58.296V251.08C58.296 252.592 58.224 254.104 58.192 255.6L58.072 260.048ZM58.072 260.048L57.96 255.52C57.96 254.032 57.872 252.56 57.856 251.096L58.072 251.312C54.544 251.352 51.016 251.44 47.48 251.44L36.888 251.496L37.288 251.096V260.048L36.928 259.688C38.672 259.688 40.416 259.688 42.168 259.728L47.432 259.824L58.072 260.048Z" fill="#EBEBEB"/>
<path d="M46.256 271.336L35.76 271.552L30.432 271.648C28.648 271.648 26.856 271.648 25.072 271.688H24.72V271.336L24.672 262.4V261.992H25.072L35.664 262.04C39.192 262.04 42.728 262.128 46.256 262.168H46.48V262.4C46.48 263.912 46.416 265.424 46.376 266.92L46.256 271.336ZM46.256 271.336L46.144 266.808C46.144 265.32 46.056 263.848 46.04 262.384L46.256 262.6C42.728 262.64 39.192 262.728 35.664 262.728L25.072 262.776L25.472 262.384L25.432 271.336L25.072 270.976C26.816 270.976 28.56 270.976 30.312 270.976L35.576 271.072L46.256 271.336Z" fill="#EBEBEB"/>
<path d="M270.88 109.28L260.376 109.504L255.048 109.592C253.272 109.592 251.48 109.592 249.696 109.64H249.344V109.28L249.304 100.328V99.9281H249.704L260.296 99.9761C263.824 99.9761 267.36 100.072 270.888 100.112H271.112V100.328C271.112 101.848 271.048 103.36 271.008 104.848L270.88 109.28ZM270.88 109.28L270.768 104.76C270.768 103.264 270.68 101.792 270.664 100.328L270.88 100.544C267.352 100.544 263.816 100.672 260.288 100.68L249.696 100.728L250.096 100.328L250.048 109.28L249.696 108.92C251.44 108.92 253.184 108.92 254.928 108.968L260.192 109.056L270.88 109.28Z" fill="#EBEBEB"/>
<path d="M259.064 120.568L248.56 120.8L243.232 120.888C241.456 120.928 239.664 120.888 237.88 120.936H237.52V120.576V111.624V111.2H237.92L248.512 111.248C252.04 111.248 255.568 111.344 259.104 111.384H259.32V111.6C259.32 113.12 259.248 114.632 259.216 116.12L259.064 120.568ZM259.064 120.568L258.952 116.048C258.912 114.552 258.856 113.08 258.84 111.616L259.064 111.832C255.528 111.872 252 111.96 248.472 111.968L237.88 112.016L238.28 111.616L238.232 120.568L237.88 120.208C239.624 120.208 241.368 120.208 243.112 120.256L248.376 120.344L259.064 120.568Z" fill="#EBEBEB"/>
<path d="M247.288 109.28L236.792 109.504L231.464 109.592C229.68 109.592 227.896 109.592 226.104 109.64H225.752V109.28L225.704 100.328V99.9281H226.104L236.696 99.9761C240.232 99.9761 243.76 100.072 247.288 100.112H247.512V100.328C247.512 101.848 247.44 103.36 247.408 104.848L247.288 109.28ZM247.288 109.28L247.2 104.8C247.2 103.304 247.112 101.832 247.096 100.368L247.312 100.584C243.784 100.584 240.256 100.712 236.72 100.72L226.128 100.768L226.528 100.368L226.488 109.32L226.128 108.96C227.88 108.96 229.616 108.96 231.368 109.008L236.632 109.096L247.288 109.28Z" fill="#EBEBEB"/>
<path d="M374.928 271.336L364.424 271.552L359.096 271.648C357.32 271.648 355.528 271.648 353.744 271.688H353.384V271.336L353.344 262.4V261.992H353.744L364.336 262.04C367.864 262.04 371.4 262.128 374.928 262.168H375.144V262.4C375.144 263.912 375.08 265.424 375.04 266.92L374.928 271.336ZM374.928 271.336L374.816 266.808C374.816 265.32 374.72 263.848 374.712 262.384L374.928 262.6C371.4 262.64 367.864 262.728 364.336 262.728L353.744 262.776L354.144 262.384L354.096 271.336L353.744 270.976C355.488 270.976 357.232 270.976 358.976 270.976L364.24 271.072L374.928 271.336Z" fill="#EBEBEB"/>
<path d="M363.112 52.392L352.608 52.6081L347.28 52.704C345.504 52.704 343.712 52.704 341.928 52.744H341.6V52.3841V43.432V43.024H342.008L352.6 43.072C356.128 43.072 359.656 43.16 363.192 43.2H363.408V43.416C363.408 44.936 363.336 46.44 363.304 47.936L363.112 52.392ZM363.112 52.392L363 47.8641C362.96 46.3761 362.904 44.904 362.888 43.44L363.112 43.656C359.576 43.656 356.048 43.784 352.52 43.784L341.928 43.84L342.328 43.44L342.28 52.392L341.928 52.0321C343.672 52.0321 345.408 52.032 347.16 52.08L352.424 52.168L363.112 52.392Z" fill="#EBEBEB"/>
<path d="M374.928 63.6801L364.424 63.8961L359.096 63.9921C357.32 63.9921 355.528 63.9921 353.744 64.0321H353.384V63.6801L353.344 54.7281V54.3201H353.744L364.336 54.3681C367.864 54.3681 371.4 54.4561 374.928 54.4961H375.144V54.7121C375.144 56.2241 375.08 57.7361 375.04 59.2321L374.928 63.6801ZM374.928 63.6801L374.816 59.1521C374.816 57.6641 374.72 56.1921 374.712 54.7281L374.928 54.9441C371.4 54.9441 367.864 55.0721 364.336 55.0721L353.744 55.1281L354.144 54.7281L354.096 63.6801L353.744 63.3201C355.488 63.3201 357.232 63.3201 358.976 63.3681L364.24 63.4561L374.928 63.6801Z" fill="#EBEBEB"/>
<path d="M58.072 52.3921L47.576 52.6081L42.248 52.7041C40.464 52.7041 38.672 52.7041 36.888 52.7441H36.536V52.3841L36.488 43.4401V43.0321H36.888L47.48 43.0801C51.016 43.0801 54.544 43.1681 58.072 43.2081H58.296V43.4241C58.296 44.9441 58.224 46.4481 58.192 47.9441L58.072 52.3921ZM58.072 52.3921L57.96 47.8641C57.96 46.3761 57.872 44.9041 57.856 43.4401L58.072 43.6561C54.544 43.6561 51.016 43.7841 47.48 43.7841L36.888 43.8401L37.288 43.4401V52.3921L36.888 52.0001C38.632 52.0001 40.376 52.0001 42.128 52.0481L47.392 52.1361L58.072 52.3921Z" fill="#EBEBEB"/>
<path d="M32.232 294.544L74.176 294.344L116.112 294.272L200 294.144L283.888 294.272L325.824 294.344L367.768 294.544L325.824 294.736L283.888 294.808L200 294.936L116.112 294.808L74.176 294.736L32.232 294.544Z" fill="#263238"/>
<path d="M204.768 367.48C300.057 367.48 377.304 358.669 377.304 347.8C377.304 336.931 300.057 328.12 204.768 328.12C109.479 328.12 32.232 336.931 32.232 347.8C32.232 358.669 109.479 367.48 204.768 367.48Z" fill="#EBEBEB"/>
<path d="M135.904 45.048H112.672V294.432H135.904V45.048Z" fill="#263238"/>
<path d="M287.328 45.048H264.096V294.432H287.328V45.048Z" fill="#455A64"/>
<path d="M264.096 69.504H122.208V77.88H264.096V69.504Z" fill="#37474F"/>
<path d="M264.096 123.64H122.208V132.016H264.096V123.64Z" fill="#37474F"/>
<path d="M264.096 177.776H122.208V186.152H264.096V177.776Z" fill="#37474F"/>
<path d="M264.096 231.912H122.208V240.288H264.096V231.912Z" fill="#37474F"/>
<path d="M264.096 286.048H122.208V294.424H264.096V286.048Z" fill="#37474F"/>
<path d="M182.6 78.296H138.632V123.632H182.6V78.296Z" fill="#EBEBEB"/>
<path d="M205.312 78.296H182.608V123.64H205.312V78.296Z" fill="#DBDBDB"/>
<path d="M164.352 88.824H163.424H162.72L162.32 88.016L161.76 88.824L161 87.152L160.28 88.824H158.224H157.288L156.944 87.712L156.624 88.824H156.016V78.296H164.352V88.824Z" fill="#DBDBDB"/>
<path d="M203.744 120.744C202.064 117.544 200.397 114.309 198.744 111.04L193.824 101.288L188.96 91.496C187.36 88.2213 185.76 84.9413 184.16 81.656C185.84 84.856 187.507 88.0907 189.16 91.36L194.088 101.112L198.952 110.904C200.568 114.173 202.165 117.453 203.744 120.744Z" fill="#EBEBEB"/>
<path d="M203.744 81.656C202.144 84.9467 200.544 88.2267 198.944 91.496L194.08 101.288L189.152 111.048C187.504 114.291 185.837 117.523 184.152 120.744C185.752 117.453 187.352 114.173 188.952 110.904L193.816 101.112L198.736 91.36C200.4 88.112 202.069 84.8773 203.744 81.656Z" fill="#EBEBEB"/>
<path d="M179.704 115.944H174.824V120.824H179.704V115.944Z" fill="white"/>
<path d="M210.296 149.576H166.328V177.776H210.296V149.576Z" fill="#DBDBDB"/>
<path d="M233 149.576H210.296V177.776H233V149.576Z" fill="#C7C7C7"/>
<path d="M192.04 160.096H191.112H190.408L190.008 159.288L189.448 160.096L188.696 158.432L187.976 160.096H185.912H184.976L184.632 158.984L184.32 160.096H183.704V149.576H192.04V160.096Z" fill="white"/>
<path d="M231.44 176.096C229.749 174.048 228.083 171.995 226.44 169.936L221.512 163.736L216.648 157.512C215.048 155.432 213.448 153.347 211.848 151.256C213.539 153.304 215.205 155.357 216.848 157.416L221.776 163.616L226.64 169.84C228.261 171.92 229.861 174.005 231.44 176.096Z" fill="#DBDBDB"/>
<path d="M231.44 151.256C229.84 153.347 228.24 155.432 226.64 157.512L221.776 163.736L216.848 169.936C215.2 171.995 213.533 174.048 211.848 176.096C213.448 174.005 215.048 171.92 216.648 169.84L221.512 163.616L226.44 157.424C228.088 155.36 229.755 153.304 231.44 151.256Z" fill="#DBDBDB"/>
<path d="M366.88 341.6C366.68 339.72 345.072 293.168 343.128 291.92C342.392 291.432 335.424 294.184 327.128 297.752L326.864 297.864C325.152 298.592 293.48 307.104 293.48 307.104L307.496 337.6L340.448 328.088L340.952 327.84C340.952 327.84 357.192 341.96 359.48 343.104C361.768 344.248 367.096 343.512 366.88 341.6Z" fill="#C95F50"/>
<path d="M320.8 299.664L335.2 329.576L340.384 328.08L340.896 327.84C340.896 327.84 357.136 341.96 359.416 343.104C361.696 344.248 367.048 343.512 366.824 341.632C366.6 339.752 345.016 293.192 343.072 291.952C342.336 291.464 335.368 294.208 327.072 297.784L326.824 297.896C326.4 298.08 324.08 298.752 320.8 299.664Z" fill="#EBEBEB"/>
<path d="M367.064 341.864C366.864 339.968 345.208 292.88 343.248 291.608C342.512 291.12 335.464 293.872 327.056 297.44L340.928 327.84C340.928 327.84 357.28 342.16 359.576 343.328C361.872 344.496 367.272 343.76 367.064 341.864Z" fill="#5D8F5B"/>
<path d="M364.872 342.056C361.048 334.256 346.4 302.4 343.2 294.4C343.2 294.336 343.2 294.32 343.256 294.4C347.208 302.048 361.656 334 365.024 342.008C365.072 342.168 364.952 342.224 364.872 342.056Z" fill="#263238"/>
<path d="M356.488 341.08C356.062 340.214 355.821 339.269 355.78 338.305C355.739 337.341 355.898 336.379 356.248 335.48C356.859 333.851 358.078 332.524 359.648 331.776C359.696 331.776 359.736 331.84 359.696 331.872C358.256 332.858 357.175 334.285 356.616 335.939C356.056 337.592 356.048 339.382 356.592 341.04C356.616 341.096 356.52 341.144 356.488 341.08Z" fill="#263238"/>
<path d="M343.12 330.544C341.624 327.4 341.048 323.224 342.736 320.072C342.8 319.952 342.968 320.072 342.968 320.16C342.79 323.589 342.978 327.027 343.528 330.416C343.536 330.467 343.526 330.52 343.499 330.564C343.471 330.608 343.429 330.641 343.379 330.657C343.33 330.672 343.276 330.67 343.229 330.649C343.181 330.628 343.142 330.591 343.12 330.544Z" fill="#263238"/>
<path d="M345.192 332.544C343.696 329.4 343.12 325.232 344.808 322.08C344.872 321.952 345.04 322.08 345.04 322.168C344.862 325.594 345.05 329.03 345.6 332.416C345.608 332.467 345.598 332.52 345.571 332.564C345.543 332.608 345.501 332.641 345.451 332.657C345.402 332.672 345.348 332.67 345.301 332.649C345.253 332.628 345.214 332.591 345.192 332.544Z" fill="#263238"/>
<path d="M347.264 334.544C345.768 331.408 345.192 327.232 346.88 324.08C346.944 323.96 347.112 324.08 347.112 324.168C346.935 327.597 347.122 331.035 347.672 334.424C347.678 334.474 347.665 334.525 347.637 334.567C347.609 334.61 347.567 334.641 347.518 334.655C347.47 334.669 347.417 334.666 347.371 334.646C347.324 334.625 347.287 334.589 347.264 334.544Z" fill="#263238"/>
<path d="M349.336 336.544C347.84 333.408 347.272 329.232 348.952 326.08C349.016 325.96 349.184 326.08 349.184 326.168C349.006 329.597 349.194 333.035 349.744 336.424C349.75 336.474 349.737 336.525 349.709 336.567C349.681 336.61 349.639 336.641 349.59 336.655C349.542 336.669 349.489 336.666 349.443 336.646C349.396 336.625 349.359 336.589 349.336 336.544Z" fill="#263238"/>
<path d="M336.608 299.872C335.008 296.32 340.504 293.8 342.12 297.352C343.736 300.904 338.232 303.424 336.608 299.872Z" fill="#263238"/>
<path d="M340.8 335.448C342.216 332.736 342.4 329.496 342.928 326.536C342.935 326.47 342.926 326.403 342.902 326.341C342.877 326.278 342.838 326.223 342.788 326.179C342.738 326.135 342.678 326.104 342.613 326.088C342.548 326.072 342.481 326.072 342.416 326.088C342.416 326.032 342.344 325.992 342.28 326.024C339.489 327.592 337.158 329.865 335.52 332.616C334.6 334.216 334.224 336.84 336.32 337.832C338.416 338.824 339.944 337.04 340.8 335.448ZM338.224 336.8C334.64 338.064 335.824 333.752 336.624 332.584C337.106 331.835 337.641 331.121 338.224 330.448C339.445 329.074 340.734 327.763 342.088 326.52C341.736 327.96 341.52 329.416 341.232 330.872C340.84 332.6 340.2 336.104 338.224 336.8Z" fill="#263238"/>
<path d="M335.072 315.736C333.128 316.928 333.76 319.488 334.848 321.008C336.76 323.574 339.311 325.593 342.248 326.864C342.261 326.869 342.275 326.871 342.289 326.87C342.303 326.869 342.317 326.865 342.329 326.858C342.341 326.851 342.351 326.842 342.36 326.83C342.368 326.819 342.373 326.806 342.376 326.792C342.632 326.792 342.928 326.592 342.84 326.288C342.04 323.392 341.496 320.2 339.808 317.64C338.824 316.144 336.92 314.6 335.072 315.736ZM340.672 322.136C341.112 323.552 341.472 324.984 341.968 326.376C340.528 325.232 339.048 324.152 337.72 322.864C337.076 322.25 336.472 321.595 335.912 320.904C335.072 319.816 333.416 315.648 337.112 316.544C339.2 317.048 340.168 320.472 340.696 322.152L340.672 322.136Z" fill="#263238"/>
<path d="M251.896 207.744C251.896 207.744 252.48 225.992 255.216 234.984C255.216 234.984 258.2 236.584 259.096 237.112C259.096 237.112 236.424 291.4 237.712 312.312C238.136 319.16 245.896 330.416 253.712 335.288C267.568 343.912 335.224 336.344 335.224 336.344L325.408 295.672C325.408 295.672 282.632 298.072 281.552 295.736C280.184 292.8 288.696 269.968 295.504 251.416C296.184 249.544 303.032 242.616 302.232 230.12C301.624 222.379 299.629 214.811 296.344 207.776L251.896 207.744Z" fill="#37474F"/>
<path d="M317.6 300.16C308.264 299.984 300.664 300.776 291.328 300.784H280.8C279.994 300.803 279.189 300.727 278.4 300.56C277.656 300.437 276.986 300.041 276.52 299.448C275.904 298.52 276.232 297.344 276.448 296.344C276.917 294.152 277.451 291.971 278.048 289.8C280.4 281 283.472 272.376 286.36 263.728L290.744 250.4C291.104 249.32 291.464 248.232 291.92 247.2C292.355 246.238 292.846 245.303 293.392 244.4C294.448 242.671 295.297 240.824 295.92 238.896C298.448 230.6 296.024 222.016 293.072 214.184C292.672 213.136 292.272 212.088 291.832 211.048C291.832 210.976 291.688 211.008 291.72 211.088C294.408 219.352 297.616 227.952 295.808 236.768C295.391 238.843 294.665 240.844 293.656 242.704C293.136 243.648 292.568 244.568 292.056 245.52C291.553 246.492 291.117 247.497 290.752 248.528C289.152 252.904 287.776 257.328 286.296 261.776C283.344 270.576 280.24 279.312 277.784 288.248C277.176 290.472 276.608 292.712 276.104 294.96C275.736 296.624 274.904 298.88 276.352 300.256C277.416 301.264 279.08 301.384 280.464 301.4C282.792 301.4 285.112 301.4 287.44 301.4C296.904 301.4 316.448 300.6 317.624 300.56C317.677 300.557 317.727 300.533 317.762 300.493C317.797 300.453 317.815 300.401 317.812 300.348C317.809 300.295 317.785 300.245 317.745 300.21C317.705 300.175 317.653 300.157 317.6 300.16Z" fill="#263238"/>
<path d="M328.056 334.4C327.144 329.648 326.264 324.872 325.216 320.152C324.168 315.432 323.024 310.696 321.8 306C321.448 304.672 321.096 303.352 320.736 302C320.568 301.368 320.4 300.744 320.216 300.112C320.061 299.468 319.866 298.835 319.632 298.216C319.632 298.152 319.512 298.216 319.52 298.256C319.649 299.486 319.866 300.705 320.168 301.904C320.4 303.048 320.616 304.2 320.856 305.344C321.347 307.701 321.845 310.056 322.352 312.408C323.384 317.12 324.552 321.792 325.752 326.464C326.44 329.112 327.12 331.768 327.816 334.416C327.856 334.616 328.088 334.584 328.056 334.4Z" fill="#263238"/>
<path d="M245.48 274.248L293.48 256.856C294.152 255.008 294.824 253.176 295.48 251.384C296.136 249.592 303.008 242.584 302.216 230.08C301.612 222.341 299.618 214.775 296.328 207.744H251.896C251.896 207.744 252.472 225.992 255.216 234.944C255.216 234.944 258.2 236.544 259.096 237.08C259.096 237.112 251.608 255.032 245.48 274.248Z" fill="#263238"/>
<path d="M172.472 343.816C174.28 344.36 225.576 342.664 227.488 341.36C228.224 340.88 228.408 333.36 228.376 324.336V324.048C228.376 322.184 224.128 290.896 224.128 290.896L188.224 292L195.272 324.8V325.36C195.272 325.36 176 334.768 174.008 336.424C172.016 338.08 170.656 343.28 172.472 343.816Z" fill="#C95F50"/>
<path d="M172.472 343.824C174.28 344.368 225.576 342.664 227.488 341.36C228.224 340.872 228.416 333.36 228.376 324.336V324.048C228.376 323.536 228.056 320.848 227.576 317.16L193.896 318.472L195.24 324.776V325.336C195.24 325.336 175.888 334.768 173.936 336.424C171.984 338.08 170.656 343.28 172.472 343.824Z" fill="#EBEBEB"/>
<path d="M172.08 344.04C173.912 344.584 225.68 342.864 227.64 341.552C228.376 341.056 228.568 333.496 228.536 324.36L195.136 325.376C195.136 325.376 175.6 334.904 173.632 336.576C171.664 338.248 170.248 343.496 172.08 344.04Z" fill="#5D8F5B"/>
<path d="M172.752 341.944C181.432 341.44 216.464 340.24 225.08 340.4C225.152 340.4 225.152 340.448 225.08 340.456C216.496 341.136 181.448 342.056 172.76 342.056C172.576 342.088 172.568 341.96 172.752 341.944Z" fill="#263238"/>
<path d="M176.904 334.6C177.868 334.542 178.834 334.684 179.74 335.019C180.647 335.353 181.473 335.873 182.168 336.544C183.428 337.741 184.178 339.377 184.264 341.112C184.264 341.168 184.168 341.168 184.16 341.112C183.806 339.404 182.907 337.857 181.598 336.703C180.29 335.549 178.643 334.851 176.904 334.712C176.889 334.712 176.875 334.706 176.864 334.696C176.854 334.685 176.848 334.671 176.848 334.656C176.848 334.641 176.854 334.627 176.864 334.617C176.875 334.606 176.889 334.6 176.904 334.6Z" fill="#263238"/>
<path d="M191.792 326.344C195.272 326.184 199.336 327.28 201.592 330.048C201.68 330.152 201.528 330.28 201.424 330.224C198.33 328.737 195.088 327.581 191.752 326.776C191.724 326.773 191.696 326.765 191.671 326.752C191.646 326.739 191.623 326.721 191.605 326.699C191.587 326.677 191.573 326.651 191.565 326.624C191.556 326.597 191.553 326.568 191.556 326.54C191.559 326.512 191.567 326.484 191.58 326.459C191.593 326.434 191.611 326.411 191.633 326.393C191.655 326.375 191.681 326.361 191.708 326.353C191.735 326.344 191.764 326.341 191.792 326.344Z" fill="#263238"/>
<path d="M189.144 327.48C192.624 327.32 196.688 328.408 198.944 331.184C199.032 331.288 198.88 331.408 198.776 331.36C195.684 329.869 192.442 328.714 189.104 327.912C189.047 327.907 188.994 327.879 188.957 327.835C188.92 327.79 188.903 327.733 188.908 327.676C188.913 327.619 188.941 327.566 188.985 327.529C189.03 327.492 189.087 327.475 189.144 327.48Z" fill="#263238"/>
<path d="M186.496 328.616C189.976 328.456 194.04 329.544 196.296 332.32C196.384 332.424 196.232 332.544 196.128 332.496C193.036 331.005 189.794 329.85 186.456 329.048C186.399 329.043 186.346 329.015 186.309 328.971C186.272 328.926 186.255 328.869 186.26 328.812C186.265 328.755 186.293 328.702 186.337 328.665C186.382 328.628 186.439 328.611 186.496 328.616Z" fill="#263238"/>
<path d="M183.848 329.752C187.328 329.592 191.392 330.68 193.648 333.456C193.736 333.56 193.584 333.68 193.48 333.632C190.388 332.142 187.146 330.986 183.808 330.184C183.78 330.181 183.752 330.173 183.727 330.16C183.702 330.147 183.679 330.129 183.661 330.107C183.643 330.085 183.629 330.059 183.621 330.032C183.612 330.005 183.609 329.976 183.612 329.948C183.615 329.92 183.623 329.892 183.636 329.867C183.649 329.842 183.667 329.819 183.689 329.801C183.711 329.783 183.737 329.769 183.764 329.761C183.791 329.752 183.82 329.749 183.848 329.752Z" fill="#263238"/>
<path d="M222.592 332.224C226.496 332.104 226.688 338.168 222.776 338.288C218.864 338.408 218.688 332.344 222.592 332.224Z" fill="#263238"/>
<path d="M188.176 322.28C190.136 324.64 193.04 326.072 195.576 327.696C195.635 327.727 195.7 327.744 195.767 327.746C195.833 327.747 195.899 327.733 195.959 327.704C196.019 327.675 196.071 327.633 196.112 327.58C196.152 327.527 196.18 327.465 196.192 327.4C196.248 327.4 196.304 327.4 196.296 327.296C195.937 324.11 194.745 321.075 192.84 318.496C191.704 317.016 189.44 315.664 187.728 317.184C186.016 318.704 187.04 320.904 188.176 322.28ZM187.92 319.408C188.144 315.616 191.648 318.408 192.44 319.528C192.941 320.265 193.393 321.035 193.792 321.832C194.64 323.432 195.24 325.208 195.92 326.92C194.728 326.04 193.464 325.272 192.24 324.44C190.784 323.456 187.8 321.504 187.92 319.408Z" fill="#263238"/>
<path d="M208.56 324.664C208.216 322.408 205.608 322 203.76 322.416C200.654 323.184 197.805 324.754 195.496 326.968C195.484 326.976 195.475 326.987 195.469 326.999C195.462 327.012 195.459 327.026 195.459 327.04C195.459 327.054 195.462 327.068 195.469 327.081C195.475 327.093 195.484 327.104 195.496 327.112C195.461 327.17 195.441 327.236 195.437 327.303C195.433 327.371 195.445 327.438 195.473 327.5C195.5 327.562 195.542 327.617 195.595 327.659C195.648 327.701 195.71 327.731 195.776 327.744C198.76 328.104 201.912 328.864 204.92 328.296C206.728 328 208.888 326.8 208.56 324.664ZM200.464 327.36C198.992 327.224 197.536 327.008 196.056 326.92C197.64 325.986 199.272 325.134 200.944 324.368C201.755 324.004 202.592 323.699 203.448 323.456C204.776 323.096 209.256 323.184 207.008 326.248C205.76 327.936 202.224 327.536 200.464 327.36Z" fill="#263238"/>
<path d="M192.344 322.272H232.512C232.512 322.272 225.36 267.592 227.712 264.024C228.76 262.424 280.904 267.68 296.16 251.16C310.104 236.048 295.912 207.744 295.912 207.744H253.112C253.112 207.744 252.24 219.88 249.912 224.728C248.928 226.808 201.112 223.84 193.624 237.528C183.672 255.76 192.344 322.272 192.344 322.272Z" fill="#37474F"/>
<path d="M228.28 314.632C223.744 314.496 219.2 314.32 214.68 314.328C210.16 314.336 205.584 314.424 201.032 314.6C199.752 314.656 195.96 314.832 195.352 314.88C194.731 314.893 194.111 314.946 193.496 315.04C193.424 315.04 193.44 315.152 193.496 315.16C194.48 315.328 204.76 315.448 207.016 315.448C211.536 315.448 216.048 315.328 220.568 315.168C223.139 315.083 225.707 314.987 228.272 314.88C228.408 314.872 228.424 314.64 228.28 314.632Z" fill="#263238"/>
<path d="M254.88 220.848C255.064 219.56 255.232 218.272 255.384 216.992C255.728 214.056 256.032 211.096 256.12 208.144C256.12 207.912 255.8 207.936 255.776 208.144C255.496 210.424 255.288 212.712 255.032 214.992C254.776 217.272 254.576 219.552 254.152 221.792C254.024 222.464 253.736 223.592 252.88 223.608C251.72 223.608 251.496 222.056 251.4 221.208C251.183 219.082 251.143 216.941 251.28 214.808C251.408 212.408 251.712 209.96 251.984 207.552C251.984 207.464 251.848 207.448 251.832 207.552C250.832 212.248 249.872 217.152 250.704 221.952C250.733 222.435 250.893 222.901 251.166 223.299C251.439 223.698 251.816 224.015 252.256 224.216H252.304C252.303 224.243 252.303 224.269 252.304 224.296C252.304 224.432 252.304 224.568 252.304 224.704C252.296 224.819 252.296 224.934 252.304 225.048C252.304 225.288 252.304 225.52 252.304 225.76C252.304 225.807 252.323 225.852 252.356 225.885C252.389 225.918 252.433 225.936 252.48 225.936C252.527 225.936 252.571 225.918 252.604 225.885C252.637 225.852 252.656 225.807 252.656 225.76C252.686 225.755 252.714 225.741 252.736 225.72C252.757 225.698 252.771 225.67 252.776 225.64C252.864 225.18 252.864 224.708 252.776 224.248C253.062 224.248 253.343 224.174 253.592 224.034C253.842 223.894 254.051 223.692 254.2 223.448C254.62 222.644 254.852 221.755 254.88 220.848Z" fill="#263238"/>
<path d="M250.624 224.32C253.908 226.573 256.989 229.108 259.832 231.896C259.857 231.916 259.874 231.946 259.878 231.978C259.881 232.01 259.872 232.043 259.852 232.068C259.832 232.094 259.802 232.11 259.77 232.114C259.738 232.117 259.705 232.108 259.68 232.088C256.544 229.688 253.28 227.288 250.328 224.696C250.284 224.655 250.256 224.599 250.251 224.539C250.247 224.478 250.265 224.419 250.302 224.371C250.34 224.324 250.393 224.292 250.453 224.283C250.513 224.273 250.574 224.287 250.624 224.32Z" fill="#263238"/>
<path d="M285.808 226.648C284.881 226.651 283.956 226.581 283.04 226.44C282.229 226.278 281.428 226.072 280.64 225.824C279.16 225.392 277.352 224.872 276.272 223.696C275.224 222.413 274.387 220.971 273.792 219.424C273.045 217.808 272.554 216.086 272.336 214.32C272.336 214.248 272.2 214.248 272.208 214.32C272.323 216.147 272.629 217.957 273.12 219.72C273.388 220.596 273.725 221.449 274.128 222.272C274.49 223.101 274.972 223.872 275.56 224.56C276.76 225.848 278.712 226.48 280.36 226.816C282.161 227.144 284.007 227.144 285.808 226.816C285.96 226.832 285.92 226.656 285.808 226.648Z" fill="#263238"/>
<path d="M223.408 261.432C223.503 260.956 223.743 260.521 224.095 260.187C224.448 259.853 224.895 259.637 225.376 259.568C226.529 259.44 227.691 259.416 228.848 259.496C231.52 259.496 234.2 259.552 236.848 259.56C247.392 259.56 258.024 259.288 268.392 257.208C273.468 256.259 278.431 254.782 283.2 252.8C287.2 251.056 291.24 248.672 293.752 244.968C296.64 240.712 296.864 235.136 296.76 230.152C296.657 224.771 295.789 219.433 294.184 214.296C293.768 212.992 293.312 211.704 292.792 210.44C292.792 210.36 292.88 210.288 292.912 210.368C295.018 215.22 296.414 220.35 297.056 225.6C297.369 228.193 297.487 230.806 297.408 233.416C297.406 235.978 297.075 238.53 296.424 241.008C293.688 250.336 283.24 254.184 274.824 256.552C264.648 259.408 254.024 260.2 243.52 260.352C238.24 260.432 232.944 260.352 227.656 260.28C226.648 260.28 224.984 259.984 224.384 261.04C224.119 261.651 223.959 262.303 223.912 262.968C223.8 263.712 223.712 264.456 223.656 265.208C223.509 268.021 223.547 270.84 223.768 273.648C224.104 279.349 224.499 285.053 224.952 290.76C225.408 296.488 226.048 302.208 226.464 307.944C226.568 309.352 226.704 310.752 226.84 312.152C226.84 312.312 226.576 312.344 226.552 312.152C225.088 300.816 224.04 289.44 223.296 278.04C223.112 275.224 222.904 272.4 222.824 269.584C222.651 266.853 222.848 264.111 223.408 261.432Z" fill="#263238"/>
<path d="M249.128 263.528C252.696 263.479 256.257 263.212 259.792 262.728C263.128 262.312 266.448 261.856 269.76 261.296C275.52 260.312 281.408 259.232 286.84 257.04C289.823 255.89 292.602 254.269 295.072 252.24C295.136 252.184 295.232 252.28 295.168 252.336C291.056 256.336 285.84 258.68 280.352 260.168C274.054 261.811 267.633 262.937 261.152 263.536C257.143 263.885 253.118 264.003 249.096 263.888C249.066 263.867 249.042 263.839 249.026 263.805C249.011 263.772 249.004 263.735 249.007 263.699C249.011 263.662 249.024 263.627 249.045 263.597C249.066 263.567 249.095 263.543 249.128 263.528Z" fill="#263238"/>
<path d="M261.6 159.456C261.72 172.6 258.152 192.544 253.232 202.208C249.712 209.112 228.76 222.696 217.632 225.752C213.696 226.84 211.736 210.48 213.632 206.472C214.784 204.072 235.72 192.448 237.864 189.248C241.12 184.376 247.72 170.552 252.6 158.736C255.2 152.504 261.504 151.288 261.6 159.456Z" fill="#C95F50"/>
<path d="M220.52 202.744C220.52 202.744 214.352 202 211.576 202.272C208.8 202.544 198.776 207.368 199.72 209.584C200.912 212.448 207.224 210.8 210.216 209.584C210.216 209.584 212.952 216.208 217.744 215.984C222.536 215.76 220.52 202.744 220.52 202.744Z" fill="#C95F50"/>
<path d="M221.264 224.368C219.088 225.344 208.736 228.92 205.632 229.272C202.528 229.624 193.52 229.992 193.008 227.672C192.496 225.352 195.12 225.008 195.12 225.008C195.12 225.008 191.296 224.56 191 222.144C190.704 219.728 194.8 219.368 194.8 219.368C194.8 219.368 190.904 218.624 190.8 216.168C190.696 213.712 194.864 214.064 194.864 214.064C194.864 214.064 191.272 213.552 192.008 211.504C192.896 209.048 199.416 210.752 202.816 210.104C203.616 209.952 218.248 206.016 218.248 206.016L221.264 224.368Z" fill="#C95F50"/>
<path d="M194.48 214.048C199.28 215.288 201.592 215 206.24 213.504C206.336 213.504 206.4 213.608 206.304 213.648C201.888 215.52 199.04 216.296 194.408 214.272C194.184 214.176 194.256 213.984 194.48 214.048Z" fill="#263238"/>
<path d="M194.4 219.2C199.496 220.056 202.008 219.768 206.992 218.56C207.064 218.56 207.096 218.664 206.992 218.688C202.192 220.288 199.344 220.984 194.368 219.488C194.192 219.432 194.192 219.2 194.4 219.2Z" fill="#263238"/>
<path d="M195.376 224.904C200.368 225.376 203.136 225.176 207.824 223.384C207.936 223.344 208.008 223.504 207.904 223.552C203.296 225.84 199.848 226.12 195.376 225.056C195.072 224.984 195.064 224.872 195.376 224.904Z" fill="#263238"/>
<path d="M200.304 210.264C203.272 212.096 207.088 210.264 210.08 209.288C210.123 209.273 210.17 209.268 210.216 209.274C210.261 209.281 210.305 209.298 210.342 209.324C210.38 209.351 210.411 209.386 210.432 209.427C210.453 209.468 210.464 209.514 210.464 209.56C211.8 212.256 214.464 215.68 217.608 216.152C217.627 216.152 217.645 216.16 217.659 216.173C217.672 216.187 217.68 216.205 217.68 216.224C217.68 216.243 217.672 216.261 217.659 216.275C217.645 216.288 217.627 216.296 217.608 216.296C214.168 216.248 211.272 213.096 210 210.048C206.952 211.08 203.04 212.76 200.296 210.288C200.272 210.28 200.288 210.256 200.304 210.264Z" fill="#263238"/>
<path d="M243.84 173.432L260.528 184.456C260.528 184.456 262.744 162.568 261.576 155.952C260.264 148.504 256.776 150.8 252.568 156.656C248.36 162.512 243.84 173.432 243.84 173.432Z" fill="#5D8F5B"/>
<path opacity="0.1" d="M243.84 173.432L260.528 184.456C260.528 184.456 262.744 162.568 261.576 155.952C260.264 148.504 256.776 150.8 252.568 156.656C248.36 162.512 243.84 173.432 243.84 173.432Z" fill="black"/>
<path d="M246.4 170.808C248.72 171.92 255.2 176.24 256.264 176.944C256.832 177.32 259.032 178.896 259.6 179.264C259.672 179.312 259.6 179.416 259.52 179.368C258.432 178.672 257.272 178.08 256.176 177.392C255.08 176.704 248.336 172.544 246.352 170.888C246.32 170.856 246.4 170.776 246.4 170.808Z" fill="#263238"/>
<path d="M302.568 214.152C302.568 214.152 248.728 221.624 248.728 221.632C248.88 222.688 245.88 179.04 256.328 151.672C257.04 149.808 265.24 146.768 269.448 149.688C287.888 162.488 302.664 214.84 302.568 214.152Z" fill="#5D8F5B"/>
<path opacity="0.1" d="M270.72 150.64L255.904 152.8C255.929 152.715 255.961 152.632 256 152.552L270.464 150.416C270.553 150.486 270.639 150.561 270.72 150.64ZM274.8 154.56L254.352 157.6C254.321 157.678 254.297 157.758 254.28 157.84L274.984 154.8L274.8 154.56ZM278.208 158.816L253.024 162.528C253.024 162.608 253.024 162.688 252.968 162.768L278.4 159.032L278.208 158.816ZM281.128 163.144L251.944 167.44L251.896 167.688L281.256 163.36L281.128 163.144ZM283.72 167.52L251.064 172.32C251.064 172.4 251.064 172.48 251.024 172.56L283.824 167.76L283.72 167.52ZM286.12 171.928L250.376 177.192C250.376 177.272 250.376 177.352 250.376 177.432L286.264 172.152C286.168 172.08 286.128 172 286.088 171.928H286.12ZM288.312 176.36L249.8 182.032V182.272L288.44 176.584L288.312 176.36ZM290.36 180.816L249.344 186.856V187.096L290.4 181.04C290.371 180.962 290.347 180.882 290.328 180.8L290.36 180.816ZM292.288 185.288L248.992 191.688C248.992 191.768 248.992 191.848 248.992 191.928L292.392 185.528C292.32 185.44 292.288 185.368 292.256 185.288H292.288ZM294.12 189.776L248.736 196.456C248.736 196.536 248.736 196.608 248.736 196.688L294.224 189.992C294.144 189.92 294.112 189.848 294.088 189.776H294.12ZM295.856 194.28L248.568 201.24C248.564 201.317 248.564 201.395 248.568 201.472L295.936 194.496L295.856 194.28ZM297.512 198.792L248.488 205.992C248.48 206.069 248.48 206.147 248.488 206.224L297.592 199.024C297.528 198.936 297.504 198.864 297.48 198.792H297.512ZM299.112 203.312L248.496 210.768V210.992L299.184 203.536L299.112 203.312ZM300.624 207.84L248.568 215.504C248.568 215.584 248.568 215.664 248.568 215.744L300.688 208.072L300.624 207.84ZM302.064 212.392L248.728 220.24C248.728 220.32 248.728 220.4 248.728 220.472L302.12 212.616C302.064 212.544 302.04 212.464 302.016 212.392H302.064Z" fill="black"/>
<path opacity="0.1" d="M261.128 168.72L269.6 167.52C269.6 167.52 271.2 176.216 271.2 176.456C271.2 176.696 267.128 180 266.76 179.864C266.392 179.728 262.384 178.616 262.256 178.368C262.128 178.12 261.128 168.72 261.128 168.72Z" fill="black"/>
<path d="M248.68 183.76H196.256V241.808H248.68V183.76Z" fill="#5D8F5B"/>
<path opacity="0.1" d="M248.68 183.76H196.256V241.808H248.68V183.76Z" fill="black"/>
<path d="M169.192 241.808H196.256V183.76H169.192V241.808Z" fill="#5D8F5B"/>
<path d="M218.024 196.304H219.128H219.96L220.44 195.336L221.104 196.304L222.016 194.32L222.872 196.304H225.32H226.448L226.848 194.976L227.232 196.304H227.96V183.76H218.024V196.304Z" fill="white"/>
<g opacity="0.1">
<path d="M171.056 237.808C173.067 233.68 175.053 229.541 177.016 225.392L182.888 212.904L188.688 200.36C190.608 196.179 192.509 191.979 194.392 187.76C192.392 191.888 190.405 196.029 188.432 200.184L182.56 212.664L176.8 225.208C174.853 229.395 172.939 233.595 171.056 237.808Z" fill="black"/>
<path d="M171.056 187.76C172.944 191.979 174.848 196.179 176.768 200.36L182.56 212.904L188.432 225.392C190.4 229.541 192.387 233.68 194.392 237.808C192.509 233.6 190.608 229.4 188.688 225.208L182.888 212.664L177.016 200.184C175.048 196.024 173.061 191.883 171.056 187.76Z" fill="black"/>
</g>
<path d="M257.384 196.312H204.968L196.264 183.752H248.68L257.384 196.312Z" fill="#5D8F5B"/>
<g opacity="0.2">
<path d="M257.384 196.312H204.968L196.264 183.752H248.68L257.384 196.312Z" fill="black"/>
</g>
<path d="M187.568 196.32H160.576L169.28 183.76H196.264L187.568 196.32Z" fill="#5D8F5B"/>
<path opacity="0.1" d="M187.568 196.32H160.576L169.28 183.76H196.264L187.568 196.32Z" fill="black"/>
<path d="M259.112 158.704C261.76 158.952 266.68 155.184 268 151.272C268.088 151 267.256 148.488 266.4 145.384C265.88 143.496 265.344 141.384 265 139.424C264.928 139.024 253.232 144.608 253.232 144.608C254.368 146.937 255.217 149.395 255.76 151.928C255.801 152.193 255.82 152.46 255.816 152.728C255.812 152.773 255.812 152.819 255.816 152.864C255.832 154.456 256.28 158.4 259.112 158.704Z" fill="#C95F50"/>
<path d="M255.8 152.744C255.796 152.789 255.796 152.835 255.8 152.88C256.227 152.858 256.653 152.805 257.072 152.72C264.272 151.272 264.576 141.872 264.536 139.512C262.408 140.208 253.208 144.608 253.208 144.608C254.344 146.937 255.193 149.395 255.736 151.928C255.781 152.198 255.802 152.471 255.8 152.744Z" fill="#263238"/>
<path d="M264.544 123.752C266.52 127.944 266.048 140.944 263.344 144.216C259.416 148.968 252.072 150.44 247.808 145.512C243.664 140.712 244.608 123.8 247.696 120.712C252.272 116.208 261.6 117.6 264.544 123.752Z" fill="#C95F50"/>
<path d="M253.296 133.128C253.296 133.128 253.36 133.176 253.36 133.208C253.304 134.088 253.36 135.096 254.16 135.416V135.464C253.2 135.296 253.104 133.952 253.296 133.128Z" fill="#263238"/>
<path d="M254.104 132.24C255.52 132.176 255.536 135.008 254.232 135.064C252.928 135.12 252.92 132.296 254.104 132.24Z" fill="#263238"/>
<path d="M248.224 133.312C248.224 133.312 248.152 133.352 248.152 133.392C248.192 134.264 248.08 135.272 247.288 135.568V135.624C248.264 135.48 248.392 134.136 248.224 133.312Z" fill="#263238"/>
<path d="M247.432 132.4C246.024 132.304 245.936 135.136 247.24 135.224C248.544 135.312 248.616 132.48 247.432 132.4Z" fill="#263238"/>
<path d="M255.2 130.936C254.827 130.834 254.461 130.708 254.104 130.56C253.699 130.479 253.331 130.268 253.056 129.96C252.99 129.846 252.963 129.714 252.981 129.584C252.998 129.453 253.058 129.332 253.152 129.24C253.361 129.08 253.611 128.98 253.873 128.95C254.135 128.921 254.4 128.963 254.64 129.072C255.164 129.215 255.615 129.549 255.904 130.008C255.966 130.116 255.995 130.239 255.987 130.364C255.979 130.488 255.935 130.607 255.86 130.706C255.785 130.805 255.682 130.879 255.565 130.92C255.447 130.961 255.32 130.967 255.2 130.936Z" fill="#263238"/>
<path d="M246.328 130.984C246.706 130.906 247.08 130.807 247.448 130.688C247.859 130.636 248.241 130.451 248.536 130.16C248.61 130.051 248.646 129.921 248.639 129.789C248.632 129.658 248.582 129.532 248.496 129.432C248.296 129.259 248.053 129.143 247.792 129.097C247.532 129.05 247.264 129.075 247.016 129.168C246.491 129.259 246.02 129.545 245.696 129.968C245.612 130.07 245.563 130.196 245.554 130.327C245.546 130.459 245.579 130.59 245.648 130.702C245.718 130.814 245.821 130.902 245.943 130.952C246.065 131.003 246.199 131.014 246.328 130.984Z" fill="#263238"/>
<path d="M254.168 141.256C253.96 141.464 253.752 141.744 253.432 141.776C253.105 141.776 252.782 141.702 252.488 141.56C252.488 141.56 252.432 141.56 252.448 141.608C252.575 141.78 252.746 141.915 252.943 141.998C253.14 142.081 253.356 142.109 253.568 142.08C253.748 142.03 253.909 141.927 254.031 141.784C254.152 141.642 254.228 141.466 254.248 141.28C254.264 141.248 254.192 141.224 254.168 141.256Z" fill="#263238"/>
<path d="M250.568 139.696C250.942 140.182 251.435 140.562 252 140.8C252.31 140.915 252.647 140.935 252.968 140.856C253.664 140.664 253.68 140.056 253.544 139.472C253.469 139.194 253.361 138.925 253.224 138.672C252.47 139.288 251.54 139.646 250.568 139.696Z" fill="#263238"/>
<path d="M252 140.8C252.31 140.915 252.647 140.935 252.968 140.856C253.664 140.664 253.68 140.056 253.544 139.472C253.175 139.488 252.822 139.628 252.542 139.869C252.262 140.11 252.071 140.438 252 140.8Z" fill="#FF99BA"/>
<path d="M245.856 125.04C246.328 123.92 246.872 122.8 247.536 122.576C248.2 122.352 248.664 123.976 250.184 124.064C252.24 124.184 253.216 122.288 256.088 122.056C260.216 121.736 262.064 125.168 262.216 131.024C262.352 136.256 265.52 136.72 265.52 136.72C265.52 136.72 267.336 125.168 264.048 121.376C260.76 117.584 253.28 115.96 248.304 119.656C246.488 121 245.856 125.04 245.856 125.04Z" fill="#263238"/>
<path d="M262.864 134.68C262.864 134.68 265.224 130.216 267.216 131.008C269.208 131.8 267.792 138.024 265.704 139.112C265.448 139.271 265.162 139.376 264.864 139.422C264.566 139.467 264.262 139.452 263.97 139.378C263.678 139.303 263.404 139.17 263.164 138.987C262.925 138.804 262.725 138.574 262.576 138.312L262.864 134.68Z" fill="#C95F50"/>
<path d="M266.76 132.8V132.856C265.304 133.656 264.672 135.192 264.288 136.736C264.358 136.571 264.463 136.423 264.596 136.302C264.728 136.181 264.886 136.091 265.057 136.037C265.228 135.983 265.409 135.966 265.587 135.989C265.765 136.012 265.936 136.073 266.088 136.168C266.097 136.172 266.104 136.178 266.109 136.186C266.114 136.194 266.117 136.203 266.117 136.212C266.117 136.221 266.114 136.231 266.109 136.238C266.104 136.246 266.097 136.252 266.088 136.256C265.807 136.204 265.516 136.24 265.257 136.361C264.997 136.481 264.782 136.679 264.64 136.928C264.405 137.342 264.215 137.779 264.072 138.232C264.016 138.376 263.76 138.336 263.792 138.176C263.512 136.168 264.688 133.24 266.76 132.8Z" fill="#263238"/>
<path d="M276.6 159.768C281.96 171.704 293.816 196.168 290.768 205.368C286.768 217.448 265.832 230.768 260.416 234.504C258.056 236.104 246.312 221.072 247.032 218.096C247.752 215.12 269.76 197.688 270.944 195.696C272.128 193.704 267.152 173.896 266.312 162.816C265.24 148.872 272.056 149.664 276.6 159.768Z" fill="#C95F50"/>
<path d="M241.6 226.168C242.24 224.856 241.552 224.512 239.2 225.648C236.848 226.784 228.576 233.264 226.56 230.184C224.544 227.104 236.368 218.128 240.408 216.536C244.448 214.944 251.528 213.776 251.528 213.776C249.6 216 245.384 221.792 241.6 226.168Z" fill="#C95F50"/>
<path d="M266.144 229.832C260.416 235.856 253.664 243.696 244.656 246.272C243.661 246.583 242.591 246.552 241.616 246.184C237.616 247.408 235.816 245.88 235.816 245.88C231.72 245.88 230.112 244.064 230.112 244.064C230.112 244.064 225.376 245.456 224.064 242.736C222.584 239.688 229.52 238.328 232.864 235.256C240.56 228.2 249.528 216.056 251.544 213.776L266.144 229.832Z" fill="#C95F50"/>
<path d="M246.136 233.536C243.906 235.621 241.538 237.553 239.048 239.32C236.203 241.087 233.229 242.638 230.152 243.96C230.056 244 230.112 244.136 230.216 244.112C236.408 242.148 241.942 238.523 246.216 233.632C246.328 233.52 246.248 233.432 246.136 233.536Z" fill="#263238"/>
<path d="M251.064 237.6C248.712 239.448 244.552 242.672 235.776 245.832C235.776 245.832 235.776 245.888 235.776 245.88C241.555 244.636 246.873 241.807 251.136 237.712C251.288 237.544 251.2 237.432 251.064 237.6Z" fill="#263238"/>
<path d="M253.672 239.768C249.552 242.768 246.576 244.136 241.672 246.168C241.672 246.168 241.672 246.232 241.672 246.224C247.528 244.52 249.464 243.232 253.824 239.912C253.944 239.784 253.832 239.656 253.672 239.768Z" fill="#263238"/>
<path d="M267.2 178.08L287.2 179.04C287.2 179.04 277.944 159.088 273.6 153.992C268.672 148.248 266.816 152.024 266.208 159.192C265.6 166.36 267.2 178.08 267.2 178.08Z" fill="#5D8F5B"/>
<path opacity="0.1" d="M267.2 178.08L287.2 179.04C287.2 179.04 277.944 159.088 273.6 153.992C268.672 148.248 266.816 152.024 266.208 159.192C265.6 166.36 267.2 178.08 267.2 178.08Z" fill="black"/>
<path d="M268.104 174.496C270.664 174.272 278.432 174.696 279.72 174.752C280.392 174.752 283.096 175.016 283.768 175.04C283.856 175.04 283.832 175.176 283.768 175.176C282.472 175.128 281.176 175.216 279.88 175.176C278.584 175.136 270.672 175 268.112 174.592C268.103 174.588 268.096 174.581 268.09 174.573C268.085 174.565 268.081 174.556 268.081 174.546C268.08 174.537 268.082 174.527 268.086 174.518C268.09 174.509 268.096 174.502 268.104 174.496Z" fill="#263238"/>
<path d="M278.264 161.48C278.224 161.4 278.352 161.344 278.392 161.424C279.368 163.024 280.304 164.624 281.208 166.28C280.942 165.336 280.591 164.417 280.16 163.536C280.16 163.536 280.2 163.472 280.224 163.536C280.76 164.547 281.163 165.622 281.424 166.736C282.056 167.88 282.672 169.024 283.28 170.184C284.816 173.112 286.4 176.04 287.768 179.064C287.783 179.101 287.789 179.141 287.784 179.18C287.779 179.219 287.765 179.257 287.741 179.289C287.718 179.321 287.687 179.347 287.651 179.363C287.615 179.38 287.576 179.387 287.536 179.384C286.84 179.328 286.152 179.248 285.464 179.152C285.392 179.152 285.384 179.024 285.464 179.016C286.04 178.968 286.608 178.96 287.184 178.944C285.584 176.152 284.2 173.272 282.72 170.432C281.24 167.592 279.68 164.48 278.264 161.48Z" fill="#263238"/>
<path d="M266 169.6C265.792 168.568 265.576 167.536 265.4 166.496C265.584 167.248 265.752 168.008 265.92 168.768C265.832 167.216 265.776 165.672 265.792 164.128H265.832C266.152 166.448 266.344 168.792 266.632 171.12C266.92 173.448 267.12 175.696 267.336 177.984C267.784 178.08 268.24 178.16 268.696 178.24C268.71 178.245 268.722 178.254 268.731 178.266C268.74 178.279 268.744 178.293 268.744 178.308C268.744 178.323 268.74 178.338 268.731 178.35C268.722 178.362 268.71 178.371 268.696 178.376C268.192 178.376 267.688 178.376 267.184 178.376C267.126 178.385 267.066 178.371 267.018 178.337C266.97 178.302 266.938 178.25 266.928 178.192C266.512 175.336 266.192 172.464 266 169.6Z" fill="#263238"/>
<path d="M186.312 282.096H110.656V344.6H186.312V282.096Z" fill="#5D8F5B"/>
<path d="M216.28 282.096H186.304V344.608H216.28V282.096Z" fill="#5D8F5B"/>
<path opacity="0.1" d="M216.28 282.096H186.304V344.608H216.28V282.096Z" fill="black"/>
<path d="M214.216 340.304C212.003 335.856 209.803 331.395 207.616 326.92L201.112 313.48L194.712 299.976C192.579 295.464 190.472 290.931 188.392 286.376C190.611 290.824 192.811 295.285 194.992 299.76L201.488 313.2L207.888 326.704C210.021 331.232 212.131 335.765 214.216 340.304Z" fill="#5D8F5B"/>
<path d="M214.216 286.4C212.131 290.944 210.024 295.477 207.896 300L201.496 313.504L195 326.944C192.819 331.424 190.619 335.885 188.4 340.328C190.48 335.784 192.587 331.251 194.72 326.728L201.12 313.224L207.624 299.784C209.805 295.304 212.003 290.843 214.216 286.4Z" fill="#5D8F5B"/>
<path d="M153.832 295.608H152.64H151.736L151.224 294.56L150.504 295.608L149.536 293.464L148.608 295.608H145.968H144.76L144.328 294.176L143.912 295.608H143.128V282.096H153.832V295.608Z" fill="white"/>
<path d="M260.2 282.096H203.76V344.6H260.2V282.096Z" fill="#5D8F5B"/>
<path d="M289.344 282.096H260.2V344.6H289.344V282.096Z" fill="#5D8F5B"/>
<path opacity="0.1" d="M289.344 282.096H260.2V344.6H289.344V282.096Z" fill="black"/>
<g opacity="0.1">
<path d="M256.064 340.296C251.92 335.853 247.813 331.395 243.744 326.92L231.6 313.48L219.6 299.976C215.616 295.464 211.68 290.931 207.792 286.376C211.936 290.824 216.043 295.283 220.112 299.752L232.256 313.2L244.256 326.704C248.235 331.227 252.171 335.757 256.064 340.296Z" fill="black"/>
<path d="M256.064 286.4C252.165 290.944 248.229 295.477 244.256 300L232.256 313.504L220.112 326.944C216.048 331.419 211.941 335.877 207.792 340.32C211.691 335.787 215.627 331.253 219.6 326.72L231.6 313.216L243.744 299.768C247.808 295.304 251.915 290.848 256.064 286.4Z" fill="black"/>
</g>
<path d="M285.24 334.024H280.136V341.232H285.24V334.024Z" fill="white"/>
<path d="M187.704 241.672H123.264V282.088H187.704V241.672Z" fill="#5D8F5B"/>
<path opacity="0.1" d="M187.704 241.672H123.264V282.088H187.704V241.672Z" fill="black"/>
<path d="M216.856 241.68H187.712V282.104H216.856V241.68Z" fill="#5D8F5B"/>
<path opacity="0.2" d="M216.856 241.68H187.712V282.104H216.856V241.68Z" fill="black"/>
<path d="M214.848 279.712C212.688 276.939 210.555 274.149 208.448 271.344L202.12 262.928L195.88 254.48C193.805 251.653 191.757 248.821 189.736 245.984C191.869 248.768 194.003 251.557 196.136 254.352L202.456 262.768L208.696 271.224C210.771 274.04 212.821 276.869 214.848 279.712Z" fill="#5D8F5B"/>
<path d="M214.848 245.984C212.816 248.821 210.765 251.653 208.696 254.48L202.456 262.928L196.136 271.344C194.003 274.144 191.869 276.933 189.736 279.712C191.757 276.869 193.805 274.04 195.88 271.224L202.12 262.768L208.448 254.352C210.549 251.552 212.683 248.763 214.848 245.984Z" fill="#5D8F5B"/>
<path d="M74.752 85.456C71.824 84.944 64.456 87.344 62.136 91.328C59.816 95.312 60.304 101.6 61.6 102.112C62.896 102.624 68.408 101.952 72.104 99.712C75.8 97.472 76.2 85.704 74.752 85.456Z" fill="#263238"/>
<path d="M74.76 85.4721C74.856 85.4721 74.864 85.2801 74.76 85.2881C72.216 85.3361 69.536 86.3121 67.152 87.1201C65.1678 87.6631 63.3198 88.617 61.728 89.9201C60.9905 90.5831 60.4065 91.399 60.0169 92.3109C59.6272 93.2229 59.4413 94.2089 59.472 95.2001C59.4285 97.5936 59.9957 99.9586 61.12 102.072C61.12 102.128 61.264 102.072 61.24 102.072C59.888 97.8961 58.632 92.7761 62.704 89.7041C66.16 87.0241 70.712 86.5361 74.76 85.4721Z" fill="#263238"/>
<path d="M61.984 100.992C59.464 101.432 53.088 106.592 52.192 111.392C51.296 116.192 55.536 123.216 56.8 123.68C58.064 124.144 63.464 119.272 65.144 115.792C66.264 113.472 65.144 110.864 64.512 108.264C63.52 104.448 62.4 100.928 61.984 100.992Z" fill="#263238"/>
<path d="M66.632 115.152C67.168 110.2 64.168 105.464 62.296 101.096C62.296 101.048 62.2 101.096 62.216 101.096C63.328 105.312 66.064 109.024 66.336 113.472C66.4718 114.773 66.2926 116.087 65.8136 117.304C65.3347 118.521 64.5699 119.605 63.584 120.464C61.752 121.952 59.416 122.704 57.256 123.576C57.12 123.632 57.256 123.84 57.36 123.792C61.664 122.2 66.08 120.256 66.632 115.152Z" fill="#263238"/>
<path d="M61.456 101.472C61.4785 101.457 61.4948 101.434 61.502 101.408C61.5092 101.382 61.5067 101.355 61.495 101.33C61.4833 101.306 61.4632 101.287 61.4384 101.276C61.4136 101.265 61.3857 101.264 61.36 101.272C57.832 103.144 53.6 105.824 51.832 109.568C49.912 113.616 52.192 117.664 54.232 121.152H54.304C52.304 117.608 50.168 113.152 52.376 109.232C54.256 105.792 58.128 103.288 61.456 101.472Z" fill="#263238"/>
<path d="M57.256 123.072C59 123.872 61.632 126.6 62.4 129.968C63.696 135.728 65.824 134.456 72.264 135.64C77.704 136.632 79.192 142.576 76.504 145.712C76.504 145.712 77.952 141.912 74.232 140.304C69.784 138.384 60.152 143.504 54.872 137.672C48.04 130.136 57.256 123.072 57.256 123.072Z" fill="#263238"/>
<path d="M59.696 125.6C59.624 125.52 59.744 125.392 59.824 125.464C60.5947 126.144 61.2369 126.957 61.72 127.864C62.336 129.064 62.44 130.4 62.96 131.624C64.304 134.744 68.144 134.416 70.96 134.456C74.72 134.504 77.856 136.616 78.32 140.544C78.3232 140.551 78.3245 140.559 78.3238 140.567C78.3232 140.575 78.3205 140.583 78.3162 140.59C78.3118 140.596 78.3058 140.602 78.2988 140.605C78.2918 140.609 78.284 140.611 78.276 140.611C78.268 140.611 78.2602 140.609 78.2532 140.605C78.2462 140.602 78.2402 140.596 78.2359 140.59C78.2315 140.583 78.2288 140.575 78.2282 140.567C78.2275 140.559 78.2288 140.551 78.232 140.544C78.0634 139.348 77.5743 138.22 76.8165 137.279C76.0588 136.338 75.0607 135.62 73.928 135.2C71.68 134.4 69.24 135.032 66.944 134.616C65.344 134.336 63.744 133.76 62.944 132.288C62.5669 131.446 62.2799 130.566 62.088 129.664C61.6542 128.126 60.8303 126.726 59.696 125.6Z" fill="#263238"/>
<path d="M56.312 123.832C56.312 123.832 56.4 123.832 56.368 123.888C54.368 126.104 52.248 128.336 51.816 131.432C51.344 134.76 53.232 137.96 55.936 139.8C58.968 141.864 62.008 140.6 65.216 139.8C67.528 139.208 69.904 138.792 72.248 139.464C72.32 139.464 72.248 139.6 72.248 139.592C68.496 138.944 65.168 140.24 61.568 141.04C60.2315 141.368 58.8296 141.313 57.5234 140.879C56.2172 140.446 55.0597 139.654 54.184 138.592C49.64 133.752 51.888 127.792 56.312 123.832Z" fill="#263238"/>
<path d="M72.416 82.896C71.56 81.904 70.016 83.248 70.896 84.24C71.776 85.232 73.264 83.88 72.416 82.896Z" fill="#5D8F5B"/>
<path d="M73.272 84.5681C72.424 83.5841 70.872 84.9281 71.76 85.9121C72.648 86.8961 74.128 85.6001 73.272 84.5681Z" fill="#5D8F5B"/>
<path d="M74.4 86.0881C73.544 85.1041 72 86.4401 72.88 87.4321C73.76 88.4241 75.272 87.0801 74.4 86.0881Z" fill="#5D8F5B"/>
<path d="M75.72 87.4001C74.872 86.4161 73.32 87.7601 74.208 88.7441C75.096 89.7281 76.576 88.3921 75.72 87.4001Z" fill="#5D8F5B"/>
<path d="M77.264 88.496C76.408 87.512 74.864 88.856 75.744 89.84C76.624 90.824 78.112 89.488 77.264 88.496Z" fill="#5D8F5B"/>
<path d="M78.912 89.272C78.056 88.288 76.512 89.624 77.392 90.616C78.272 91.608 79.76 90.264 78.912 89.272Z" fill="#5D8F5B"/>
<path d="M141.128 354.608C139.28 355.184 85.272 354.016 83.304 352.704C82.544 352.216 87.176 301.056 87.176 301.056L121.424 301.712L117.528 335.928C117.528 335.928 137.456 345.376 139.472 347.048C141.488 348.72 142.984 354.032 141.128 354.608Z" fill="#D3766A"/>
<path d="M141.136 354.608C139.288 355.184 85.272 354.016 83.304 352.696C83.064 352.552 82.992 347.352 83.856 340.592C93.648 342.232 128.6 347.6 131.328 346C133.224 344.88 131.544 343.136 129.984 342C134.448 344.224 138.616 346.36 139.472 347.08C141.48 348.72 142.976 354.04 141.136 354.608Z" fill="#263238"/>
<path d="M118.496 327.728L84.896 327.256C84.896 327.256 91.552 246.72 91.296 245.168C90.896 243.2 67.04 149.64 67.04 149.64H99.136C99.136 149.64 124.44 236.84 125.352 245.232C126.824 258.8 118.496 327.728 118.496 327.728Z" fill="#37474F"/>
<path d="M87.888 319.664C89.88 319.52 91.888 319.544 93.88 319.52C95.872 319.496 97.88 319.52 99.864 319.52C103.864 319.56 107.864 319.624 111.864 319.736C112.952 319.736 114.04 319.8 115.136 319.848C116.232 319.896 117.464 320.104 118.624 320.144C118.643 320.144 118.661 320.152 118.675 320.165C118.688 320.179 118.696 320.197 118.696 320.216C118.696 320.235 118.688 320.253 118.675 320.267C118.661 320.28 118.643 320.288 118.624 320.288C117.64 320.288 116.664 320.44 115.68 320.472C114.696 320.504 113.648 320.472 112.632 320.472H106.648C102.648 320.472 98.648 320.384 94.688 320.224C92.44 320.128 90.168 320.104 87.928 319.872C87.9004 319.877 87.8719 319.872 87.8486 319.856C87.8253 319.84 87.8093 319.816 87.804 319.788C87.7987 319.76 87.8046 319.732 87.8203 319.709C87.8361 319.685 87.8604 319.669 87.888 319.664Z" fill="#263238"/>
<path d="M74.104 157.2C76.976 167.368 79.6 177.624 82.168 187.872C84.736 198.12 87.304 208.384 89.856 218.64C91.136 223.776 92.4133 228.907 93.688 234.032C94.928 239.024 96.376 244.048 96.68 249.232C96.984 254.416 96.328 259.768 95.88 264.992C95.432 270.216 95 275.488 94.536 280.744C93.616 291.24 92.736 301.752 91.592 312.232C91.456 313.544 91.312 314.856 91.176 316.168C91.176 316.28 90.992 316.28 91 316.168C91.696 305.656 92.424 295.152 93.264 284.656C93.68 279.403 94.1067 274.152 94.544 268.904C94.976 263.664 95.584 258.4 95.752 253.144C95.92 247.888 94.952 242.744 93.672 237.64C92.392 232.536 91.152 227.6 89.896 222.576C87.3253 212.331 84.7653 202.075 82.216 191.808C79.368 180.32 76.52 168.816 74.008 157.248C74.0048 157.242 74.003 157.235 74.0025 157.228C74.002 157.221 74.0028 157.214 74.0051 157.207C74.0073 157.2 74.0108 157.194 74.0154 157.189C74.0201 157.184 74.0257 157.179 74.032 157.176C74.0383 157.173 74.0451 157.171 74.0522 157.171C74.0592 157.17 74.0663 157.171 74.0729 157.173C74.0796 157.175 74.0858 157.179 74.0911 157.184C74.0965 157.188 74.1008 157.194 74.104 157.2Z" fill="#263238"/>
<path d="M67.04 149.648C67.04 149.648 77.28 189.776 84.44 218.024L98.096 149.648H67.04Z" fill="#263238"/>
<path d="M100.8 354.728C98.952 355.312 44.944 354.144 42.976 352.824C42.216 352.336 45.032 301.152 45.032 301.152L78.832 301.808L77.232 336.056C77.232 336.056 97.16 345.496 99.176 347.176C101.192 348.856 102.648 354.16 100.8 354.728Z" fill="#D3766A"/>
<path d="M100.8 354.728C98.952 355.304 44.944 354.144 42.976 352.824C42.736 352.672 42.792 347.616 42.976 340.712C52.768 342.352 88.264 347.728 90.976 346.12C92.872 345.008 91.2 343.264 89.64 342.12C94.104 344.344 98.272 346.488 99.128 347.208C101.144 348.84 102.648 354.16 100.8 354.728Z" fill="#263238"/>
<path d="M98.096 149.6C98.096 149.6 97.16 164.944 93.496 177.064C93.2 178.064 92.88 179.048 92.544 179.992C89.3046 181.251 86.1875 182.804 83.232 184.632C83.232 184.632 80.92 243.32 80.96 246.968C81.112 260.64 77.6 327.056 77.6 327.056L43.688 326.728C43.688 326.728 47.208 251.624 47.224 246.632C47.224 238.632 54.336 149.64 54.336 149.64L98.096 149.6Z" fill="#37474F"/>
<path d="M90.688 170.24L91.072 167.696C91.312 166.096 91.632 164.592 91.872 163.04C92.488 159.528 93.136 156 93.912 152.512C93.912 152.432 94.08 152.448 94.064 152.512C93.928 153.92 93.768 155.328 93.568 156.728C93.368 158.128 93.232 159.536 93.032 160.936C92.64 163.712 92.232 166.536 91.784 169.264C91.6 170.328 90.936 172.24 92.472 172.568C93.68 172.832 94.576 171.64 94.928 170.64C95.3023 169.385 95.57 168.1 95.728 166.8C95.984 165.4 96.2 163.992 96.4 162.584C96.832 159.512 97.312 156.448 97.808 153.392C97.808 153.304 97.968 153.328 97.96 153.392C97.8932 156.538 97.6663 159.678 97.28 162.8C97.08 164.296 96.864 165.784 96.608 167.272C96.4549 168.699 96.1077 170.099 95.576 171.432C95.3601 171.959 95.0143 172.422 94.5708 172.779C94.1273 173.135 93.6007 173.374 93.04 173.472H92.968C92.9828 173.481 92.9949 173.495 93.0033 173.51C93.0117 173.525 93.0161 173.543 93.016 173.56C93.016 174.064 93.016 174.568 92.96 175.064C92.904 175.56 92.808 176.04 92.712 176.528C92.6225 177.025 92.4969 177.514 92.336 177.992C92.248 178.216 92.168 178.44 92.064 178.664C91.96 178.888 91.8 179.064 91.664 179.28C91.616 179.368 91.512 179.28 91.504 179.224C91.504 179.144 91.504 179.064 91.504 178.984C91.4961 178.84 91.4961 178.696 91.504 178.552C91.5397 178.312 91.5877 178.075 91.648 177.84C91.752 177.368 91.88 176.896 92.008 176.424C92.136 175.952 92.232 175.488 92.352 175.016C92.472 174.544 92.64 174.064 92.752 173.576C92.752 173.576 92.752 173.576 92.752 173.528C92.3002 173.55 91.8526 173.432 91.4693 173.192C91.0861 172.952 90.7855 172.6 90.608 172.184C90.4702 171.54 90.4977 170.871 90.688 170.24Z" fill="#263238"/>
<path d="M80.488 185.832C81.5038 185.056 82.5731 184.353 83.688 183.728C84.858 183.018 86.074 182.388 87.328 181.84C89.776 180.776 92.304 180.048 94.84 179.216C94.912 179.216 94.96 179.312 94.888 179.344C92.44 180.32 90.088 181.616 87.688 182.776C86.52 183.347 85.3414 183.88 84.152 184.376C82.968 184.904 81.752 185.52 80.56 185.976C80.488 186.032 80.416 185.888 80.488 185.832Z" fill="#263238"/>
<path d="M61.352 164.456C63.0776 164.435 64.7942 164.204 66.464 163.768C67.264 163.568 67.992 163.32 68.744 163.072C69.4927 162.866 70.1938 162.515 70.808 162.04C71.968 161.032 72.512 159.456 73.016 158.04C73.567 156.471 74.0133 154.868 74.352 153.24C74.352 153.221 74.3596 153.203 74.3731 153.189C74.3866 153.176 74.4049 153.168 74.424 153.168C74.4431 153.168 74.4614 153.176 74.4749 153.189C74.4884 153.203 74.496 153.221 74.496 153.24C74.5369 155.094 74.3024 156.943 73.8 158.728C73.384 160.24 72.824 161.928 71.6 162.992C70.2411 164.014 68.6096 164.61 66.912 164.704C65.0501 164.923 63.1676 164.899 61.312 164.632C61.2954 164.621 61.2825 164.606 61.275 164.588C61.2676 164.569 61.2659 164.549 61.2703 164.53C61.2747 164.511 61.2849 164.493 61.2995 164.48C61.3141 164.467 61.3324 164.459 61.352 164.456Z" fill="#263238"/>
<path d="M50.208 285.44C50.784 274.731 51.392 264.016 52.032 253.296C53.264 231.976 54.432 210.648 55.8 189.296C56.6 177.296 57.336 165.24 58.28 153.224C58.2862 153.202 58.2993 153.183 58.3174 153.17C58.3354 153.156 58.3574 153.149 58.38 153.149C58.4026 153.149 58.4246 153.156 58.4426 153.17C58.4607 153.183 58.4738 153.202 58.48 153.224C57.6 174.72 56.32 196.144 55.08 217.6C53.84 239.056 52.576 260.224 51.2 281.536C50.48 293.6 49.528 305.6 48.8 317.6C48.8038 317.611 48.8049 317.623 48.8033 317.634C48.8017 317.645 48.7973 317.656 48.7907 317.665C48.784 317.675 48.7752 317.682 48.765 317.688C48.7548 317.693 48.7435 317.696 48.732 317.696C48.7205 317.696 48.7092 317.693 48.699 317.688C48.6888 317.682 48.68 317.675 48.6733 317.665C48.6667 317.656 48.6623 317.645 48.6607 317.634C48.6591 317.623 48.6602 317.611 48.664 317.6C49.216 306.88 49.6 296.16 50.208 285.44Z" fill="#263238"/>
<path d="M45.224 320.16C47.208 320.016 49.224 320.04 51.208 320.016C53.192 319.992 55.208 320.016 57.192 320.016C61.192 320.056 65.192 320.12 69.192 320.232C70.28 320.232 71.376 320.296 72.464 320.344C73.552 320.392 74.792 320.6 75.952 320.64C75.9711 320.64 75.9894 320.648 76.0029 320.661C76.0164 320.675 76.024 320.693 76.024 320.712C76.024 320.731 76.0164 320.749 76.0029 320.763C75.9894 320.776 75.9711 320.784 75.952 320.784C74.976 320.784 73.992 320.936 73.008 320.968C72.024 321 70.976 320.968 69.96 320.968C67.968 320.968 65.96 320.968 63.984 320.968C59.984 320.968 55.984 320.888 51.984 320.72C49.728 320.624 47.456 320.6 45.216 320.376C45.2018 320.376 45.1879 320.372 45.175 320.366C45.1621 320.36 45.1504 320.352 45.1408 320.342C45.1311 320.331 45.1236 320.319 45.1187 320.306C45.1137 320.292 45.1115 320.278 45.112 320.264C45.1125 320.25 45.1158 320.236 45.1217 320.223C45.1276 320.21 45.136 320.198 45.1464 320.189C45.1568 320.179 45.169 320.172 45.1823 320.167C45.1957 320.162 45.2098 320.16 45.224 320.16Z" fill="#263238"/>
<path d="M84.504 114.92C87.76 123 100.696 149.12 109.192 150.968C114.792 152.176 137.296 149.992 141.192 144.664C142.88 142.344 140.024 126.152 137.016 126.792C134.008 127.432 115.952 129.824 113.736 129.192C111.52 128.56 94.896 109.408 88.68 104.656C77.96 96.4481 82.752 110.568 84.504 114.92Z" fill="#D3766A"/>
<path d="M104.216 118.912L90.056 127.288C90.056 127.288 84.096 115.944 81.768 108.52C79.44 101.096 81.44 97.7041 89.984 105.088C95.0053 109.402 99.7582 114.018 104.216 118.912Z" fill="#5D8F5B"/>
<path d="M89.448 124.376C91.3253 123.016 93.2373 121.701 95.184 120.432C96.136 119.808 97.088 119.168 98.056 118.568C99.024 117.968 100.104 117.384 101.104 116.76C101.111 116.754 101.119 116.749 101.127 116.746C101.136 116.743 101.145 116.742 101.155 116.743C101.164 116.744 101.173 116.747 101.181 116.751C101.189 116.756 101.195 116.762 101.201 116.77C101.206 116.778 101.209 116.786 101.211 116.795C101.213 116.804 101.212 116.814 101.21 116.823C101.208 116.832 101.203 116.84 101.198 116.847C101.192 116.854 101.184 116.86 101.176 116.864C100.232 117.504 99.336 118.208 98.392 118.856C97.448 119.504 96.424 120.152 95.44 120.792C93.4987 122.061 91.5227 123.285 89.512 124.464C89.456 124.496 89.392 124.416 89.448 124.376Z" fill="#263238"/>
<path d="M103.472 159.904L100.272 141.848C100.272 141.848 105.192 133.264 102.336 127.096C100.896 123.976 88.256 104.552 82.936 100.696C77.944 97.0721 70.696 100.944 68 103.784C57.6 114.728 54.832 134.912 51.104 164.496L103.472 159.904Z" fill="#5D8F5B"/>
<path d="M103.2 128.888C102.805 127.589 102.223 126.355 101.472 125.224C101.224 124.8 100.672 123.92 100 122.896C99.8128 122.402 99.5992 121.919 99.36 121.448C98.9656 120.754 98.6103 120.038 98.296 119.304C98.296 119.232 98.152 119.304 98.192 119.352C98.5268 120.054 98.8259 120.772 99.088 121.504C97.96 119.792 96.776 118.032 96.264 117.312C96.264 117.248 96.128 117.312 96.168 117.368C97.248 118.784 100.792 124.992 101.648 126.568C102.473 128.125 102.899 129.862 102.888 131.624C102.867 133.451 102.631 135.269 102.184 137.04C102.136 137.184 102.288 137.264 102.344 137.12C102.865 135.84 103.205 134.494 103.352 133.12C103.557 131.712 103.505 130.278 103.2 128.888Z" fill="#263238"/>
<path d="M82.024 116.512C82.024 116.512 78.824 112.968 81.44 110.992C84.056 109.016 86.6 113.032 86.6 113.032L82.024 116.512Z" fill="#455A64"/>
<path d="M106.784 139.528L107.584 144.128L107.848 145.64L106.448 144.992L102.224 143.016L81.936 116.368L86.512 112.888L106.8 139.536L106.784 139.528Z" fill="#455A64"/>
<path d="M107.568 144.128L107.832 145.64L106.432 144.992L107.568 144.128Z" fill="#37474F"/>
<path d="M86.7573 112.451L81.4174 116.518L82.2219 117.574L87.5619 113.508L86.7573 112.451Z" fill="#263238"/>
<path d="M87.6498 113.622L82.3098 117.688L83.1144 118.745L88.4543 114.678L87.6498 113.622Z" fill="#263238"/>
<path d="M83.12 118.744L84.84 117.432L91.232 127.792L90.568 128.24L83.12 118.744Z" fill="#263238"/>
<path d="M63.2 109.6C50.4 125.6 36.456 152.216 43.432 157.28C49.832 161.896 71.648 155.776 85.224 149.472C87.808 148.272 75.624 125.472 73 127.072C70.2447 128.755 67.3857 130.262 64.44 131.584C63.688 131.84 67.56 126.472 71.456 113.896C75.424 101.08 70.536 100.392 63.2 109.6Z" fill="#D3766A"/>
<path d="M106.72 123.2C106.904 125.92 100.152 125.8 100.152 125.8C101.173 126.387 101.957 127.312 102.368 128.416C103 130.392 100.176 132.248 100.176 132.248C101.107 133.078 101.767 134.167 102.072 135.376C102.488 137.328 99.904 139.608 99.904 139.608C100.342 140.841 100.319 142.191 99.84 143.408C98.44 146.608 93.072 147 89.8 147.904C86.1447 148.984 82.5813 150.353 79.144 152L71.464 127.912C71.464 127.912 85.312 118.488 89.344 118.432C92.744 118.4 106.44 119.032 106.72 123.2Z" fill="#D3766A"/>
<path d="M100.088 125.72C96.472 124.92 92.656 124.92 88.984 125.056C88.967 125.056 88.9507 125.063 88.9387 125.075C88.9267 125.087 88.92 125.103 88.92 125.12C88.92 125.137 88.9267 125.153 88.9387 125.165C88.9507 125.177 88.967 125.184 88.984 125.184C92.64 125.048 96.424 125.888 100.072 125.896C100.084 125.897 100.095 125.896 100.106 125.892C100.117 125.889 100.128 125.883 100.137 125.876C100.145 125.869 100.153 125.859 100.158 125.849C100.164 125.839 100.167 125.828 100.168 125.816C100.169 125.805 100.168 125.793 100.164 125.782C100.161 125.771 100.155 125.76 100.148 125.752C100.14 125.743 100.131 125.735 100.121 125.73C100.111 125.724 100.1 125.721 100.088 125.72Z" fill="#263238"/>
<path d="M100.064 132C99.2224 131.888 98.3696 131.888 97.528 132C96.632 132.072 95.744 132.152 94.848 132.248C93.064 132.44 91.28 132.68 89.512 132.96C89.432 132.96 89.432 133.096 89.512 133.088C91.296 132.904 93.08 132.736 94.864 132.624C95.76 132.568 96.656 132.512 97.544 132.472C98.3929 132.485 99.2406 132.404 100.072 132.232C100.094 132.221 100.112 132.204 100.124 132.183C100.137 132.162 100.143 132.138 100.142 132.113C100.141 132.089 100.133 132.065 100.12 132.045C100.106 132.025 100.086 132.01 100.064 132Z" fill="#263238"/>
<path d="M99.832 139.6C99.0697 139.518 98.2991 139.564 97.552 139.736L95.152 140.04C93.552 140.232 91.896 140.424 90.264 140.56C90.184 140.56 90.192 140.696 90.264 140.688C91.92 140.56 93.584 140.448 95.24 140.304C96.04 140.24 96.84 140.16 97.64 140.08C98.3889 140.081 99.1316 139.945 99.832 139.68C99.8386 139.676 99.844 139.67 99.8478 139.663C99.8515 139.656 99.8535 139.648 99.8535 139.64C99.8535 139.632 99.8515 139.624 99.8478 139.617C99.844 139.61 99.8386 139.604 99.832 139.6Z" fill="#263238"/>
<path d="M67.024 129.848L53.136 121.048C53.136 121.048 60.552 110.6 66.112 105.16C71.672 99.7201 75.6 99.9601 72.896 110.928C71.3259 117.348 69.3649 123.667 67.024 129.848Z" fill="#5D8F5B"/>
<path d="M55.456 119.2C57.52 120.267 59.5573 121.373 61.568 122.52C62.56 123.088 63.56 123.648 64.536 124.24C65.512 124.832 66.52 125.52 67.528 126.128C67.6 126.176 67.528 126.288 67.472 126.248C66.472 125.696 65.432 125.216 64.432 124.648C63.432 124.08 62.384 123.488 61.368 122.896C59.352 121.744 57.368 120.536 55.408 119.28C55.352 119.2 55.4 119.136 55.456 119.2Z" fill="#263238"/>
<path d="M67.024 129.92C67.688 127.584 68.624 125.344 69.424 123.048C70.224 120.752 71.024 118.416 71.696 116.088C71.6928 116.081 71.6915 116.073 71.6922 116.065C71.6928 116.057 71.6955 116.049 71.6998 116.043C71.7042 116.036 71.7102 116.03 71.7172 116.027C71.7242 116.023 71.732 116.021 71.74 116.021C71.748 116.021 71.7558 116.023 71.7628 116.027C71.7698 116.03 71.7758 116.036 71.7802 116.043C71.7845 116.049 71.7872 116.057 71.7878 116.065C71.7885 116.073 71.7872 116.081 71.784 116.088C71.496 117.264 71.232 118.488 70.904 119.624C70.744 120.2 70.56 120.784 70.376 121.352C70.496 121.144 70.608 120.936 70.736 120.728C71.1262 120.115 71.5481 119.522 72 118.952C72 118.952 72.072 118.952 72.056 118.992C71.7399 119.647 71.3901 120.285 71.008 120.904C70.736 121.352 70.432 121.784 70.144 122.224L69.8 123.2C69.1253 125.524 68.2389 127.782 67.152 129.944C67.112 130.024 67.008 129.992 67.024 129.92Z" fill="#263238"/>
<path d="M63.896 131.744C60.352 133.584 56.344 136.312 54.296 138.472C54.232 138.536 54.296 138.64 54.376 138.584C56.424 136.984 62.504 133.272 64.072 132.224C64.56 131.896 64.912 131.2 63.896 131.744Z" fill="#263238"/>
<path d="M126.2 152.44L97.912 153.048L110.344 116.472L138.632 115.864L126.2 152.44Z" fill="#EBEBEB"/>
<path d="M128.136 152.4L99.848 153L112.28 116.432L140.568 115.824L128.136 152.4Z" fill="#37474F"/>
<path d="M115.288 116.368C115.106 117.005 114.681 117.545 114.104 117.872C113.84 118.024 113.76 117.672 114.024 117.528C114.391 117.314 114.673 116.981 114.824 116.584C114.824 116.512 114.872 116.44 114.888 116.376C114.947 116.151 114.947 115.914 114.888 115.688C114.865 115.589 114.809 115.501 114.728 115.44H114.672C114.609 115.425 114.543 115.425 114.48 115.44C114.357 115.485 114.247 115.559 114.16 115.656C114.05 115.771 113.956 115.9 113.88 116.04L113.76 116.248V116.296C113.757 116.32 113.757 116.344 113.76 116.368C113.757 116.387 113.757 116.405 113.76 116.424H113.36C113.449 116.171 113.573 115.931 113.728 115.712C113.844 115.523 114 115.361 114.185 115.238C114.371 115.115 114.58 115.034 114.8 115C114.96 114.995 115.116 115.051 115.236 115.156C115.356 115.262 115.432 115.409 115.448 115.568C115.462 115.844 115.407 116.119 115.288 116.368Z" fill="#C7C7C7"/>
<path d="M117.504 116.32C117.322 116.957 116.897 117.497 116.32 117.824C116.056 117.976 115.976 117.624 116.24 117.48C116.605 117.264 116.886 116.931 117.04 116.536C117.066 116.469 117.085 116.399 117.096 116.328C117.159 116.103 117.159 115.865 117.096 115.64C117.07 115.541 117.011 115.453 116.928 115.392H116.872C116.807 115.373 116.737 115.373 116.672 115.392C116.549 115.437 116.439 115.511 116.352 115.608C116.203 115.793 116.072 115.991 115.96 116.2V116.248C115.958 116.275 115.958 116.301 115.96 116.328C115.957 116.344 115.957 116.36 115.96 116.376H115.56C115.649 116.123 115.773 115.883 115.928 115.664C116.044 115.475 116.2 115.313 116.385 115.19C116.571 115.067 116.78 114.986 117 114.952C117.159 114.945 117.315 115.001 117.435 115.107C117.554 115.213 117.628 115.361 117.64 115.52C117.664 115.794 117.617 116.07 117.504 116.32Z" fill="#C7C7C7"/>
<path d="M119.712 116.272C119.626 116.588 119.478 116.884 119.276 117.143C119.074 117.401 118.822 117.616 118.536 117.776C118.272 117.928 118.192 117.576 118.448 117.432C118.814 117.217 119.096 116.884 119.248 116.488C119.248 116.424 119.288 116.352 119.304 116.28C119.367 116.055 119.367 115.817 119.304 115.592C119.278 115.493 119.219 115.405 119.136 115.344C119.118 115.348 119.098 115.348 119.08 115.344C119.015 115.325 118.945 115.325 118.88 115.344C118.757 115.389 118.647 115.463 118.56 115.56C118.454 115.677 118.363 115.806 118.288 115.944C118.243 116.011 118.203 116.08 118.168 116.152V116.208C118.165 116.232 118.165 116.256 118.168 116.28C118.168 116.28 118.168 116.28 118.168 116.328H117.76C117.852 116.076 117.976 115.837 118.128 115.616C118.248 115.43 118.405 115.27 118.589 115.147C118.774 115.025 118.982 114.942 119.2 114.904C119.36 114.897 119.517 114.952 119.638 115.058C119.758 115.164 119.834 115.312 119.848 115.472C119.869 115.746 119.822 116.021 119.712 116.272Z" fill="#C7C7C7"/>
<path d="M121.928 116.224C121.842 116.54 121.694 116.836 121.492 117.095C121.29 117.353 121.038 117.568 120.752 117.728C120.48 117.88 120.4 117.528 120.664 117.384C121.031 117.17 121.313 116.837 121.464 116.44C121.489 116.375 121.51 116.308 121.528 116.24C121.591 116.012 121.591 115.772 121.528 115.544C121.505 115.445 121.449 115.357 121.368 115.296H121.28C121.215 115.276 121.145 115.276 121.08 115.296C120.958 115.342 120.848 115.416 120.76 115.512C120.652 115.627 120.56 115.756 120.488 115.896C120.442 115.964 120.401 116.037 120.368 116.112V116.16C120.365 116.184 120.365 116.208 120.368 116.232C120.368 116.232 120.368 116.232 120.368 116.28H119.968C120.06 116.031 120.184 115.794 120.336 115.576C120.452 115.386 120.608 115.223 120.793 115.099C120.978 114.974 121.188 114.892 121.408 114.856C121.568 114.849 121.725 114.904 121.846 115.01C121.966 115.116 122.042 115.264 122.056 115.424C122.08 115.697 122.036 115.972 121.928 116.224Z" fill="#C7C7C7"/>
<path d="M124.144 116.184C123.962 116.821 123.537 117.361 122.96 117.688C122.696 117.832 122.616 117.48 122.88 117.344C123.245 117.125 123.527 116.79 123.68 116.392C123.705 116.327 123.726 116.26 123.744 116.192C123.803 115.964 123.803 115.724 123.744 115.496C123.723 115.399 123.666 115.313 123.584 115.256H123.528C123.466 115.236 123.398 115.236 123.336 115.256C123.214 115.302 123.104 115.376 123.016 115.472C122.908 115.589 122.814 115.718 122.736 115.856L122.616 116.072V116.12C122.613 116.144 122.613 116.168 122.616 116.192C122.616 116.192 122.616 116.192 122.616 116.24H122.216C122.305 115.989 122.429 115.752 122.584 115.536C122.703 115.348 122.86 115.187 123.044 115.063C123.229 114.939 123.437 114.855 123.656 114.816C123.816 114.811 123.972 114.867 124.092 114.973C124.212 115.078 124.288 115.225 124.304 115.384C124.316 115.66 124.261 115.934 124.144 116.184Z" fill="#C7C7C7"/>
<path d="M126.4 116.136C126.215 116.772 125.791 117.311 125.216 117.64C124.952 117.784 124.872 117.432 125.136 117.296C125.503 117.079 125.785 116.743 125.936 116.344C125.962 116.28 125.981 116.213 125.992 116.144C126.055 115.916 126.055 115.676 125.992 115.448C125.968 115.352 125.911 115.267 125.832 115.208H125.776C125.711 115.189 125.641 115.189 125.576 115.208C125.455 115.256 125.346 115.33 125.256 115.424C125.15 115.541 125.059 115.67 124.984 115.808C124.939 115.877 124.899 115.95 124.864 116.024V116.072C124.861 116.096 124.861 116.12 124.864 116.144C124.861 116.16 124.861 116.176 124.864 116.192H124.464C124.553 115.941 124.677 115.704 124.832 115.488C124.951 115.3 125.108 115.139 125.292 115.015C125.477 114.891 125.685 114.807 125.904 114.768C126.063 114.761 126.219 114.817 126.339 114.923C126.458 115.029 126.532 115.177 126.544 115.336C126.566 115.611 126.516 115.886 126.4 116.136Z" fill="#C7C7C7"/>
<path d="M128.568 116.088C128.389 116.725 127.967 117.265 127.392 117.592C127.128 117.736 127.048 117.392 127.312 117.248C127.529 117.128 127.717 116.963 127.865 116.765C128.012 116.566 128.116 116.338 128.168 116.096C128.231 115.868 128.231 115.628 128.168 115.4C128.144 115.302 128.084 115.216 128 115.16H127.944C127.879 115.141 127.809 115.141 127.744 115.16C127.623 115.208 127.514 115.282 127.424 115.376C127.318 115.493 127.227 115.622 127.152 115.76C127.104 115.832 127.072 115.904 127.032 115.976V116.024C127.029 116.048 127.029 116.072 127.032 116.096C127.032 116.096 127.032 116.096 127.032 116.144H126.624C126.716 115.895 126.84 115.658 126.992 115.44C127.109 115.251 127.265 115.09 127.45 114.967C127.635 114.844 127.845 114.763 128.064 114.728C128.223 114.721 128.379 114.775 128.499 114.879C128.62 114.983 128.696 115.13 128.712 115.288C128.729 115.562 128.68 115.837 128.568 116.088Z" fill="#C7C7C7"/>
<path d="M130.784 116.04C130.697 116.356 130.548 116.651 130.346 116.909C130.144 117.167 129.893 117.383 129.608 117.544C129.336 117.696 129.256 117.344 129.52 117.2C129.889 116.985 130.171 116.648 130.32 116.248C130.345 116.183 130.366 116.116 130.384 116.048C130.447 115.82 130.447 115.58 130.384 115.352C130.361 115.256 130.304 115.17 130.224 115.112H130.176C130.111 115.089 130.041 115.089 129.976 115.112C129.851 115.152 129.74 115.227 129.656 115.328C129.546 115.439 129.455 115.565 129.384 115.704C129.336 115.776 129.304 115.848 129.264 115.92V115.968L129.224 116.04C129.224 116.04 129.224 116.04 129.224 116.088H128.8C128.892 115.839 129.016 115.602 129.168 115.384C129.284 115.195 129.44 115.033 129.625 114.91C129.811 114.787 130.02 114.706 130.24 114.672C130.399 114.665 130.555 114.719 130.675 114.823C130.796 114.927 130.872 115.074 130.888 115.232C130.919 115.506 130.883 115.783 130.784 116.04Z" fill="#C7C7C7"/>
<path d="M133 116C132.82 116.638 132.394 117.179 131.816 117.504C131.552 117.656 131.472 117.304 131.736 117.16C132.105 116.945 132.387 116.608 132.536 116.208C132.561 116.143 132.582 116.076 132.6 116.008C132.659 115.783 132.659 115.546 132.6 115.32C132.577 115.221 132.521 115.133 132.44 115.072H132.384C132.322 115.049 132.254 115.049 132.192 115.072C132.067 115.112 131.956 115.187 131.872 115.288C131.76 115.401 131.666 115.531 131.592 115.672C131.592 115.736 131.52 115.808 131.472 115.88V115.928C131.469 115.952 131.469 115.976 131.472 116C131.472 116 131.472 116 131.472 116.048H131.072C131.163 115.798 131.286 115.561 131.44 115.344C131.556 115.155 131.712 114.993 131.897 114.87C132.083 114.747 132.292 114.666 132.512 114.632C132.671 114.625 132.827 114.679 132.947 114.783C133.068 114.887 133.144 115.034 133.16 115.192C133.174 115.47 133.119 115.748 133 116Z" fill="#C7C7C7"/>
<path d="M135.2 115.944C135.018 116.581 134.593 117.121 134.016 117.448C133.752 117.6 133.672 117.248 133.936 117.104C134.303 116.887 134.585 116.551 134.736 116.152C134.761 116.087 134.782 116.02 134.8 115.952C134.859 115.727 134.859 115.49 134.8 115.264C134.774 115.167 134.718 115.08 134.64 115.016H134.584C134.519 114.997 134.449 114.997 134.384 115.016C134.261 115.061 134.151 115.135 134.064 115.232C133.955 115.346 133.863 115.475 133.792 115.616C133.747 115.683 133.707 115.752 133.672 115.824V115.872C133.669 115.896 133.669 115.92 133.672 115.944C133.669 115.96 133.669 115.976 133.672 115.992H133.272C133.363 115.742 133.486 115.505 133.64 115.288C133.756 115.099 133.912 114.937 134.097 114.814C134.283 114.691 134.492 114.61 134.712 114.576C134.87 114.569 135.025 114.624 135.144 114.728C135.263 114.832 135.338 114.978 135.352 115.136C135.373 115.414 135.32 115.693 135.2 115.944Z" fill="#C7C7C7"/>
<path d="M137.424 115.896C137.337 116.212 137.188 116.507 136.986 116.765C136.784 117.023 136.533 117.239 136.248 117.4C135.984 117.552 135.904 117.2 136.168 117.056C136.385 116.936 136.573 116.771 136.721 116.573C136.868 116.374 136.972 116.146 137.024 115.904C137.087 115.679 137.087 115.441 137.024 115.216C136.998 115.117 136.939 115.029 136.856 114.968H136.8C136.735 114.949 136.665 114.949 136.6 114.968C136.477 115.013 136.367 115.087 136.28 115.184C136.171 115.298 136.079 115.427 136.008 115.568C135.963 115.635 135.923 115.704 135.888 115.776V115.824C135.885 115.848 135.885 115.872 135.888 115.896C135.888 115.896 135.888 115.896 135.888 115.944H135.488C135.574 115.689 135.698 115.449 135.856 115.232C135.971 115.043 136.126 114.882 136.309 114.759C136.493 114.636 136.702 114.554 136.92 114.52C137.079 114.513 137.235 114.567 137.355 114.671C137.476 114.775 137.552 114.922 137.568 115.08C137.596 115.36 137.546 115.642 137.424 115.896Z" fill="#C7C7C7"/>
<path d="M139.64 115.848C139.553 116.164 139.404 116.459 139.202 116.717C139 116.975 138.749 117.191 138.464 117.352C138.192 117.504 138.112 117.152 138.376 117.008C138.743 116.794 139.025 116.461 139.176 116.064C139.176 115.992 139.224 115.92 139.24 115.856C139.299 115.631 139.299 115.394 139.24 115.168C139.211 115.07 139.152 114.983 139.072 114.92H139.032H138.984C138.918 114.904 138.85 114.904 138.784 114.92C138.661 114.965 138.551 115.039 138.464 115.136C138.354 115.249 138.262 115.379 138.192 115.52C138.147 115.587 138.107 115.656 138.072 115.728V115.776C138.069 115.8 138.069 115.824 138.072 115.848C138.069 115.867 138.069 115.886 138.072 115.904H137.6C137.692 115.652 137.816 115.413 137.968 115.192C138.084 115.003 138.24 114.841 138.425 114.718C138.611 114.595 138.82 114.514 139.04 114.48C139.2 114.473 139.357 114.528 139.478 114.634C139.598 114.74 139.674 114.888 139.688 115.048C139.737 115.315 139.721 115.589 139.64 115.848Z" fill="#C7C7C7"/>
<path d="M138.76 124.096C140.096 127.224 143.608 131.184 143.816 133.696C143.885 134.316 143.754 134.942 143.441 135.482C143.129 136.021 142.652 136.447 142.08 136.696C142.08 136.696 144.536 138.04 144.344 140.352C144.24 141.552 142.248 142.44 142.248 142.44C142.781 142.777 143.212 143.253 143.494 143.817C143.776 144.381 143.899 145.011 143.848 145.64C143.608 147.24 141.648 147.92 141.648 147.92C141.648 147.92 142.968 149.896 142.192 151.48C140.592 154.68 126.464 154.136 124.48 148.84C123.56 146.368 127.008 146.688 127.008 146.688C127.008 146.688 122.16 145.024 122.208 142.104C122.256 139.184 126.704 139.88 126.704 139.88C126.704 139.88 122.04 138.24 122.4 135.2C122.76 132.048 127.104 133.504 127.104 133.504C127.104 133.504 124.04 131.248 124.832 128.992C126.152 125.272 131.92 130.248 135.064 129.632L136.984 124.568L138.76 124.096Z" fill="#D3766A"/>
<path d="M141.416 128.672C140.408 125.6 144.304 122.008 143.768 118.936C143.04 114.776 138.232 118.632 136.968 124.584L136.792 129.384L141.416 128.672Z" fill="#D3766A"/>
<path d="M141.376 148.08C141.387 148.08 141.397 148.084 141.404 148.092C141.412 148.099 141.416 148.109 141.416 148.12C141.416 148.131 141.412 148.141 141.404 148.148C141.397 148.156 141.387 148.16 141.376 148.16C136.493 149.165 131.421 148.66 126.832 146.712C126.688 146.648 126.736 146.384 126.904 146.424C131.622 147.678 136.497 148.236 141.376 148.08Z" fill="#263238"/>
<path d="M142.32 142.48C142.376 142.48 142.376 142.568 142.32 142.576C136.927 143.631 131.334 142.723 126.552 140.016C126.384 139.912 126.336 139.664 126.552 139.76C129.864 141.448 137.744 142.688 142.32 142.48Z" fill="#263238"/>
<path d="M126.8 133.2C131.504 135.808 136.568 136.64 141.888 136.752C141.952 136.752 141.944 136.848 141.888 136.864C139.272 137.52 135.888 137.096 133.28 136.544C130.849 136.068 128.585 134.965 126.712 133.344C126.64 133.304 126.704 133.144 126.8 133.2Z" fill="#263238"/>
<path d="M73.8 99.9041C74 100.76 80.2 106.184 84.144 106C85.416 105.944 83.224 99.1201 83.224 99.1201L83.344 98.6081L84.944 91.4081L76.504 85.9761L75.28 85.2561C75.28 85.2561 74.968 87.2561 74.608 89.7441C74.608 89.8561 74.608 89.9761 74.552 90.0961C74.496 90.2161 74.504 90.3681 74.488 90.5041C74.424 90.8721 74.368 91.2561 74.32 91.6321C74.272 92.0081 74.24 92.2001 74.208 92.5041C74.176 92.8081 74.136 93.1041 74.096 93.4081C73.8473 95.564 73.7484 97.7345 73.8 99.9041Z" fill="#D3766A"/>
<path d="M74.624 89.7441C75.348 91.7654 76.5028 93.6051 78.0085 95.1357C79.5143 96.6663 81.3348 97.8511 83.344 98.6081L84.944 91.4081L76.504 85.9761L75.28 85.2561C75.28 85.2561 74.984 87.2561 74.624 89.7441Z" fill="#263238"/>
<path d="M96.064 82.4001C95.096 95.3041 87.264 96.1841 84.472 96.0001C81.952 95.8081 73.376 94.8321 73 81.8961C72.624 68.9601 78.936 65.3281 84.736 65.4641C90.536 65.6001 97.024 69.4881 96.064 82.4001Z" fill="#D3766A"/>
<path d="M73.344 81.0001C76.376 81.5201 77.136 76.7201 77.136 76.7201C77.136 76.7201 80.64 76.9601 81.8 71.4321C82.2896 72.6603 83.0574 73.7583 84.0429 74.6397C85.0285 75.5211 86.205 76.1621 87.48 76.5121C88.448 76.8161 85.544 73.7121 85.544 73.7121C85.544 73.7121 88.936 77.9601 96.544 77.7921C97.08 77.7921 97.232 69.7921 91.872 66.2081C86.512 62.6241 81.04 63.2721 76.864 66.3441C75.7567 66.7137 74.7573 67.35 73.9537 68.1968C73.1502 69.0436 72.5671 70.0749 72.256 71.2001C71.128 75.2001 72.16 80.8001 73.344 81.0001Z" fill="#263238"/>
<path d="M75.2 82.1441C75.2 82.1441 73.04 77.7041 71.072 78.4001C69.104 79.0961 70.272 85.2241 72.248 86.4001C72.4945 86.5634 72.7716 86.6752 73.0625 86.7286C73.3533 86.782 73.652 86.7761 73.9405 86.711C74.229 86.646 74.5014 86.5233 74.7412 86.3502C74.981 86.1772 75.1833 85.9574 75.336 85.7041L75.2 82.1441Z" fill="#D3766A"/>
<path d="M71.44 80.144C71.44 80.144 71.392 80.144 71.44 80.2C72.832 81.048 73.392 82.552 73.704 84.08C73.6427 83.9164 73.5465 83.7682 73.422 83.6456C73.2975 83.5231 73.1477 83.4292 72.9831 83.3705C72.8186 83.3119 72.6432 83.2898 72.4692 83.306C72.2953 83.3221 72.1269 83.3761 71.976 83.464C71.928 83.464 71.976 83.552 71.976 83.544C72.2522 83.5044 72.534 83.5507 72.783 83.6766C73.032 83.8026 73.2362 84.0021 73.368 84.248C73.5805 84.6614 73.7494 85.0957 73.872 85.544C73.92 85.688 74.176 85.656 74.144 85.496V85.456C74.496 83.568 73.448 80.672 71.44 80.144Z" fill="#263238"/>
<path d="M93.8 79.8561C93.504 79.7761 93.24 79.6561 93 79.5521C92.6885 79.4874 92.4072 79.3215 92.2 79.0801C92.1497 78.991 92.1303 78.8878 92.1448 78.7865C92.1593 78.6852 92.2068 78.5915 92.28 78.5201C92.4455 78.4019 92.6394 78.33 92.8419 78.3118C93.0444 78.2935 93.2481 78.3295 93.432 78.4161C93.8327 78.533 94.1751 78.7955 94.392 79.1521C94.443 79.239 94.4659 79.3397 94.4574 79.4401C94.4489 79.5406 94.4095 79.636 94.3446 79.7131C94.2797 79.7903 94.1925 79.8455 94.095 79.8711C93.9975 79.8967 93.8944 79.8914 93.8 79.8561Z" fill="#263238"/>
<path d="M85.536 78.616C85.8248 78.6124 86.1132 78.5937 86.4 78.56C86.716 78.5828 87.0308 78.5013 87.296 78.328C87.3692 78.2566 87.4167 78.1629 87.4312 78.0616C87.4457 77.9604 87.4263 77.8571 87.376 77.768C87.2501 77.6075 87.0836 77.4835 86.8937 77.409C86.7038 77.3344 86.4975 77.312 86.296 77.344C85.8807 77.3451 85.481 77.5021 85.176 77.784C85.1072 77.8532 85.0606 77.9415 85.0425 78.0374C85.0243 78.1333 85.0353 78.2324 85.0741 78.322C85.1128 78.4116 85.1776 78.4875 85.2599 78.5399C85.3423 78.5923 85.4384 78.6188 85.536 78.616Z" fill="#263238"/>
<path d="M86.912 82.12C86.912 82.08 86.84 82.12 86.832 82.184C86.76 83.064 86.528 84.056 85.696 84.256V84.304C86.68 84.28 86.984 82.96 86.912 82.12Z" fill="#263238"/>
<path d="M86.24 81.112C84.84 80.84 84.4 83.648 85.696 83.904C86.992 84.16 87.408 81.344 86.24 81.112Z" fill="#263238"/>
<path d="M85.664 81.176C85.392 81.296 85.104 81.536 84.808 81.52C84.512 81.504 84.248 81.16 84.072 80.848C84.072 80.848 84.024 80.848 84.016 80.848C83.92 81.384 84.016 81.968 84.608 82.136C85.2 82.304 85.576 81.88 85.792 81.336C85.832 81.288 85.776 81.128 85.664 81.176Z" fill="#263238"/>
<path d="M91.656 82.816C91.656 82.816 91.712 82.864 91.712 82.896C91.536 83.768 91.488 84.784 92.224 85.2C92.224 85.2 92.224 85.256 92.224 85.248C91.272 84.96 91.352 83.6 91.656 82.816Z" fill="#263238"/>
<path d="M92.584 82.0321C94 82.1601 93.64 84.9841 92.328 84.8641C91.016 84.7441 91.392 81.9281 92.584 82.0321Z" fill="#263238"/>
<path d="M93.144 82.2961C93.352 82.4721 93.536 82.7681 93.8 82.8241C94.064 82.8801 94.376 82.6001 94.6 82.3361C94.6 82.3361 94.648 82.3361 94.6 82.3361C94.544 82.8801 94.296 83.4241 93.8 83.4561C93.304 83.4881 93 82.9841 93 82.4321C92.968 82.4001 93.064 82.2241 93.144 82.2961Z" fill="#263238"/>
<path d="M85.84 89.152C86 89.392 86.152 89.712 86.456 89.8C86.7779 89.8668 87.1101 89.8668 87.432 89.8C87.432 89.8 87.48 89.8 87.432 89.856C87.2727 89.9985 87.0782 90.096 86.8686 90.1382C86.6591 90.1803 86.442 90.1658 86.24 90.096C86.0719 90.0151 85.9319 89.8858 85.8378 89.7247C85.7437 89.5636 85.6999 89.3781 85.712 89.192C85.744 89.12 85.816 89.112 85.84 89.152Z" fill="#263238"/>
<path d="M89.112 88.128C88.7357 88.5226 88.2648 88.8145 87.744 88.976C87.4606 89.0677 87.1554 89.0677 86.872 88.976C86.264 88.744 86.304 88.176 86.472 87.688C86.5635 87.4348 86.6843 87.1931 86.832 86.968C87.449 87.5877 88.2478 87.9941 89.112 88.128Z" fill="#263238"/>
<path d="M87.744 88.9761C87.4606 89.0678 87.1554 89.0678 86.872 88.9761C86.264 88.7441 86.304 88.1761 86.472 87.6881C86.7961 87.7331 87.0964 87.8836 87.3264 88.1164C87.5563 88.3493 87.7031 88.6514 87.744 88.9761Z" fill="#FF9CBD"/>
<path d="M95.856 69.6001C94.368 69.2481 86.096 69.4881 82.376 71.0881C78.656 72.6881 72.056 78.0401 71.72 78.2881C71.384 78.5361 69.68 64.9281 80.736 62.4401C92.8 59.7761 95.856 69.6001 95.856 69.6001Z" fill="#5D8F5B"/>
<path d="M72.352 77.776C72.352 77.776 79.664 68.176 83.728 65.928C87.792 63.68 96.888 62.48 102.512 64.96C106.904 66.888 96.192 72.536 96.192 72.536C96.0935 72.0709 95.8873 71.6354 95.59 71.2644C95.2927 70.8934 94.9125 70.5974 94.48 70.4C91.744 69.312 86.544 70.152 83.576 71.144C79.848 72.416 72.352 77.776 72.352 77.776Z" fill="#5D8F5B"/>
<path opacity="0.2" d="M72.352 77.776C72.352 77.776 79.664 68.176 83.728 65.928C87.792 63.68 96.888 62.48 102.512 64.96C106.904 66.888 96.192 72.536 96.192 72.536C96.0935 72.0709 95.8873 71.6354 95.59 71.2644C95.2927 70.8934 94.9125 70.5974 94.48 70.4C91.744 69.312 86.544 70.152 83.576 71.144C79.848 72.416 72.352 77.776 72.352 77.776Z" fill="black"/>
<path d="M83.2 99.104L81.456 105.016L73.688 98.488L71.904 100.984C71.904 100.984 79.904 111.784 79.904 111.256L81.784 106.128L85.496 109.224L84.408 100.672L83.2 99.104Z" fill="#5D8F5B"/>
<path d="M85.24 104.96C85.008 103.56 84.824 102.136 84.528 100.744C84.528 100.696 84.44 100.68 84.432 100.744C84.28 102.136 85.176 107.512 85.296 108.808C85.136 108.672 81.864 106.104 81.84 106.152C81.408 106.952 80.024 110.72 79.936 111.056C78.664 109.336 73.84 103.128 72.384 101.528C72.3766 101.518 72.3652 101.51 72.3525 101.508C72.3397 101.506 72.3266 101.509 72.316 101.516C72.3054 101.524 72.2982 101.535 72.2959 101.548C72.2937 101.56 72.2966 101.574 72.304 101.584C73.456 103.416 79.856 111.792 79.936 111.76C80.6838 109.988 81.338 108.177 81.896 106.336C82.464 106.912 85.8 109.848 85.792 109.632C85.704 108.184 85.464 106.4 85.24 104.96Z" fill="#263238"/>
</svg>
